<?xml version="1.0" encoding="utf-8"?>
<svg xmlns="http://www.w3.org/2000/svg" style="margin: auto; display: block; shape-rendering: auto;" width="280" height="250" preserveAspectRatio="xMidYMid">
<style type="text/css">
  text {
    text-anchor: middle; font-size: 91px; opacity: 0;
  }
</style>
<g style="transform-origin: 140px 125px; transform: scale(1.1375);">
<g transform="translate(140,125)">
  <g transform="translate(0,0)"><g class="path" style="transform: scale(0.91); transform-origin: -88.8px -6.0028px; animation: 1.40845s linear -0.81338s infinite normal forwards running breath-a80c5fc6-911e-468b-8d09-518d62f0cea3;"><path d="M13.20-45.76L13.20-45.76L12.72-16.40L12.72-16.40Q12.72-2.64 13.60 0.08L13.60 0.08L13.60 0.08Q13.84 0.56 13.84 1.04L13.84 1.04L13.84 1.04Q13.84 2 11.52 2L11.52 2L11.52 2Q9.20 2 6.36 0.84L6.36 0.84L6.36 0.84Q3.52-0.32 3.52-2.16L3.52-2.16L3.52-2.16Q5.12-13.36 5.12-32.08L5.12-32.08L4.80-44.32L4.80-44.32Q4.64-46.56 3.88-48.16L3.88-48.16L3.88-48.16Q3.12-49.76 2.40-50.24L2.40-50.24L1.76-50.64L1.76-50.64Q1.20-50.96 1.20-51.36L1.20-51.36L1.20-51.36Q1.20-52.48 4.68-54.12L4.68-54.12L4.68-54.12Q8.16-55.76 11.44-55.76L11.44-55.76L11.44-55.76Q12.72-55.76 12.88-54.88L12.88-54.88L12.88-54.88Q13.20-52.80 13.20-45.76" fill="#292664" stroke="none" stroke-width="none" transform="translate(-96.31997680664062,20.877199478149414)" style="fill: rgb(41, 38, 100);"></path></g><g class="path" style="transform: scale(0.91); transform-origin: -63.08px 3.5972px; animation: 1.40845s linear -0.697183s infinite normal forwards running breath-a80c5fc6-911e-468b-8d09-518d62f0cea3;"><path d="M26.48-30.16L26.48-30.16L26.48-30.16Q24.40-30.08 23.48-30.04L23.48-30.04L23.48-30.04Q22.56-30 22.56-30.48L22.56-30.48L22.56-30.48Q22.56-30.96 23.04-31.44L23.04-31.44L23.04-31.44Q28.16-36.16 40.32-36.16L40.32-36.16L40.32-36.16Q44.48-36.16 46.88-35.44L46.88-35.44L47.68-35.20L47.68-35.20Q48.64-34.80 48.64-34.32L48.64-34.32L48.64-34.32Q48.64-33.92 48.08-33.68L48.08-33.68L48.08-33.68Q45.92-33.04 43.92-31.64L43.92-31.64L43.92-31.64Q41.92-30.24 41.92-29.68L41.92-29.68L42.40-29.12L42.40-29.12Q44.96-27.68 46.36-24.56L46.36-24.56L46.36-24.56Q47.76-21.44 47.92-19.04L47.92-19.04L48.08-16.56L48.08-16.56Q48.08-8.64 43.68-3.52L43.68-3.52L43.68-3.52Q39.28 1.60 31.68 1.60L31.68 1.60L31.68 1.60Q27.84 1.60 25.04 0.24L25.04 0.24L25.04 0.24Q22.24-1.12 20.92-2.84L20.92-2.84L20.92-2.84Q19.60-4.56 18.80-6.72L18.80-6.72L18.80-6.72Q17.84-9.68 17.84-12.84L17.84-12.84L17.84-12.84Q17.84-16 18.92-19.20L18.92-19.20L18.92-19.20Q20.00-22.40 21.40-23.92L21.40-23.92L21.40-23.92Q22.80-25.44 24.56-26.40L24.56-26.40L24.56-26.40Q26.80-27.60 28.16-27.60L28.16-27.60L28.16-27.60Q29.52-27.60 29.52-27.04L29.52-27.04L29.04-26.24L29.04-26.24Q27.28-24.16 26.52-20.80L26.52-20.80L26.52-20.80Q25.76-17.44 25.76-14.84L25.76-14.84L25.76-14.84Q25.76-12.24 26.40-9.68L26.40-9.68L26.40-9.68Q27.04-7.12 27.84-5.88L27.84-5.88L27.84-5.88Q28.64-4.64 29.68-4L29.68-4L29.68-4Q31.20-3.04 32.88-3.04L32.88-3.04L32.88-3.04Q34.56-3.04 36.16-4.36L36.16-4.36L36.16-4.36Q37.76-5.68 38.48-7.84L38.48-7.84L38.48-7.84Q39.92-11.84 39.92-16.08L39.92-16.08L39.92-16.08Q39.92-22.80 36.52-26.48L36.52-26.48L36.52-26.48Q33.12-30.16 26.48-30.16" fill="#292664" stroke="none" stroke-width="none" transform="translate(-96.31997680664062,20.877199478149414)" style="fill: rgb(102, 115, 149);"></path></g><g class="path" style="transform: scale(0.91); transform-origin: -30.24px 3.3172px; animation: 1.40845s linear -0.580986s infinite normal forwards running breath-a80c5fc6-911e-468b-8d09-518d62f0cea3;"><path d="M78.96-24L78.96-24L78.80-13.76L78.80-13.76Q78.80-3.12 81.12-0.96L81.12-0.96L81.12-0.96Q81.44-0.64 81.44-0.24L81.44-0.24L81.44-0.24Q81.44 0.96 76.28 0.96L76.28 0.96L76.28 0.96Q71.12 0.96 70.80-2.08L70.80-2.08L70.80-2.08Q70.72-2.80 70.72-5.04L70.72-5.04L71.04-17.84L71.04-17.84Q71.04-18.40 70.40-18.40L70.40-18.40L70.40-18.40Q66.56-18.40 63.20-16.24L63.20-16.24L63.20-16.24Q59.84-14.08 59.84-10.72L59.84-10.72L59.84-10.72Q59.84-8.96 60.80-7.76L60.80-7.76L60.80-7.76Q61.76-6.56 63.16-6.56L63.16-6.56L63.16-6.56Q64.56-6.56 65.48-7.12L65.48-7.12L65.48-7.12Q66.40-7.68 66.56-7.76L66.56-7.76L66.56-7.76Q67.92-7.60 67.92-4.92L67.92-4.92L67.92-4.92Q67.92-2.24 65.44-0.60L65.44-0.60L65.44-0.60Q62.96 1.04 60.24 1.04L60.24 1.04L60.24 1.04Q57.52 1.04 55.56 0.08L55.56 0.08L55.56 0.08Q53.60-0.88 52.72-2.08L52.72-2.08L52.72-2.08Q51.84-3.28 51.28-4.80L51.28-4.80L51.28-4.80Q50.72-6.64 50.72-8L50.72-8L50.72-8Q50.72-13.60 54.24-16.96L54.24-16.96L54.24-16.96Q57.76-20.32 63.28-21.76L63.28-21.76L63.28-21.76Q70.56-23.20 70.88-24.40L70.88-24.40L70.88-24.40Q71.12-25.28 71.12-27.36L71.12-27.36L71.12-27.36Q71.12-31.60 66.80-31.60L66.80-31.60L66.80-31.60Q64.96-31.60 63.52-30.44L63.52-30.44L63.52-30.44Q62.08-29.28 62.08-27.52L62.08-27.52L62.56-25.60L62.56-25.60Q62.40-24.24 59.68-24L59.68-24L58.80-23.92L58.80-23.92Q56.40-23.92 55-25.12L55-25.12L55-25.12Q53.60-26.32 53.60-28.32L53.60-28.32L53.60-28.32Q53.60-29.60 54.44-31.16L54.44-31.16L54.44-31.16Q55.28-32.72 56.56-33.68L56.56-33.68L56.56-33.68Q57.84-34.64 60.52-35.40L60.52-35.40L60.52-35.40Q63.20-36.16 65.68-36.16L65.68-36.16L65.68-36.16Q68.16-36.16 69.52-36L69.52-36L69.52-36Q70.88-35.84 73.24-35.24L73.24-35.24L73.24-35.24Q75.60-34.64 77.16-32.96L77.16-32.96L77.16-32.96Q78.72-31.28 78.84-29.40L78.84-29.40L78.84-29.40Q78.96-27.52 78.96-24" fill="#292664" stroke="none" stroke-width="none" transform="translate(-96.31997680664062,20.877199478149414)" style="fill: rgb(148, 169, 206);"></path></g><g class="path" style="transform: scale(0.91); transform-origin: 2.00002px -6.4428px; animation: 1.40845s linear -0.464789s infinite normal forwards running breath-a80c5fc6-911e-468b-8d09-518d62f0cea3;"><path d="M99.84-35.92L99.84-35.92L99.84-35.92Q101.28-35.92 102.44-35.56L102.44-35.56L102.44-35.56Q103.60-35.20 103.68-35.20L103.68-35.20L104.16-35.60L103.84-44.32L103.84-44.32Q103.68-46.56 102.88-48.16L102.88-48.16L102.88-48.16Q102.08-49.76 101.44-50.24L101.44-50.24L100.72-50.64L100.72-50.64Q100.24-50.96 100.24-51.36L100.24-51.36L100.24-51.36Q100.24-52.56 103.96-54.16L103.96-54.16L103.96-54.16Q107.68-55.76 109.76-55.76L109.76-55.76L109.76-55.76Q111.84-55.76 112-54.88L112-54.88L112-54.88Q112.40-52.16 112.40-44.52L112.40-44.52L112.40-44.52Q112.40-36.88 112.04-29.52L112.04-29.52L112.04-29.52Q111.68-22.16 111.68-12.84L111.68-12.84L111.68-12.84Q111.68-3.52 112.88-1.12L112.88-1.12L112.88-1.12Q113.20-0.56 113.20-0.08L113.20-0.08L113.20-0.08Q113.20 1.12 109.76 1.12L109.76 1.12L109.76 1.12Q103.20 1.12 103.20-2L103.20-2L103.20-2Q103.04-3.28 103.04-5.96L103.04-5.96L103.04-5.96Q103.04-8.64 103.56-15.96L103.56-15.96L103.56-15.96Q104.08-23.28 104.08-27.24L104.08-27.24L104.08-27.24Q104.08-31.20 100.12-31.20L100.12-31.20L100.12-31.20Q96.16-31.20 94.08-26.56L94.08-26.56L94.08-26.56Q92-21.92 92-17.28L92-17.28L92-17.28Q92-7.44 96.96-7.44L96.96-7.44L96.96-7.44Q97.68-7.44 98.36-7.72L98.36-7.72L98.36-7.72Q99.04-8 99.20-8L99.20-8L99.20-8Q99.84-8 100.20-7.20L100.20-7.20L100.20-7.20Q100.56-6.40 100.56-5.60L100.56-5.60L100.56-5.60Q100.56-2.88 98.40-1L98.40-1L98.40-1Q96.24 0.88 93.12 0.88L93.12 0.88L93.12 0.88Q88.32 0.88 85.88-3.32L85.88-3.32L85.88-3.32Q83.44-7.52 83.44-13.76L83.44-13.76L83.44-13.76Q83.44-21.68 87.20-28.48L87.20-28.48L87.20-28.48Q89.12-31.84 92.40-33.88L92.40-33.88L92.40-33.88Q95.68-35.92 99.84-35.92" fill="#292664" stroke="none" stroke-width="none" transform="translate(-96.31997680664062,20.877199478149414)" style="fill: rgb(181, 204, 241);"></path></g><g class="path" style="transform: scale(0.91); transform-origin: 27.28px -25.2428px; animation: 1.40845s linear -0.348592s infinite normal forwards running breath-a80c5fc6-911e-468b-8d09-518d62f0cea3;"><path d="M125.04-42.80L125.04-42.80L123.12-42.88L123.12-42.88Q120.96-42.88 120.32-41.84L120.32-41.84L120.32-41.84Q120.16-41.60 119.92-41.60L119.92-41.60L119.92-41.60Q118.88-41.60 118.88-45.16L118.88-45.16L118.88-45.16Q118.88-48.72 119.96-49.68L119.96-49.68L119.96-49.68Q121.04-50.64 123.72-50.64L123.72-50.64L123.72-50.64Q126.40-50.64 127.36-49.72L127.36-49.72L127.36-49.72Q128.32-48.80 128.32-46.64L128.32-46.64L128.32-46.64Q128.32-44.48 127.60-43.64L127.60-43.64L127.60-43.64Q126.88-42.80 125.04-42.80" fill="#292664" stroke="none" stroke-width="none" transform="translate(-96.31997680664062,20.877199478149414)" style="fill: rgb(245, 244, 250);"></path></g><g class="path" style="transform: scale(0.91); transform-origin: 26.24px 3.7172px; animation: 1.40845s linear -0.232394s infinite normal forwards running breath-a80c5fc6-911e-468b-8d09-518d62f0cea3;"><path d="M118.64-2.40L118.64-2.40L119.52-21.04L119.52-21.04Q119.52-27.68 118-30.08L118-30.08L118-30.08Q117.52-30.88 116.88-31.28L116.88-31.28L116.88-31.28Q116.40-31.44 116.40-31.92L116.40-31.92L116.40-31.92Q116.40-33.36 120.48-34.72L120.48-34.72L120.48-34.72Q124.56-36.08 126.44-36.08L126.44-36.08L126.44-36.08Q128.32-36.08 128.40-35.12L128.40-35.12L128.40-35.12Q128.40-33.52 127.96-26.04L127.96-26.04L127.96-26.04Q127.52-18.56 127.52-10.32L127.52-10.32L127.52-10.32Q127.52-2.08 128.48-0.08L128.48-0.08L128.48-0.08Q128.72 0.32 128.72 0.72L128.72 0.72L128.72 0.72Q128.72 1.76 125.68 1.76L125.68 1.76L125.68 1.76Q122.64 1.76 119.44 0.16L119.44 0.16L119.44 0.16Q118.64-0.24 118.64-2.40" fill="#292664" stroke="none" stroke-width="none" transform="translate(-96.31997680664062,20.877199478149414)" style="fill: rgb(242, 190, 209);"></path></g><g class="path" style="transform: scale(0.91); transform-origin: 51.92px 3.3972px; animation: 1.40845s linear -0.116197s infinite normal forwards running breath-a80c5fc6-911e-468b-8d09-518d62f0cea3;"><path d="M133.60 0.56L133.60 0.56L133.60 0.56Q135.04-8.08 135.04-20.16L135.04-20.16L135.04-20.16Q135.04-32.24 134.32-35.84L134.32-35.84L134.32-35.84Q134.32-36.88 136.72-36.88L136.72-36.88L136.72-36.88Q140.40-36.88 141.60-34.08L141.60-34.08L141.60-34.08Q141.68-33.84 142.00-33.84L142.00-33.84L142.00-33.84Q142.32-33.84 142.48-34L142.48-34L142.48-34Q144.96-36.56 150.16-36.56L150.16-36.56L150.16-36.56Q155.36-36.56 158.40-33.92L158.40-33.92L158.40-33.92Q161.44-31.28 161.44-26.24L161.44-26.24L161.44-26.24Q161.44-23.20 160.92-17.60L160.92-17.60L160.92-17.60Q160.40-12 160.40-9.28L160.40-9.28L160.40-9.28Q160.40-2.80 162.56 0.08L162.56 0.08L162.56 0.08Q162.88 0.48 162.88 0.88L162.88 0.88L162.88 0.88Q162.88 1.92 160.64 1.92L160.64 1.92L160.64 1.92Q150.72 1.92 150.72-6.88L150.72-6.88L150.72-6.88Q150.72-10.24 152.24-16.24L152.24-16.24L152.24-16.24Q153.76-22.24 153.76-25.36L153.76-25.36L153.76-25.36Q153.76-31.76 148.48-31.76L148.48-31.76L148.48-31.76Q145.92-31.76 144.60-30.24L144.60-30.24L144.60-30.24Q143.28-28.72 143.12-26.76L143.12-26.76L143.12-26.76Q142.96-24.80 142.96-19.36L142.96-19.36L142.96-19.36Q142.96-11.04 143.52-4.88L143.52-4.88L143.68-3.12L143.68-3.12Q143.68-0.88 140.76 0.36L140.76 0.36L140.76 0.36Q137.84 1.60 135.72 1.60L135.72 1.60L135.72 1.60Q133.60 1.60 133.60 0.56" fill="#292664" stroke="none" stroke-width="none" transform="translate(-96.31997680664062,20.877199478149414)" style="fill: rgb(135, 67, 77);"></path></g><g class="path" style="transform: scale(0.91); transform-origin: 82.84px 14.8772px; animation: 1.40845s linear 0s infinite normal forwards running breath-a80c5fc6-911e-468b-8d09-518d62f0cea3;"><path d="M170.80-32.28L170.80-32.28L170.80-32.28Q172.56-34.08 175.44-35.32L175.44-35.32L175.44-35.32Q178.32-36.56 180.96-36.56L180.96-36.56L180.96-36.56Q183.60-36.56 186.32-35.36L186.32-35.36L186.32-35.36Q186.64-35.36 186.80-35.52L186.80-35.52L186.80-35.52Q188.88-37.60 192.88-37.60L192.88-37.60L192.88-37.60Q193.84-37.60 193.84-36.72L193.84-36.72L193.84-36.72Q193.84-36.64 193.68-36L193.68-36L193.68-36Q193.52-35.36 193.28-34.12L193.28-34.12L193.28-34.12Q193.04-32.88 192.88-31.12L192.88-31.12L192.88-31.12Q192.32-26.56 192.28-21.04L192.28-21.04L192.28-21.04Q192.24-15.52 192.24-10L192.24-10L192.48 6.80L192.48 6.80Q192.48 14.88 188.32 20.24L188.32 20.24L188.32 20.24Q186.64 22.40 183.24 24L183.24 24L183.24 24Q179.84 25.60 175.28 25.60L175.28 25.60L175.28 25.60Q174.24 24.96 174.24 24.32L174.24 24.32L174.24 24.32Q174.24 23.68 175.12 23.28L175.12 23.28L175.12 23.28Q180.16 20.96 182.32 12.28L182.32 12.28L182.32 12.28Q184.48 3.60 184.48-14.08L184.48-14.08L184.32-25.28L184.08-30.72L184.08-30.72Q184.08-31.44 181.84-31.76L181.84-31.76L181.84-31.76Q178.96-31.76 177-29.88L177-29.88L177-29.88Q175.04-28 174.32-24.96L174.32-24.96L174.32-24.96Q173.04-20.08 173.04-16.52L173.04-16.52L173.04-16.52Q173.04-12.96 174.20-10.24L174.20-10.24L174.20-10.24Q175.36-7.52 178.24-7.52L178.24-7.52L178.24-7.52Q179.04-7.52 179.72-7.84L179.72-7.84L179.72-7.84Q180.40-8.16 180.64-8.16L180.64-8.16L180.64-8.16Q181.44-8.16 181.44-6.56L181.44-6.56L181.44-6.56Q181.44-4.96 181.20-3.96L181.20-3.96L181.20-3.96Q180.96-2.96 180.24-1.76L180.24-1.76L180.24-1.76Q178.64 0.88 174 0.88L174 0.88L174 0.88Q169.36 0.88 167.36-2.48L167.36-2.48L167.36-2.48Q165.28-5.92 164.96-8.64L164.96-8.64L164.96-8.64Q164.48-12.72 164.48-14L164.48-14L164.48-14Q164.48-15.28 164.52-16.04L164.52-16.04L164.52-16.04Q164.56-16.80 164.92-19.08L164.92-19.08L164.92-19.08Q165.28-21.36 165.88-23.40L165.88-23.40L165.88-23.40Q166.48-25.44 167.76-27.96L167.76-27.96L167.76-27.96Q169.04-30.48 170.80-32.28" fill="#292664" stroke="none" stroke-width="none" transform="translate(-96.31997680664062,20.877199478149414)" style="fill: rgb(85, 43, 47);"></path></g></g>
</g>
</g>
<style id="breath-a80c5fc6-911e-468b-8d09-518d62f0cea3" data-anikit="">@keyframes breath-a80c5fc6-911e-468b-8d09-518d62f0cea3
{
  0% {
    animation-timing-function: cubic-bezier(0.9647,0.2413,-0.0705,0.7911);
    transform: scale(0.9099999999999999);
  }
  51% {
    animation-timing-function: cubic-bezier(0.9226,0.2631,-0.0308,0.7628);
    transform: scale(1.02994);
  }
  100% {
    transform: scale(0.9099999999999999);
  }
}</style></svg>