<?xml version="1.0" encoding="utf-8"?>
<!-- Generator: Adobe Illustrator 23.0.1, SVG Export Plug-In . SVG Version: 6.00 Build 0)  -->
<svg version="1.1" id="Layer_1" xmlns="http://www.w3.org/2000/svg" xmlns:xlink="http://www.w3.org/1999/xlink" x="0px" y="0px"
	 viewBox="0 0 3443 500" enable-background="new 0 0 3443 500" xml:space="preserve">
<g>
	<path fill="#282828" d="M2523,193.9c-12.8,64.9-22.5,144-27.6,176.7h-3.6c-4.1-33.7-13.8-112.4-27.1-176.2l-32.7-158.8h-99.6v428.5
		h61.8V110.9l6.1,33l62.8,320.2h61.8l61.8-320.2l6.6-33.2V323l0,141.1h61.8V35.6h-100.6L2523,193.9z"/>
	<path fill="#282828" d="M2822.3,399.7c-5.6,11.7-17.9,19.9-30.1,19.9c-14.3,0-19.9-11.2-19.9-38.8V151h-70.5v233.9
		c0,57.7,18.9,84.3,60.8,84.3c28.6,0,51.6-12.8,67.4-43.4h1.5l6.1,38.3h55.2V151h-70.5V399.7z"/>
	<path fill="#282828" d="M3029.1,274.6c-23-16.9-37.3-28.1-37.3-52.6c0-17.4,8.2-27.1,27.6-27.1c19.9,0,26.6,13.8,27.1,60.8
		l59.2-2.6c4.6-76.1-20.4-107.8-85.3-107.8c-60.3,0-89.9,27.1-89.9,82.7c0,50.6,24.5,73.5,64.4,103.7c34.2,26.6,54.1,41.4,54.1,62.8
		c0,16.3-10.2,27.6-28.1,27.6c-20.9,0-33.2-19.9-30.1-54.6l-59.8,1c-9.2,64.9,16.9,102.7,86.3,102.7c60.8,0,92.4-28.1,92.4-84.3
		C3109.8,335.9,3084.3,315.4,3029.1,274.6z"/>
	<rect x="3148.6" y="151" fill="#282828" width="67.4" height="313.1"/>
	<path fill="#282828" d="M3182.8,27.4c-26,0-38.3,9.7-38.3,43.4c0,34.7,12.3,43.4,38.3,43.4c26.6,0,38.3-8.7,38.3-43.4
		C3221.1,38.6,3209.4,27.4,3182.8,27.4z"/>
	<path fill="#282828" d="M3442.8,351.2l-61.8-3.1c0,55.2-6.1,73-27.1,73c-20.9,0-24.5-19.9-24.5-84.8v-60.8c0-62.8,4.1-82.7,25-82.7
		c19.4,0,24.5,18.9,24.5,77.1l61.3-4.1c4.1-48.5-2-81.7-20.9-100.6c-13.8-13.8-34.7-20.4-63.8-20.4c-68.4,0-96.5,36.8-96.5,139.9
		v43.9c0,106.2,24,140.4,94,140.4c29.6,0,50-6.1,63.8-19.4C3436.7,431.4,3444.3,399.7,3442.8,351.2z"/>
</g>
<g>
	<path fill="#282828" d="M1036.8,454.9c-14.1-9.5-24.2-24.3-30.1-44.4c-6-20.1-8.9-46.8-8.9-80.2v-45.5c0-33.7,3.4-60.8,10.2-81.2
		c6.8-20.4,17.4-35.3,31.9-44.7c14.5-9.4,33.5-14,57-14c23.2,0,41.7,4.8,55.7,14.3c14,9.5,24.2,24.4,30.6,44.7
		c6.5,20.3,9.7,47.2,9.7,81v45.5c0,33.4-3.2,60.2-9.5,80.5c-6.3,20.3-16.5,35.1-30.6,44.4c-14.1,9.4-33.3,14-57.5,14
		C1070.4,469.2,1050.9,464.4,1036.8,454.9z M1116,405.9c3.9-10.2,5.9-26.9,5.9-50.1v-97.6c0-22.5-2-38.9-5.9-49.3
		c-3.9-10.4-10.8-15.6-20.7-15.6c-9.5,0-16.3,5.2-20.2,15.6c-3.9,10.4-5.9,26.8-5.9,49.3v97.6c0,23.2,1.9,39.8,5.6,50.1
		c3.7,10.2,10.5,15.3,20.4,15.3C1105.1,421.2,1112,416.1,1116,405.9z"/>
	<path fill="#282828" d="M2121.7,331v15.8c0,20.1,0.6,35.2,1.8,45.2c1.2,10,3.7,17.4,7.4,22c3.7,4.6,9.5,6.9,17.4,6.9
		c10.5,0,17.8-4.1,21.7-12.3c3.9-8.2,6-21.8,6.4-40.9l60.8,3.6c0.3,2.7,0.5,6.5,0.5,11.2c0,28.9-7.9,50.6-23.8,64.9
		c-15.8,14.3-38.2,21.5-67.2,21.5c-34.7,0-59.1-10.9-73-32.7c-14-21.8-20.9-55.5-20.9-101.1v-54.7c0-47,7.2-81.3,21.7-102.9
		c14.5-21.6,39.2-32.4,74.3-32.4c24.2,0,42.7,4.4,55.7,13.3c12.9,8.9,22,22.6,27.3,41.4c5.3,18.7,7.9,44.6,7.9,77.6V331H2121.7z
		 M2130.6,199.2c-3.6,4.4-6,11.7-7.1,21.7c-1.2,10-1.8,25.3-1.8,45.7v22.5h51.6v-22.5c0-20.1-0.7-35.3-2-45.7
		c-1.4-10.4-3.8-17.7-7.4-22c-3.6-4.3-9.1-6.4-16.6-6.4C2139.7,192.6,2134.2,194.8,2130.6,199.2z"/>
	<path fill="#282828" d="M865.1,325.1L784.9,35.5h70L883,166.8c7.2,32.4,12.4,59.9,15.8,82.7h2c2.4-16.3,7.7-43.8,15.8-82.2
		l29.1-131.8h70l-81.2,289.6v138.9h-69.5V325.1z"/>
	<path fill="#282828" d="M1420.4,151v313.1h-55.2l-6.1-38.3h-1.5c-15,28.9-37.5,43.4-67.4,43.4c-20.8,0-36.1-6.8-46-20.4
		c-9.9-13.6-14.8-34.9-14.8-63.9V151h70.5v229.9c0,14,1.5,23.9,4.6,29.9c3.1,6,8.2,8.9,15.3,8.9c6.1,0,12-1.9,17.6-5.6
		c5.6-3.7,9.8-8.5,12.5-14.3V151H1420.4z"/>
	<path fill="#282828" d="M1782,151v313.1h-55.2l-6.1-38.3h-1.5c-15,28.9-37.5,43.4-67.4,43.4c-20.8,0-36.1-6.8-46-20.4
		c-9.9-13.6-14.8-34.9-14.8-63.9V151h70.5v229.9c0,14,1.5,23.9,4.6,29.9c3.1,6,8.2,8.9,15.3,8.9c6.1,0,12-1.9,17.6-5.6
		c5.6-3.7,9.8-8.5,12.5-14.3V151H1782z"/>
	<path fill="#282828" d="M1612,92.2h-70v371.9h-69V92.2h-70V35.5H1612V92.2z"/>
	<path fill="#282828" d="M2015.3,201c-4.3-19.7-11.2-34-20.7-42.9c-9.5-8.9-22.7-13.3-39.3-13.3c-12.9,0-25,3.7-36.3,11
		c-11.2,7.3-19.9,16.9-26.1,28.9h-0.5l0-165h-67.9v444.4h58.2l7.2-29.6h1.5c5.4,10.6,13.6,18.9,24.5,25c10.9,6.1,23,9.2,36.3,9.2
		c23.8,0,41.4-11,52.6-32.9c11.2-22,16.9-56.3,16.9-102.9v-49.5C2021.7,248.2,2019.6,220.8,2015.3,201z M1950.7,328.7
		c0,22.8-0.9,40.7-2.8,53.6c-1.9,12.9-5,22.1-9.5,27.6c-4.4,5.5-10.4,8.2-17.9,8.2c-5.8,0-11.2-1.4-16.1-4.1
		c-4.9-2.7-8.9-6.8-12-12.3V224c2.4-8.5,6.5-15.5,12.3-20.9c5.8-5.4,12.1-8.2,18.9-8.2c7.2,0,12.7,2.8,16.6,8.4
		c3.9,5.6,6.6,15.1,8.2,28.4c1.5,13.3,2.3,32.2,2.3,56.7V328.7z"/>
</g>
<g>
	<path fill="#FF0000" d="M699.4,78.1c-8.2-30.7-32.4-54.9-63.2-63.2C580.5,0,357.1,0,357.1,0S133.8,0,78.1,14.9
		c-30.7,8.2-54.9,32.4-63.2,63.2C0,133.8,0,250,0,250s0,116.2,14.9,171.9c8.2,30.7,32.4,54.9,63.2,63.2
		C133.8,500,357.1,500,357.1,500s223.4,0,279.1-14.9c30.7-8.2,54.9-32.4,63.2-63.2c14.9-55.7,14.9-171.9,14.9-171.9
		S714.3,133.8,699.4,78.1z"/>
	<polygon fill="#FFFFFF" points="285.7,357.1 285.7,142.9 471.3,250 	"/>
</g>
</svg>
