<?xml version="1.0" encoding="utf-8"?>
<!-- Generator: Adobe Illustrator 19.0.0, SVG Export Plug-In . SVG Version: 6.00 Build 0)  -->
<svg version="1.1" id="圖層_1" xmlns="http://www.w3.org/2000/svg" xmlns:xlink="http://www.w3.org/1999/xlink" x="0px" y="0px"
	 viewBox="0 0 11.2743044 3.0353897" style="enable-background:new 0 0 11.2743044 3.0353897;" xml:space="preserve">
<style type="text/css">
	.st0{fill:#00ADD8;}
</style>
<g>
	<path class="st0" d="M7.9949594,0.8345664c-0.5763121,0-1.0434113,0.4671458-1.0434113,1.0436059
		c0,0.5762342,0.4670992,1.0435671,1.0434113,1.0435671c0.5764604,0,1.043715-0.4673328,1.043715-1.0435671
		C9.0386744,1.3017122,8.5714197,0.8345664,7.9949594,0.8345664z M7.9949594,2.3773718
		c-0.2756104,0-0.4991994-0.2235191-0.4991994-0.4991995s0.2235889-0.4993864,0.4991994-0.4993864
		c0.2757583,0,0.4993482,0.223706,0.4993482,0.4993864S8.2707176,2.3773718,7.9949594,2.3773718z"/>
	<path id="XMLID_4_" class="st0" d="M2.1794121,0.8598526c-0.1197107,0-0.2450362,0-0.3778223,0
		c-0.1618332,0-0.2384946,0.040916-0.3318132,0.1149135L0.7175665,1.7097969V0.905371
		c0-0.0253642-0.0208396-0.0462037-0.0462427-0.0462037H0.1915232c-0.0254031,0-0.0462427,0.0208396-0.0462427,0.0462037v1.9762156
		c0,0.0254731,0.0208396,0.0461569,0.0462427,0.0461569h0.4798006c0.0254031,0,0.0462427-0.0206838,0.0462427-0.0461569V2.0612271
		l0.7752537,0.7672014c0.0790205,0.0625107,0.1732503,0.0945256,0.2980462,0.0945256c0.0441089,0,0.317889,0,0.3683136,0
		c0.1195478,0,0.0753684-0.0688267,0.0753684-0.0688267L1.2731869,1.8925871l0.9647021-0.9650448
		C2.2378891,0.9275423,2.2989593,0.8598526,2.1794121,0.8598526z"/>
	<path id="XMLID_3_" class="st0" d="M4.406014,0.8598526c-0.1197028,0-0.2451839,0-0.3778148,0
		c-0.1619892,0-0.2385724,0.040916-0.3318832,0.1149135l-0.7373903,0.720507V0.905371
		c0-0.0253642-0.0208397-0.0462037-0.0462351-0.0462037H2.4328823c-0.0254731,0-0.0463128,0.0208396-0.0463128,0.0462037v1.9762156
		c0,0.0254731,0.0208397,0.0461569,0.0463128,0.0461569h0.4798083c0.0253954,0,0.0462351-0.0206838,0.0462351-0.0461569V2.0759768
		l0.7603559,0.7524517c0.0790906,0.0625107,0.1732426,0.0945256,0.2981162,0.0945256c0.0441089,0,0.3178892,0,0.3683138,0
		c0.1194768,0,0.0754461-0.0688267,0.0754461-0.0688267L3.4996486,1.8925871l0.9647722-0.9650448
		C4.4644208,0.9275423,4.525569,0.8598526,4.406014,0.8598526z"/>
	<path id="XMLID_2_" class="st0" d="M11.1399584,2.8478196l-0.7620306-0.9596092l0.7399759-0.9606681
		c0,0,0.0611401-0.0676897-0.0584068-0.0676897h-0.3098364c-0.1510324,0-0.2406206,0.0143759-0.3148441,0.1054828
		l-0.3711252,0.5255527l-0.400032-0.5317828C9.5892878,0.8678816,9.5031958,0.8598526,9.3503332,0.8598526H9.0433931
		c-0.1195545,0-0.0612955,0.0676897-0.0612955,0.0676897l0.7609634,0.9606681l-0.7515326,0.965917
		c0,0-0.0441093,0.0688267,0.0755939,0.0688267h0.2786474c0.0942993,0,0.2407761,0.0067675,0.3303642-0.082969
		c0.0013704-0.0014484,0.2010756-0.2947755,0.387557-0.5372183c0.1882963,0.2387984,0.3901348,0.526269,0.3918085,0.527632
		c0.0895891,0.0898218,0.247014,0.0925553,0.3414698,0.0925553h0.258112
		C11.1746368,2.9229541,11.1399584,2.8478196,11.1399584,2.8478196z"/>
	<path id="XMLID_1_" class="st0" d="M5.7050757,0.8612621C5.5133924,0.8764713,5.3478284,0.9671265,5.2110162,1.0971324V0.1600762
		c0-0.0242194-0.018558-0.0371156-0.0412979-0.0286349L4.6801839,0.3147219
		C4.657444,0.3231637,4.638886,0.3500542,4.638886,0.3744215v2.5005455c0,0.0243361,0.0197725,0.0442646,0.0441866,0.0442646
		h0.4838352c0.0218983,0,0.0393109-0.0164318,0.0426598-0.0372636V2.0478404V1.9977272H5.210175
		C5.2100272,1.9930079,5.2095675,2.0527074,5.2095675,2.0478404c0-0.2826815,0.1815362-0.5845203,0.5111766-0.6815614
		c0.2812333-0.0830157,0.5212464,0.1213772,0.5212464,0.4040898c0,0.2824945-0.2400131,0.5851743-0.5212464,0.6195488
		C5.6116872,2.4031487,5.520308,2.3951664,5.4461622,2.3690779v0.5467272h0.2651515c0.0004516,0,0.0006075,0,0.0010667,0
		c0.6223912,0,1.0534496-0.4504492,1.0669842-1.0315897C6.7939668,1.2535694,6.3481584,0.8100822,5.7050757,0.8612621z"/>
</g>
</svg>
