<?xml version="1.0" standalone="no"?>
<!DOCTYPE svg PUBLIC "-//W3C//DTD SVG 20010904//EN"
 "http://www.w3.org/TR/2001/REC-SVG-20010904/DTD/svg10.dtd">
<svg version="1.0" xmlns="http://www.w3.org/2000/svg"
 width="939.000000pt" height="1280.000000pt" viewBox="0 0 939.000000 1280.000000"
 preserveAspectRatio="xMidYMid meet">
<metadata>
Created by potrace 1.15, written by Peter Selinger 2001-2017
</metadata>
<g transform="translate(0.000000,1280.000000) scale(0.100000,-0.100000)"
fill="#000000" stroke="none">
<path d="M7600 12779 c-45 -13 -79 -17 -112 -13 -44 6 -53 3 -125 -42 -126
-78 -191 -139 -208 -196 -8 -30 -46 -93 -97 -162 l-83 -114 -150 -46 c-226
-68 -270 -78 -390 -85 l-110 -7 -120 -66 c-66 -37 -181 -89 -255 -117 -74 -27
-161 -61 -194 -74 l-59 -24 -89 -159 c-49 -88 -158 -263 -244 -389 l-155 -231
-8 -128 c-8 -123 -10 -129 -38 -157 -16 -16 -56 -41 -88 -54 -36 -15 -59 -30
-57 -37 12 -45 13 -82 2 -108 -20 -47 -61 -63 -170 -66 -109 -4 -120 -11 -142
-99 -16 -66 -40 -92 -106 -112 -71 -23 -101 -62 -171 -231 -29 -70 -85 -186
-124 -259 -61 -114 -87 -150 -195 -270 -113 -126 -129 -148 -179 -253 -35 -75
-69 -131 -97 -160 -40 -41 -44 -50 -50 -111 -10 -110 -30 -158 -93 -231 -32
-36 -69 -82 -83 -102 -14 -19 -36 -41 -50 -48 -32 -16 -40 -28 -40 -55 -1
-110 -153 -326 -326 -464 -36 -29 -64 -59 -64 -69 0 -36 -58 -247 -80 -291
-14 -27 -91 -112 -205 -224 -178 -176 -183 -183 -262 -320 -120 -208 -119
-206 -126 -323 -5 -79 -13 -123 -37 -190 -62 -173 -64 -182 -50 -232 18 -63
15 -81 -25 -147 -19 -32 -35 -67 -35 -78 0 -11 16 -33 36 -50 32 -27 36 -37
45 -105 19 -143 -2 -303 -71 -550 -65 -234 -95 -322 -124 -369 -29 -45 -62
-140 -72 -207 l-7 -46 31 7 c18 3 36 4 42 0 17 -11 -16 -60 -69 -100 -27 -21
-52 -47 -55 -59 -3 -12 -6 -58 -6 -104 0 -75 2 -85 25 -107 14 -15 36 -25 52
-25 48 -1 110 -36 233 -135 66 -53 122 -100 125 -105 3 -5 7 -58 9 -117 4
-123 22 -182 81 -258 34 -45 35 -48 29 -113 -8 -89 5 -133 70 -231 55 -82 105
-190 128 -274 10 -38 10 -55 -1 -89 -19 -62 -17 -79 20 -172 42 -108 90 -179
159 -235 47 -38 55 -49 53 -75 -2 -28 -1 -28 5 -7 7 24 9 24 47 -24 138 -169
137 -168 251 -229 60 -32 168 -97 239 -145 72 -47 151 -93 176 -102 26 -9 80
-34 120 -54 194 -97 300 -222 349 -412 18 -69 27 -87 69 -130 53 -55 69 -90
127 -282 47 -153 84 -316 84 -370 0 -40 -4 -47 -55 -94 -71 -65 -72 -84 -4
-157 28 -30 54 -64 59 -76 4 -11 4 -54 -1 -95 -13 -115 -14 -109 31 -109 35 0
40 3 40 24 0 35 41 88 75 98 45 12 81 1 175 -52 86 -49 165 -79 176 -67 4 4
-1 33 -10 65 -30 108 -19 146 71 237 61 63 105 132 124 195 9 30 8 47 -5 86
-34 103 -46 197 -36 286 5 45 14 156 19 244 9 156 9 163 -12 205 -17 35 -22
61 -22 124 1 79 2 83 87 270 47 105 129 293 182 418 114 272 115 274 156 312
18 17 41 42 51 57 18 25 19 29 4 57 -18 36 -20 91 -2 113 6 9 91 62 187 119
320 187 373 228 413 319 11 25 31 59 43 76 30 38 30 49 -1 99 -14 22 -25 47
-25 56 0 23 47 62 111 92 82 39 142 109 199 231 27 56 88 163 135 237 95 147
153 255 179 337 18 53 56 88 126 119 l25 10 -6 109 c-10 152 2 245 35 289 15
19 31 35 37 35 5 0 9 5 9 10 0 18 97 206 140 272 24 38 56 112 84 197 72 216
86 284 96 436 8 145 18 187 72 305 26 59 29 71 23 132 -6 62 -5 71 33 155 30
68 40 105 45 163 3 49 20 121 46 200 84 260 148 507 181 695 19 109 26 133 45
148 55 42 52 138 -6 205 -33 37 -34 43 -16 128 17 79 35 105 105 152 l57 38
-3 111 c-3 87 0 117 12 142 9 17 58 64 110 105 181 145 286 296 286 415 0 90
17 168 43 203 14 18 27 53 30 77 3 27 17 57 36 81 17 22 31 48 31 60 0 11 17
39 39 63 52 57 61 77 61 134 0 66 29 113 70 113 42 0 54 28 46 107 -10 98 -42
242 -66 298 -35 81 -70 214 -70 264 0 32 -10 67 -31 111 -30 60 -31 68 -26
147 16 219 91 375 271 557 50 51 118 110 150 132 50 33 67 39 113 39 63 0 67
7 61 100 -1 30 1 55 6 55 5 0 7 3 3 6 -3 3 -12 2 -19 -2 -7 -5 -24 -8 -38 -7
l-25 2 25 -7 c18 -6 21 -10 12 -16 -13 -8 -41 10 -69 44 -7 8 -31 49 -53 92
l-40 76 0 132 0 132 -27 -7 c-159 -40 -361 -46 -490 -15 -126 30 -195 70 -301
174 -52 50 -125 121 -163 158 -59 58 -70 74 -75 111 l-6 44 -104 51 c-57 29
-108 52 -112 51 -4 0 -36 -9 -72 -20z"/>
<path d="M9090 11186 c0 -8 -9 -18 -21 -21 -32 -11 -8 -27 51 -35 51 -7 51 -7
45 19 -4 14 -11 32 -17 38 -14 18 -58 17 -58 -1z"/>
<path d="M9055 11038 l-80 -83 83 80 c76 74 87 85 79 85 -1 0 -38 -37 -82 -82z"/>
<path d="M8949 10923 c-13 -16 -12 -17 4 -4 16 13 21 21 13 21 -2 0 -10 -8
-17 -17z"/>
<path d="M8919 10883 c-13 -16 -12 -17 4 -4 9 7 17 15 17 17 0 8 -8 3 -21 -13z"/>
<path d="M8801 10634 c0 -11 3 -14 6 -6 3 7 2 16 -1 19 -3 4 -6 -2 -5 -13z"/>
<path d="M511 6976 c-34 -36 -22 -71 44 -129 41 -36 60 -47 75 -42 17 5 20 15
20 69 0 57 -3 65 -33 94 -40 39 -75 41 -106 8z"/>
<path d="M331 6866 c-11 -12 -21 -30 -21 -39 0 -10 -4 -25 -10 -35 -5 -9 -12
-43 -15 -74 -5 -49 -11 -62 -40 -87 -19 -17 -51 -33 -70 -37 -26 -5 -35 -11
-33 -23 2 -12 17 -17 60 -19 55 -3 58 -2 98 38 26 26 39 47 36 57 -3 8 3 27
15 41 16 20 20 38 18 80 -2 47 0 56 19 66 l22 12 -29 21 -29 22 -21 -23z"/>
<path d="M644 6728 c-16 -12 -50 -40 -75 -62 -25 -23 -60 -49 -77 -58 -30 -16
-32 -20 -32 -74 0 -38 -5 -63 -15 -74 -14 -16 -13 -19 9 -33 21 -14 26 -14 36
-2 7 8 23 15 37 15 21 0 24 -4 21 -27 -3 -27 -1 -28 49 -31 l52 -3 39 68 c29
50 50 73 76 86 50 24 102 22 118 -3 17 -26 22 -25 43 6 l17 26 -58 59 c-45 46
-67 60 -106 70 -27 6 -62 22 -77 35 l-29 24 -28 -22z"/>
<path d="M2121 6409 l-64 -92 12 -86 c10 -68 17 -91 37 -111 l24 -25 0 118 0
118 44 66 c38 55 43 69 33 84 -7 11 -14 19 -17 19 -3 0 -34 -41 -69 -91z"/>
<path d="M297 6405 c-17 -23 -17 -26 0 -51 l17 -26 23 27 c21 24 22 30 10 48
-19 29 -29 30 -50 2z"/>
<path d="M264 5859 c-28 -39 -22 -68 12 -61 14 2 31 13 39 25 12 17 12 23 -2
43 -20 31 -24 30 -49 -7z"/>
<path d="M47 5285 c-10 -14 -24 -25 -32 -25 -18 0 -20 -41 -3 -58 7 -7 26 -12
44 -12 26 0 34 6 48 34 21 44 20 52 -6 70 -29 20 -30 20 -51 -9z"/>
<path d="M2326 4351 c-10 -11 -16 -28 -13 -38 4 -17 5 -17 6 1 0 11 8 28 18
38 9 10 14 18 11 18 -3 0 -13 -9 -22 -19z"/>
<path d="M2303 4220 c0 -30 2 -43 4 -27 2 15 2 39 0 55 -2 15 -4 2 -4 -28z"/>
<path d="M2378 4103 c7 -3 16 -2 19 1 4 3 -2 6 -13 5 -11 0 -14 -3 -6 -6z"/>
<path d="M7035 3351 c-39 -77 -7 -140 73 -141 l42 0 0 63 c0 74 -11 92 -62
101 -34 6 -38 4 -53 -23z"/>
<path d="M3140 2466 c0 -2 8 -10 18 -17 15 -13 16 -12 3 4 -13 16 -21 21 -21
13z"/>
<path d="M3190 2405 c13 -14 26 -25 28 -25 3 0 -5 11 -18 25 -13 14 -26 25
-28 25 -3 0 5 -11 18 -25z"/>
<path d="M3230 2376 c0 -2 8 -10 18 -17 15 -13 16 -12 3 4 -13 16 -21 21 -21
13z"/>
<path d="M3300 2315 c19 -19 36 -35 39 -35 3 0 -10 16 -29 35 -19 19 -36 35
-39 35 -3 0 10 -16 29 -35z"/>
<path d="M3350 2256 c0 -2 8 -10 18 -17 15 -13 16 -12 3 4 -13 16 -21 21 -21
13z"/>
<path d="M3380 2216 c0 -2 8 -10 18 -17 15 -13 16 -12 3 4 -13 16 -21 21 -21
13z"/>
<path d="M3460 2128 c41 -45 50 -53 50 -45 0 2 -21 23 -47 47 l-48 45 45 -47z"/>
<path d="M3242 1962 c-13 -10 -21 -24 -17 -33 3 -9 -6 -21 -27 -34 l-33 -19
38 -9 c31 -7 42 -6 57 8 10 9 34 24 52 33 41 21 50 57 16 66 -38 10 -62 7 -86
-12z"/>
<path d="M7226 1130 c-62 -24 -64 -27 -38 -46 17 -12 22 -25 22 -60 0 -42 2
-46 48 -75 75 -47 143 -77 195 -83 46 -5 47 -5 47 21 0 20 -17 44 -62 90 l-61
62 26 12 c34 15 34 25 2 33 -16 4 -25 13 -25 26 0 24 -4 26 -60 33 -32 5 -59
1 -94 -13z"/>
</g>
</svg>
