<?xml version="1.0" encoding="iso-8859-1"?>
<!-- Generator: Adobe Illustrator 19.0.0, SVG Export Plug-In . SVG Version: 6.00 Build 0)  -->
<svg version="1.1" id="Layer_1" xmlns="http://www.w3.org/2000/svg" xmlns:xlink="http://www.w3.org/1999/xlink" x="0px" y="0px"
	 viewBox="0 0 512 512" style="enable-background:new 0 0 512 512;" xml:space="preserve">
<path style="fill:#20A83E;" d="M436.584,64.559C388.293,22.928,324.16,0,256,0S123.707,22.928,75.416,64.559
	C26.783,106.483,0,162.324,0,221.795c0,58.023,25.672,112.885,72.285,154.48c43.692,38.989,101.431,62.436,163.56,66.621
	c-6.125,18.436-12.486,35.594-21.492,58.109c-2.073,5.182,1.873,10.995,7.443,10.995c27.438,0,58.631-6.277,90.204-18.15
	c33.918-12.755,66.573-31.497,94.435-54.198c31.889-25.985,57.121-56.495,74.992-90.685C501.713,310.156,512,267.37,512,221.795
	C512,162.324,485.217,106.483,436.584,64.559z"/>
<path style="fill:#189433;" d="M235.845,442.897C204.693,439.122,33.67,390.681,33.67,221.795
	c0-59.471,26.783-115.312,75.416-157.236C153.38,26.375,211.004,3.94,272.835,0.484C267.254,0.172,261.643,0,256,0
	C187.84,0,123.707,22.928,75.416,64.559C26.783,106.483,0,162.324,0,221.795c0,58.023,25.672,112.885,72.285,154.48
	C115.977,415.264,173.716,438.712,235.845,442.897"/>
<g>
	<path style="fill:#FFFFFF;" d="M140.56,277.378H93.528V170.489c0-7.084-5.743-12.827-12.827-12.827s-12.827,5.743-12.827,12.827
		v119.716c0,7.084,5.743,12.827,12.827,12.827h59.858c7.084,0,12.827-5.743,12.827-12.827
		C153.386,283.121,147.643,277.378,140.56,277.378z"/>
	<path style="fill:#FFFFFF;" d="M431.299,277.378h-47.031v-34.205h29.929c7.084,0,12.827-5.743,12.827-12.827
		s-5.743-12.827-12.827-12.827h-29.929v-34.205h47.031c7.084,0,12.827-5.743,12.827-12.827s-5.743-12.827-12.827-12.827h-59.858
		c-7.084,0-12.827,5.743-12.827,12.827v119.716c0,7.084,5.743,12.827,12.827,12.827h59.858c7.084,0,12.827-5.743,12.827-12.827
		C444.125,283.121,438.382,277.378,431.299,277.378z"/>
	<path style="fill:#FFFFFF;" d="M191.866,157.662c-7.084,0-12.827,5.743-12.827,12.827v119.716c0,7.084,5.743,12.827,12.827,12.827
		s12.827-5.743,12.827-12.827V170.489C204.693,163.405,198.95,157.662,191.866,157.662z"/>
	<path style="fill:#FFFFFF;" d="M315.858,157.662c-7.084,0-12.827,5.743-12.827,12.827v71.416l-44.446-77.781
		c-2.885-5.049-8.806-7.527-14.429-6.033c-5.621,1.492-9.535,6.58-9.535,12.397v119.716c0,7.084,5.743,12.827,12.827,12.827
		s12.827-5.743,12.827-12.827v-71.416l44.446,77.781c2.324,4.066,6.616,6.464,11.136,6.464c1.092,0,2.199-0.14,3.293-0.431
		c5.621-1.492,9.535-6.58,9.535-12.397V170.489C328.685,163.405,322.942,157.662,315.858,157.662z"/>
</g>
<g>
</g>
<g>
</g>
<g>
</g>
<g>
</g>
<g>
</g>
<g>
</g>
<g>
</g>
<g>
</g>
<g>
</g>
<g>
</g>
<g>
</g>
<g>
</g>
<g>
</g>
<g>
</g>
<g>
</g>
</svg>
