<?xml version="1.0" standalone="no"?><!DOCTYPE svg PUBLIC "-//W3C//DTD SVG 1.1//EN" "http://www.w3.org/Graphics/SVG/1.1/DTD/svg11.dtd" ><svg xmlns="http://www.w3.org/2000/svg"><metadata></metadata><defs><font id="OPPOSans-M Regular v1.00" horiz-adv-x="1086"><font-face font-family="OPPOSans M" font-weight="400" font-stretch="normal" units-per-em="1000" panose-1="0 2 6 0 4 1 1 1 1 1" ascent="1000" descent="-319" x-height="1" bbox="-59 -293 1033 830" underline-thickness="50" underline-position="-75" unicode-range="U+0022-ff1f" /><missing-glyph horiz-adv-x="965" d="M865 741 l0 -824 l-760 0 l0 824 l760 0 ZM800 681 l-632 0 l0 -705 l632 0 l0 705 ZM236 31 l211 302 l-205 294 l81 0 l162 -248 l165 248 l76 0 l-207 -295 l214 -301 l-82 0 l-168 257 l-171 -257 l-76 0 Z" /><glyph glyph-name="A" unicode="a" d="M516 171 l-314 0 l-77 -234 l-104 0 l282 801 l119 0 l282 -801 l-111 0 l-77 234 ZM487 260 l-127 387 l-128 -387 l255 0 Z" /><glyph glyph-name="B" unicode="b" d="M628 161 q0 -67 -28.5 -117.5 q-28.5 -50.5 -80.5 -78.5 q-52 -28 -119 -28 l-322 0 l0 801 l308 0 q61 0 108.5 -25.5 q47.5 -25.5 74 -72 q26.5 -46.5 26.5 -107.5 q0 -65 -33 -109.5 q-33 -44.5 -91 -63.5 q72 -19 114.5 -70.5 q42.5 -51.5 42.5 -128.5 ZM181 654 l0 -256 l180 0 q61 0 95.5 34 q34.5 34 34.5 93 q0 61 -35.5 95 q-35.5 34 -94.5 34 l-180 0 ZM525 167 q0 69 -40 107.5 q-40 38.5 -110 38.5 l-194 0 l0 -292 l194 0 q70 0 110 39 q40 39 40 107 Z" /><glyph glyph-name="C" unicode="c" d="M398 12 q149 0 188 135 l85 -40 q-23 -83 -94.5 -132.5 q-71.5 -49.5 -176.5 -49.5 q-101 0 -179.5 51.5 q-78.5 51.5 -122 145 q-43.5 93.5 -43.5 215.5 q0 122 43.5 215.5 q43.5 93.5 122 145.5 q78.5 52 179.5 52 q106 0 177 -49.5 q71 -49.5 94 -132.5 l-85 -40 q-39 135 -188 135 q-71 0 -125.5 -40.5 q-54.5 -40.5 -84.5 -114.5 q-30 -74 -30 -171 q0 -96 30 -170 q30 -74 84.5 -114.5 q54.5 -40.5 125.5 -40.5 Z" /><glyph glyph-name="D" unicode="d" d="M704 337 q0 -120 -42.5 -210.5 q-42.5 -90.5 -122.5 -140 q-80 -49.5 -189 -49.5 l-272 0 l0 801 l272 0 q109 0 189 -49.5 q80 -49.5 122.5 -140 q42.5 -90.5 42.5 -211.5 ZM601 337 q0 143 -70 227.5 q-70 84.5 -197 84.5 l-153 0 l0 -623 l153 0 q127 0 197 84 q70 84 70 227 Z" /><glyph glyph-name="F" unicode="f" d="M181 649 l0 -258 l326 0 l0 -89 l-326 0 l0 -365 l-103 0 l0 801 l452 0 l0 -89 l-349 0 Z" /><glyph glyph-name="H" unicode="h" d="M688 738 l0 -801 l-103 0 l0 376 l-404 0 l0 -376 l-103 0 l0 801 l103 0 l0 -337 l404 0 l0 337 l103 0 Z" /><glyph glyph-name="I" unicode="i" d="M189 738 l0 -801 l-103 0 l0 801 l103 0 Z" /><glyph glyph-name="L" unicode="l" d="M529 26 l0 -89 l-451 0 l0 801 l103 0 l0 -712 l348 0 Z" /><glyph glyph-name="M" unicode="m" d="M865 -63 l-102 0 l0 653 l-244 -653 l-105 0 l-242 650 l0 -650 l-94 0 l0 801 l138 0 l254 -686 l254 686 l141 0 l0 -801 Z" /><glyph glyph-name="N" unicode="n" d="M687 738 l0 -801 l-86 0 l-429 640 l0 -640 l-94 0 l0 801 l111 0 l405 -607 l0 607 l93 0 Z" /><glyph glyph-name="S" unicode="s" d="M70 532 q0 65 31 114.5 q31 49.5 88.5 76.5 q57.5 27 136.5 27 q96 0 161.5 -40.5 q65.5 -40.5 89.5 -115.5 l-84 -39 q-37 106 -165 106 q-76 0 -115 -32 q-39 -32 -39 -93 q0 -38 16 -62.5 q16 -24.5 52.5 -42 q36.5 -17.5 101.5 -31.5 q133 -28 191 -84.5 q58 -56.5 58 -156.5 q0 -68 -34.5 -121.5 q-34.5 -53.5 -96.5 -83 q-62 -29.5 -142 -29.5 q-106 0 -178.5 46 q-72.5 46 -99.5 130 l84 40 q21 -62 70.5 -94.5 q49.5 -32.5 123.5 -32.5 q80 0 125 38 q45 38 45 105 q0 42 -17.5 70 q-17.5 28 -58 48 q-40.5 20 -110.5 35 q-122 26 -178 79.5 q-56 53.5 -56 142.5 Z" /><glyph glyph-name="T" unicode="t" d="M573 649 l-214 0 l0 -712 l-103 0 l0 712 l-216 0 l0 89 l533 0 l0 -89 Z" /><glyph glyph-name="U" unicode="u" d="M382 -74 q-93 0 -162.5 36.5 q-69.5 36.5 -107 104 q-37.5 67.5 -37.5 158.5 l0 513 l96 0 l0 -508 q0 -103 55.5 -160.5 q55.5 -57.5 152.5 -57.5 q98 0 153 57.5 q55 57.5 55 162.5 l0 506 l102 0 l0 -513 q0 -91 -37.5 -158.5 q-37.5 -67.5 -107 -104 q-69.5 -36.5 -162.5 -36.5 Z" /><glyph glyph-name="X" unicode="x" d="M552 -63 l-202 338 l-205 -338 l-113 0 l259 407 l-252 394 l122 0 l194 -331 l195 331 l115 0 l-251 -396 l257 -405 l-119 0 Z" /><glyph glyph-name="Y" unicode="y" d="M393 268 l0 -331 l-103 0 l0 329 l-276 472 l118 0 l212 -388 l212 388 l112 0 l-275 -470 Z" /><glyph glyph-name="a" unicode="a" d="M578 75 q0 -98 3 -138 l-85 0 q-3 18 -6 108 q-30 -57 -80 -88.5 q-50 -31.5 -117 -31.5 q-69 0 -124.5 38.5 q-55.5 38.5 -87 108 q-31.5 69.5 -31.5 158.5 q0 90 31.5 160 q31.5 70 87 108.5 q55.5 38.5 124.5 38.5 q67 0 117 -31.5 q50 -31.5 80 -89.5 q4 92 6 109 l85 0 q-3 -42 -3 -138 l0 -312 ZM482 230 q0 68 -21 120 q-21 52 -59 80 q-38 28 -88 28 q-49 0 -87 -28.5 q-38 -28.5 -59 -80 q-21 -51.5 -21 -119.5 q0 -67 21.5 -118.5 q21.5 -51.5 59 -80 q37.5 -28.5 86.5 -28.5 q49 0 87.5 28.5 q38.5 28.5 59.5 80 q21 51.5 21 118.5 Z" /><glyph glyph-name="b" unicode="b" d="M601 230 q0 -89 -31.5 -158.5 q-31.5 -69.5 -86.5 -108 q-55 -38.5 -125 -38.5 q-66 0 -116.5 31 q-50.5 31 -80.5 87 q-2 -77 -6 -106 l-85 0 q4 54 4 138 l0 697 l96 0 l0 -338 q31 50 79 76.5 q48 26.5 109 26.5 q69 0 124.5 -38.5 q55.5 -38.5 87 -108.5 q31.5 -70 31.5 -160 ZM504 230 q0 68 -21 120 q-21 52 -59 80 q-38 28 -88 28 q-49 0 -86.5 -28.5 q-37.5 -28.5 -58.5 -80 q-21 -51.5 -21 -119.5 q0 -67 21 -118.5 q21 -51.5 58.5 -80 q37.5 -28.5 86.5 -28.5 q49 0 87.5 28.5 q38.5 28.5 59.5 80 q21 51.5 21 118.5 Z" /><glyph glyph-name="c" unicode="c" d="M313 537 q84 0 137 -37 q53 -37 69 -95 l-82 -39 q-10 41 -39.5 64.5 q-29.5 23.5 -82.5 23.5 q-50 0 -88 -27.5 q-38 -27.5 -59 -78 q-21 -50.5 -21 -118.5 q0 -67 21 -117.5 q21 -50.5 59 -78 q38 -27.5 88 -27.5 q102 0 122 87 l82 -37 q-16 -58 -69.5 -95 q-53.5 -37 -136.5 -37 q-77 0 -136.5 38.5 q-59.5 38.5 -93 108 q-33.5 69.5 -33.5 158.5 q0 90 33.5 159.5 q33.5 69.5 93 108.5 q59.5 39 136.5 39 Z" /><glyph glyph-name="d" unicode="d" d="M498 -63 q-4 24 -7 107 q-30 -57 -80 -88 q-50 -31 -116 -31 q-70 0 -125 38.5 q-55 38.5 -86.5 108 q-31.5 69.5 -31.5 158.5 q0 90 31.5 160 q31.5 70 87 108.5 q55.5 38.5 124.5 38.5 q61 0 109.5 -27.5 q48.5 -27.5 78.5 -77.5 l0 340 l96 0 l0 -697 q0 -84 4 -138 l-85 0 ZM483 230 q0 68 -21 120 q-21 52 -58.5 80 q-37.5 28 -87.5 28 q-49 0 -87 -28.5 q-38 -28.5 -59.5 -80 q-21.5 -51.5 -21.5 -119.5 q0 -67 21.5 -118.5 q21.5 -51.5 59.5 -80 q38 -28.5 87 -28.5 q49 0 87 28.5 q38 28.5 59 80 q21 51.5 21 118.5 Z" /><glyph glyph-name="e" unicode="e" d="M559 210 l-412 0 q4 -99 51.5 -153 q47.5 -54 127.5 -54 q56 0 89 24 q33 24 54 75 l79 -38 q-52 -139 -221 -139 q-84 0 -146.5 38 q-62.5 38 -96.5 107 q-34 69 -34 160 q0 90 33.5 160 q33.5 70 92 108.5 q58.5 38.5 132.5 38.5 q78 0 135 -37 q57 -37 87 -105.5 q30 -68.5 30 -160.5 q0 -18 -1 -24 ZM150 283 l313 0 q-7 85 -47 130 q-40 45 -108 45 q-64 0 -106 -46.5 q-42 -46.5 -52 -128.5 Z" /><glyph glyph-name="f" unicode="f" d="M221 605 l0 -80 l140 0 l0 -79 l-140 0 l0 -509 l-96 0 l0 509 l-90 0 l0 79 l90 0 l0 85 q0 84 44.5 129 q44.5 45 126.5 45 q60 0 90 -18 l0 -71 q-30 9 -67 9 q-98 0 -98 -99 Z" /><glyph glyph-name="g" unicode="g" d="M575 525 q-4 -56 -4 -138 l0 -421 q0 -123 -68 -191 q-68 -68 -195 -68 q-103 0 -168 35.5 q-65 35.5 -85 100.5 l78 36 q15 -44 58.5 -68.5 q43.5 -24.5 111.5 -24.5 q84 0 128.5 45 q44.5 45 44.5 132 l0 76 q-31 -50 -78 -77.5 q-47 -27.5 -108 -27.5 q-68 0 -123 37.5 q-55 37.5 -86 106 q-31 68.5 -31 157.5 q0 89 31 157.5 q31 68.5 86 106.5 q55 38 123 38 q65 0 114.5 -31 q49.5 -31 79.5 -88 q1 71 6 107 l85 0 ZM476 235 q0 66 -21 116.5 q-21 50.5 -58.5 78.5 q-37.5 28 -85.5 28 q-48 0 -85.5 -28 q-37.5 -28 -58 -78.5 q-20.5 -50.5 -20.5 -116.5 q0 -66 20.5 -116.5 q20.5 -50.5 58 -78.5 q37.5 -28 85.5 -28 q48 0 85.5 28 q37.5 28 58.5 78.5 q21 50.5 21 116.5 Z" /><glyph glyph-name="h" unicode="h" d="M568 327 l0 -390 l-95 0 l0 375 q0 72 -33.5 107 q-33.5 35 -101.5 35 q-76 0 -122 -52.5 q-46 -52.5 -46 -139.5 l0 -325 l-96 0 l0 835 l96 0 l0 -337 q64 102 200 102 q93 0 145.5 -55.5 q52.5 -55.5 52.5 -154.5 Z" /><glyph glyph-name="i" unicode="i" d="M130 741 q29 0 46 -17.5 q17 -17.5 17 -46.5 q0 -29 -17 -46 q-17 -17 -46 -17 q-29 0 -46.5 17 q-17.5 17 -17.5 46 q0 29 17.5 46.5 q17.5 17.5 46.5 17.5 ZM178 525 l0 -588 l-97 0 l0 588 l97 0 Z" /><glyph glyph-name="j" unicode="j" d="M130 741 q29 0 46 -17.5 q17 -17.5 17 -46.5 q0 -29 -17 -46 q-17 -17 -46 -17 q-29 0 -46.5 17 q-17.5 17 -17.5 46 q0 29 17.5 46.5 q17.5 17.5 46.5 17.5 ZM19 -293 q-44 0 -78 14 l0 76 q30 -8 61 -8 q39 0 59 21 q20 21 20 60 l0 655 l97 0 l0 -656 q0 -76 -42.5 -119 q-42.5 -43 -116.5 -43 Z" /><glyph glyph-name="k" unicode="k" d="M418 -63 l-248 291 l0 -291 l-96 0 l0 835 l96 0 l0 -509 l232 262 l120 0 l-255 -280 l276 -308 l-125 0 Z" /><glyph glyph-name="l" unicode="l" d="M178 772 l0 -835 l-97 0 l0 835 l97 0 Z" /><glyph glyph-name="m" unicode="m" d="M883 347 l0 -410 l-95 0 l0 395 q0 63 -29 93 q-29 30 -87 30 q-65 0 -105 -46.5 q-40 -46.5 -40 -122.5 l0 -349 l-96 0 l0 395 q0 123 -116 123 q-65 0 -105 -46.5 q-40 -46.5 -40 -122.5 l0 -349 l-96 0 l0 450 q0 82 -4 138 l85 0 q5 -34 6 -94 q59 106 186 106 q62 0 105 -28 q43 -28 62 -80 q57 108 189 108 q85 0 132.5 -50.5 q47.5 -50.5 47.5 -139.5 Z" /><glyph glyph-name="n" unicode="n" d="M568 327 l0 -390 l-95 0 l0 375 q0 72 -33.5 107 q-33.5 35 -101.5 35 q-76 0 -122 -52.5 q-46 -52.5 -46 -139.5 l0 -325 l-96 0 l0 450 q0 82 -4 138 l84 0 q5 -32 6 -106 q63 118 210 118 q93 0 145.5 -55.5 q52.5 -55.5 52.5 -154.5 Z" /><glyph glyph-name="o" unicode="o" d="M314 537 q76 0 136 -39 q60 -39 93.5 -108.5 q33.5 -69.5 33.5 -159.5 q0 -89 -33.5 -158.5 q-33.5 -69.5 -93.5 -108 q-60 -38.5 -136 -38.5 q-77 0 -137 38.5 q-60 38.5 -93.5 108 q-33.5 69.5 -33.5 158.5 q0 90 33.5 159.5 q33.5 69.5 93.5 108.5 q60 39 137 39 ZM314 458 q-49 0 -87 -28.5 q-38 -28.5 -59 -80 q-21 -51.5 -21 -119.5 q0 -67 21 -118.5 q21 -51.5 59 -80 q38 -28.5 87 -28.5 q49 0 87 28.5 q38 28.5 59 80 q21 51.5 21 118.5 q0 68 -21 119.5 q-21 51.5 -59 80 q-38 28.5 -87 28.5 Z" /><glyph glyph-name="p" unicode="p" d="M601 230 q0 -89 -31.5 -158.5 q-31.5 -69.5 -86.5 -108 q-55 -38.5 -125 -38.5 q-61 0 -109 26.5 q-48 26.5 -79 76.5 l0 -309 l-96 0 l0 668 q0 82 -4 138 l85 0 q5 -32 6 -106 q30 56 80.5 87 q50.5 31 116.5 31 q69 0 124.5 -38.5 q55.5 -38.5 87 -108.5 q31.5 -70 31.5 -160 ZM504 230 q0 68 -21 120 q-21 52 -59 80 q-38 28 -88 28 q-49 0 -86.5 -28.5 q-37.5 -28.5 -58.5 -80 q-21 -51.5 -21 -119.5 q0 -67 21 -118.5 q21 -51.5 58.5 -80 q37.5 -28.5 86.5 -28.5 q49 0 87.5 28.5 q38.5 28.5 59.5 80 q21 51.5 21 118.5 Z" /><glyph glyph-name="r" unicode="r" d="M361 533 l0 -87 q-20 2 -35 2 q-70 0 -113 -47.5 q-43 -47.5 -43 -130.5 l0 -333 l-96 0 l0 450 q0 82 -4 138 l83 0 q5 -37 6 -101 q25 55 70 84 q45 29 104 29 q16 0 28 -4 Z" /><glyph glyph-name="s" unicode="s" d="M62 372 q0 48 25.5 85.5 q25.5 37.5 71.5 58.5 q46 21 104 21 q81 0 134.5 -33 q53.5 -33 68.5 -90 l-75 -34 q-12 39 -41.5 59.5 q-29.5 20.5 -83.5 20.5 q-51 0 -80 -22 q-29 -22 -29 -63 q0 -38 28.5 -58 q28.5 -20 101.5 -32 q100 -16 147.5 -60.5 q47.5 -44.5 47.5 -121.5 q0 -53 -27.5 -93.5 q-27.5 -40.5 -76 -62.5 q-48.5 -22 -110.5 -22 q-91 0 -150 36.5 q-59 36.5 -79 105.5 l75 34 q16 -50 52.5 -75 q36.5 -25 97.5 -25 q57 0 90 26 q33 26 33 71 q0 48 -30 71.5 q-30 23.5 -108 36.5 q-95 16 -141 57 q-46 41 -46 109 Z" /><glyph glyph-name="t" unicode="t" d="M221 446 l0 -358 q0 -41 21 -61 q21 -20 61 -20 q38 0 60 8 l0 -77 q-32 -13 -77 -13 q-74 0 -117.5 42.5 q-43.5 42.5 -43.5 116.5 l0 362 l-90 0 l0 79 l90 0 l0 146 l96 0 l0 -146 l142 0 l0 -79 l-142 0 Z" /><glyph glyph-name="u" unicode="u" d="M484 -63 q-2 16 -6 107 q-62 -119 -209 -119 q-93 0 -146 55 q-53 55 -53 154 l0 391 l96 0 l0 -375 q0 -73 33 -108 q33 -35 101 -35 q76 0 122.5 53 q46.5 53 46.5 140 l0 325 l95 0 l0 -450 q0 -84 4 -138 l-84 0 Z" /><glyph glyph-name="v" unicode="v" d="M570 525 l-219 -588 l-106 0 l-221 588 l107 0 l169 -500 l169 500 l101 0 Z" /><glyph glyph-name="w" unicode="w" d="M867 525 l-167 -588 l-107 0 l-143 494 l-143 -494 l-107 0 l-166 588 l99 0 l123 -493 l143 493 l109 0 l143 -493 l123 493 l93 0 Z" /><glyph glyph-name="x" unicode="x" d="M443 -63 l-151 242 l-149 -242 l-109 0 l202 298 l-197 290 l116 0 l143 -236 l146 236 l106 0 l-195 -291 l201 -297 l-113 0 Z" /><glyph glyph-name="y" unicode="y" d="M569 525 l-305 -806 l-105 0 l97 212 l-232 594 l108 0 l168 -495 l167 495 l102 0 Z" /><glyph glyph-name="zero" unicode="0" d="M317 -75 q-134 0 -204 106.5 q-70 106.5 -70 305.5 q0 200 70 306.5 q70 106.5 204 106.5 q134 0 204 -106.5 q70 -106.5 70 -306.5 q0 -199 -70 -305.5 q-70 -106.5 -204 -106.5 ZM317 8 q176 0 176 329 q0 166 -43.5 248 q-43.5 82 -132.5 82 q-89 0 -132.5 -82 q-43.5 -82 -43.5 -248 q0 -165 43.5 -247 q43.5 -82 132.5 -82 Z" /><glyph glyph-name="one" unicode="1" d="M316 -63 l-98 0 l0 685 l-166 -96 l0 100 l194 112 l70 0 l0 -801 Z" /><glyph glyph-name="two" unicode="2" d="M573 21 l0 -84 l-509 0 l0 67 l321 330 q44 46 65 87.5 q21 41.5 21 87.5 q0 72 -42 115 q-42 43 -114 43 q-64 0 -107 -31.5 q-43 -31.5 -60 -89.5 l-74 44 q25 77 88.5 118.5 q63.5 41.5 155.5 41.5 q73 0 130 -30.5 q57 -30.5 89 -85.5 q32 -55 32 -124 q0 -64 -30 -118 q-30 -54 -93 -120 l-242 -251 l369 0 Z" /><glyph glyph-name="three" unicode="3" d="M575 177 q0 -73 -33 -130 q-33 -57 -92 -89.5 q-59 -32.5 -134 -32.5 q-88 0 -153 41.5 q-65 41.5 -88 114.5 l74 43 q17 -53 61 -84.5 q44 -31.5 106 -31.5 q73 0 118 47 q45 47 45 122 q0 79 -44.5 123 q-44.5 44 -122.5 44 q-78 0 -114 -47 l-56 60 l271 297 l-304 0 l0 84 l427 0 l0 -67 l-222 -244 q4 1 12 1 q72 0 128.5 -31.5 q56.5 -31.5 88.5 -88.5 q32 -57 32 -131 Z" /><glyph glyph-name="five" unicode="5" d="M577 178 q0 -73 -33.5 -130.5 q-33.5 -57.5 -93.5 -90 q-60 -32.5 -135 -32.5 q-90 0 -155 42 q-65 42 -85 112 l74 43 q17 -53 60 -83.5 q43 -30.5 106 -30.5 q47 0 85 21.5 q38 21.5 60 60 q22 38.5 22 88.5 q0 49 -21.5 87.5 q-21.5 38.5 -59.5 59.5 q-38 21 -85 21 q-47 0 -80.5 -17.5 q-33.5 -17.5 -50.5 -48.5 l-79 21 l46 437 l388 0 l0 -83 l-303 0 l-28 -265 q58 39 120 39 q71 0 127.5 -32.5 q56.5 -32.5 88.5 -90 q32 -57.5 32 -128.5 Z" /><glyph glyph-name="six" unicode="6" d="M572 175 q0 -71 -33 -128.5 q-33 -57.5 -91 -89.5 q-58 -32 -131 -32 q-75 0 -133.5 32.5 q-58.5 32.5 -91 92 q-32.5 59.5 -32.5 137.5 q0 80 30 157.5 q30 77.5 100 179.5 l146 214 l111 0 l-174 -245 q-43 -60 -70 -112 q57 43 128 43 q70 0 125 -31.5 q55 -31.5 85.5 -88 q30.5 -56.5 30.5 -129.5 ZM477 175 q0 76 -43.5 121.5 q-43.5 45.5 -116.5 45.5 q-70 0 -113 -41.5 q-43 -41.5 -48 -111.5 l0 -14 q0 -75 44.5 -121 q44.5 -46 116.5 -46 q71 0 115.5 46 q44.5 46 44.5 121 Z" /><glyph glyph-name="eight" unicode="8" d="M576 167 q0 -70 -32.5 -125 q-32.5 -55 -91.5 -86 q-59 -31 -135 -31 q-76 0 -135.5 31 q-59.5 31 -92.5 86 q-33 55 -33 125 q0 70 36.5 124 q36.5 54 101.5 81 q-48 26 -75 69.5 q-27 43.5 -27 97.5 q0 61 28.5 109 q28.5 48 79.5 75 q51 27 117 27 q65 0 116 -27 q51 -27 79.5 -75.5 q28.5 -48.5 28.5 -108.5 q0 -54 -27 -97.5 q-27 -43.5 -75 -69.5 q64 -27 100.5 -80.5 q36.5 -53.5 36.5 -124.5 ZM183 540 q0 -59 37 -96 q37 -37 97 -37 q59 0 96.5 37 q37.5 37 37.5 96 q0 59 -37 96.5 q-37 37.5 -97 37.5 q-60 0 -97 -37 q-37 -37 -37 -97 ZM484 169 q0 74 -45.5 119 q-45.5 45 -121.5 45 q-76 0 -122 -45 q-46 -45 -46 -119 q0 -74 47 -119 q47 -45 121 -45 q74 0 120.5 45 q46.5 45 46.5 119 Z" /><glyph glyph-name="nine" unicode="9" d="M572 487 q0 -79 -30 -156 q-30 -77 -99 -180 l-145 -214 l-112 0 l175 245 q44 61 69 111 q-55 -43 -128 -43 q-70 0 -125 32 q-55 32 -86 88.5 q-31 56.5 -31 129.5 q0 72 33.5 129 q33.5 57 92 89 q58.5 32 132.5 32 q75 0 132.5 -32.5 q57.5 -32.5 89.5 -92 q32 -59.5 32 -138.5 ZM318 333 q68 0 111 41.5 q43 41.5 48 111.5 l0 14 q0 76 -44 121.5 q-44 45.5 -115 45.5 q-73 0 -117.5 -46 q-44.5 -46 -44.5 -121 q0 -77 44 -122 q44 -45 118 -45 Z" /><glyph glyph-name="period" unicode="." d="M138 58 q29 0 46.5 -17.5 q17.5 -17.5 17.5 -46.5 q0 -29 -17.5 -46.5 q-17.5 -17.5 -46.5 -17.5 q-29 0 -46.5 17.5 q-17.5 17.5 -17.5 46.5 q0 29 17.5 46.5 q17.5 17.5 46.5 17.5 Z" /><glyph glyph-name="comma" unicode="," d="M196 43 q0 -40 -7 -89 q-7 -49 -21 -127 l-12 -67 l-95 0 l11 67 q7 39 12 102.5 q5 63.5 5 113.5 l107 0 Z" /><glyph glyph-name="colon" unicode=":" d="M138 488 q29 0 46.5 -17.5 q17.5 -17.5 17.5 -46.5 q0 -30 -17.5 -47.5 q-17.5 -17.5 -46.5 -17.5 q-29 0 -46.5 17.5 q-17.5 17.5 -17.5 47.5 q0 29 17.5 46.5 q17.5 17.5 46.5 17.5 ZM138 58 q29 0 46.5 -17.5 q17.5 -17.5 17.5 -46.5 q0 -29 -17.5 -46.5 q-17.5 -17.5 -46.5 -17.5 q-29 0 -46.5 17.5 q-17.5 17.5 -17.5 46.5 q0 29 17.5 46.5 q17.5 17.5 46.5 17.5 Z" /><glyph glyph-name="ellipsis" unicode="&#x2026;" d="M166 58 q29 0 47 -17.5 q18 -17.5 18 -46.5 q0 -29 -18 -46.5 q-18 -17.5 -47 -17.5 q-29 0 -46.5 17.5 q-17.5 17.5 -17.5 46.5 q0 29 17.5 46.5 q17.5 17.5 46.5 17.5 ZM500 58 q29 0 46.5 -17.5 q17.5 -17.5 17.5 -46.5 q0 -29 -17.5 -46.5 q-17.5 -17.5 -46.5 -17.5 q-29 0 -46.5 17.5 q-17.5 17.5 -17.5 46.5 q0 29 17.5 46.5 q17.5 17.5 46.5 17.5 ZM834 58 q29 0 46.5 -17.5 q17.5 -17.5 17.5 -46.5 q0 -29 -17.5 -46.5 q-17.5 -17.5 -46.5 -17.5 q-29 0 -47 17.5 q-18 17.5 -18 46.5 q0 29 18 46.5 q18 17.5 47 17.5 Z" /><glyph glyph-name="slash" unicode="/" d="M20 -169 l223 994 l96 0 l-223 -994 l-96 0 Z" /><glyph glyph-name="uniFF1A" unicode="&#xff1a;" d="M248 488 q29 0 46.5 -17.5 q17.5 -17.5 17.5 -46.5 q0 -30 -17.5 -47.5 q-17.5 -17.5 -46.5 -17.5 q-29 0 -46.5 17.5 q-17.5 17.5 -17.5 47.5 q0 29 17.5 46.5 q17.5 17.5 46.5 17.5 ZM248 58 q29 0 46.5 -17.5 q17.5 -17.5 17.5 -46.5 q0 -29 -17.5 -46.5 q-17.5 -17.5 -46.5 -17.5 q-29 0 -46.5 17.5 q-17.5 17.5 -17.5 46.5 q0 29 17.5 46.5 q17.5 17.5 46.5 17.5 Z" /><glyph glyph-name="uniFF0C" unicode="&#xff0c;" d="M306 43 q0 -40 -7 -89 q-7 -49 -21 -127 l-12 -67 l-95 0 l11 67 q7 39 12 102.5 q5 63.5 5 113.5 l107 0 Z" /><glyph glyph-name="uniFF01" unicode="&#xff01;" d="M211 169 l-26 569 l115 0 l-26 -569 l-63 0 ZM243 58 q29 0 46 -17 q17 -17 17 -46 q0 -29 -17 -46.5 q-17 -17.5 -46 -17.5 q-29 0 -46 17.5 q-17 17.5 -17 46.5 q0 29 17 46 q17 17 46 17 Z" /><glyph glyph-name="uniFF1F" unicode="&#xff1f;" d="M313 416 q36 35 53.5 62 q17.5 27 17.5 68 q0 55 -33.5 88.5 q-33.5 33.5 -95.5 33.5 q-110 0 -138 -103 l-80 37 q21 72 78 110 q57 38 145 38 q66 0 116.5 -24.5 q50.5 -24.5 78.5 -69.5 q28 -45 28 -103 q0 -44 -14.5 -78.5 q-14.5 -34.5 -35.5 -59.5 q-21 -25 -57 -60 l-25 -24 q-28 -30 -40 -66.5 q-12 -36.5 -12 -95.5 l-84 0 q0 82 15 130.5 q15 48.5 53 87.5 q15 17 30 29 ZM258 58 q29 0 46.5 -17 q17.5 -17 17.5 -46 q0 -29 -17.5 -46.5 q-17.5 -17.5 -46.5 -17.5 q-29 0 -46 17.5 q-17 17.5 -17 46.5 q0 29 17.5 46 q17.5 17 45.5 17 Z" /><glyph glyph-name="parenleft" unicode="(" d="M343 -166 l-95 0 q-65 80 -114.5 208 q-49.5 128 -49.5 279 q0 136 43.5 264.5 q43.5 128.5 120.5 220.5 l95 0 q-69 -78 -115.5 -211.5 q-46.5 -133.5 -46.5 -273.5 q0 -100 25.5 -195 q25.5 -95 62.5 -169.5 q37 -74.5 74 -122.5 Z" /><glyph glyph-name="parenright" unicode=")" d="M32 806 l97 0 q64 -78 113 -206 q49 -128 49 -279 q0 -137 -43 -265.5 q-43 -128.5 -119 -221.5 l-97 0 q70 78 116.5 212 q46.5 134 46.5 275 q0 99 -25.5 194 q-25.5 95 -63 169.5 q-37.5 74.5 -74.5 121.5 Z" /><glyph glyph-name="uni300A" unicode="&#x300a;" d="M444 351 l189 459 l90 0 l-189 -459 l189 -461 l-90 0 l-189 461 ZM632 351 l189 459 l90 0 l-189 -459 l189 -461 l-90 0 l-189 461 Z" /><glyph glyph-name="uni300B" unicode="&#x300b;" d="M278 350 l-189 459 l90 0 l189 -459 l-189 -461 l-90 0 l189 461 ZM466 350 l-189 459 l90 0 l189 -459 l-189 -461 l-90 0 l189 461 Z" /><glyph glyph-name="uniFF08" unicode="&#xff08;" d="M932 -130 l-97 0 q-67 77 -117 203.5 q-50 126.5 -50 276.5 q0 136 44 262 q44 126 123 218 l97 0 q-71 -78 -118.5 -210 q-47.5 -132 -47.5 -270 q0 -98 26 -192 q26 -94 64 -168 q38 -74 76 -120 Z" /><glyph glyph-name="uniFF09" unicode="&#xff09;" d="M68 830 l98 0 q72 -85 119 -211.5 q47 -126.5 47 -268.5 q0 -142 -47 -268.5 q-47 -126.5 -119 -211.5 l-98 0 q42 48 80.5 123.5 q38.5 75.5 62.5 168.5 q24 93 24 188 q0 95 -24 188 q-24 93 -62.5 168.5 q-38.5 75.5 -80.5 123.5 Z" /><glyph glyph-name="hyphen" unicode="-" d="M58 339 l252 0 l0 -79 l-252 0 l0 79 Z" /><glyph glyph-name="quotedbl" unicode="&quot;" d="M206 787 l-36 -333 l-95 0 l36 333 l95 0 ZM398 787 l-36 -333 l-95 0 l35 333 l96 0 Z" /><glyph glyph-name="quotesingle" unicode="&#39;" d="M206 787 l-36 -333 l-95 0 l36 333 l95 0 Z" /><glyph glyph-name="uni3001" unicode="&#x3001;" d="M373 -78 l-77 -76 q-79 120 -176 195 l56 55 q57 -32 108 -77 q51 -45 89 -97 Z" /><glyph glyph-name="uni3002" unicode="&#x3002;" d="M231 108 q36 0 66 -18 q30 -18 47.5 -49.5 q17.5 -31.5 17.5 -67.5 q0 -36 -17.5 -66.5 q-17.5 -30.5 -47.5 -48.5 q-30 -18 -66 -18 q-37 0 -67.5 18 q-30.5 18 -48 48.5 q-17.5 30.5 -17.5 66.5 q0 37 17.5 68 q17.5 31 48 49 q30.5 18 67.5 18 ZM231 -102 q30 0 51.5 22 q21.5 22 21.5 53 q0 32 -21.5 54 q-21.5 22 -51.5 22 q-31 0 -52.5 -22 q-21.5 -22 -21.5 -54 q0 -31 21.5 -53 q21.5 -22 52.5 -22 Z" /><glyph glyph-name="at" unicode="@" d="M731 386 l0 -208 q0 -44 23 -71.5 q23 -27.5 60 -27.5 q39 0 69 33 q30 33 47 90 q17 57 17 127 q0 102 -49.5 181.5 q-49.5 79.5 -139 123.5 q-89.5 44 -204.5 44 q-122 0 -216 -51.5 q-94 -51.5 -146.5 -144.5 q-52.5 -93 -52.5 -212 q0 -124 52.5 -220.5 q52.5 -96.5 147 -150.5 q94.5 -54 216.5 -54 q93 0 174.5 34 q81.5 34 118.5 87 l55 -60 q-48 -65 -144.5 -105 q-96.5 -40 -203.5 -40 q-147 0 -261 64.5 q-114 64.5 -177 180 q-63 115.5 -63 264.5 q0 144 63 256 q63 112 176.5 174 q113.5 62 260.5 62 q140 0 249 -54.5 q109 -54.5 169.5 -153 q60.5 -98.5 60.5 -225.5 q0 -96 -29 -170.5 q-29 -74.5 -81 -115.5 q-52 -41 -119 -41 q-55 0 -95.5 29.5 q-40.5 29.5 -57.5 79.5 q-27 -51 -70.5 -79 q-43.5 -28 -99.5 -28 q-61 0 -110 33.5 q-49 33.5 -77 94 q-28 60.5 -28 138.5 q0 78 28 138.5 q28 60.5 77 94 q49 33.5 110 33.5 q53 0 95.5 -25.5 q42.5 -25.5 69.5 -71.5 l5 87 l85 0 q-5 -33 -5 -140 ZM634 270 q0 85 -37.5 137.5 q-37.5 52.5 -98.5 52.5 q-62 0 -99.5 -52.5 q-37.5 -52.5 -37.5 -137.5 q0 -85 37.5 -137 q37.5 -52 99.5 -52 q61 0 98.5 52 q37.5 52 37.5 137 Z" /><glyph glyph-name="uni4E00" unicode="&#x4e00;" d="M957 429 l0 -99 l-915 0 l0 99 l915 0 Z" /><glyph glyph-name="uni4E0A" unicode="&#x4e0a;" d="M521 809 l0 -290 l379 0 l0 -83 l-379 0 l0 -428 l435 0 l0 -87 l-909 0 l0 87 l385 0 l0 801 l89 0 Z" /><glyph glyph-name="uni4E0B" unicode="&#x4e0b;" d="M945 739 l0 -86 l-424 0 l0 -777 l-91 0 l0 777 l-374 0 l0 86 l889 0 ZM571 517 q32 -18 73.5 -46.5 q41.5 -28.5 92.5 -67.5 q104 -78 159 -133 l-62 -74 q-26 28 -63 59.5 q-37 31.5 -88 71.5 q-98 80 -159 118 l47 72 Z" /><glyph glyph-name="uni4E0D" unicode="&#x4e0d;" d="M920 745 l0 -88 l-314 0 q-25 -45 -51.5 -88 q-26.5 -43 -56.5 -85 l46 0 l0 -606 l-88 0 l0 549 q-70 -90 -154.5 -172.5 q-84.5 -82.5 -187.5 -161.5 l-65 73 q155 111 268 235.5 q113 124.5 187 255.5 l-421 0 l0 88 l837 0 ZM618 473 q33 -26 78 -64.5 q45 -38.5 91.5 -81 q46.5 -42.5 90 -83.5 q43.5 -41 72.5 -72 l-62 -72 q-39 42 -82.5 85.5 q-43.5 43.5 -87 84 q-43.5 40.5 -84 76.5 q-40.5 36 -72.5 62 l56 65 Z" /><glyph glyph-name="uni4E14" unicode="&#x4e14;" d="M808 765 l0 -768 l148 0 l0 -82 l-912 0 l0 82 l148 0 l0 768 l616 0 ZM280 -3 l439 0 l0 184 l-439 0 l0 -184 ZM280 267 l439 0 l0 170 l-439 0 l0 -170 ZM280 518 l439 0 l0 164 l-439 0 l0 -164 Z" /><glyph glyph-name="uni4E16" unicode="&#x4e16;" d="M508 807 l0 -233 l208 0 l0 234 l87 0 l0 -234 l154 0 l0 -85 l-154 0 l0 -328 l-382 0 l0 328 l-161 0 l0 -481 l671 0 l0 -85 l-760 0 l0 566 l-129 0 l0 85 l129 0 l0 209 l89 0 l0 -209 l161 0 l0 233 l87 0 ZM716 247 l0 242 l-208 0 l0 -242 l208 0 Z" /><glyph glyph-name="uni4E26" unicode="&#x4e26;" d="M353 635 l-36 72 q-14 26 -26 46.5 q-12 20.5 -22 35.5 l73 39 q11 -15 23 -35.5 q12 -20.5 28 -46.5 q16 -26 26.5 -47 q10.5 -21 17.5 -37 l-53 -27 l173 0 q33 43 64.5 90 q31.5 47 62.5 99 l74 -39 q-23 -38 -51 -78.5 q-28 -40.5 -53 -71.5 l252 0 l0 -81 l-258 0 l0 -558 l297 0 l0 -80 l-892 0 l0 80 l297 0 l0 558 l-258 0 l0 81 l261 0 ZM431 -4 l136 0 l0 558 l-136 0 l0 -558 ZM666 129 q17 26 38 65.5 q21 39.5 44 90.5 q23 51 39.5 91 q16.5 40 26.5 71 l77 -27 q-20 -63 -69 -169 q-47 -105 -84 -162 l-72 40 ZM177 449 q34 -55 78 -154 q23 -51 40.5 -93 q17.5 -42 27.5 -74 l-76 -35 q-19 62 -65 161 q-46 102 -78 155 l73 40 Z" /><glyph glyph-name="uni4E2D" unicode="&#x4e2d;" d="M543 810 l0 -193 l348 0 l0 -454 l-348 0 l0 -292 l-90 0 l0 292 l-345 0 l0 454 l345 0 l0 193 l90 0 ZM543 530 l0 -277 l258 0 l0 277 l-258 0 ZM198 253 l255 0 l0 277 l-255 0 l0 -277 Z" /><glyph glyph-name="uni4E3B" unicode="&#x4e3b;" d="M495 820 q9 -16 20 -36.5 q11 -20.5 21.5 -41.5 q10.5 -21 20 -41 q9.5 -20 15.5 -35 l-80 -30 l423 0 l0 -86 l-371 0 l0 -209 l328 0 l0 -91 l-328 0 l0 -247 l404 0 l0 -86 l-897 0 l0 86 l403 0 l0 247 l-327 0 l0 91 l327 0 l0 209 l-370 0 l0 86 l405 0 q-6 15 -14.5 34.5 q-8.5 19.5 -18 39.5 q-9.5 20 -20 40.5 q-10.5 20.5 -19.5 37.5 l78 32 Z" /><glyph glyph-name="uni4E45" unicode="&#x4e45;" d="M59 359 q95 105 170 224.5 q75 119.5 120 240.5 l92 -24 q-14 -34 -28 -66.5 q-14 -32.5 -30 -63.5 l323 0 l-1 -86 q-25 -68 -52.5 -128 q-27.5 -60 -60.5 -116 q59 -118 149.5 -213 q90.5 -95 218.5 -165 l-58 -83 q-121 78 -210.5 171.5 q-89.5 93.5 -152.5 208.5 q-38 -53 -84 -102 q-46 -49 -100.5 -97 q-54.5 -48 -119.5 -95 q-65 -47 -141 -96 l-61 77 q115 67 205 138.5 q90 71.5 159 150 q69 78.5 119 165 q50 86.5 85 182.5 l-264 0 q-86 -148 -207 -278 l-71 55 Z" /><glyph glyph-name="uni4E4B" unicode="&#x4e4b;" d="M491 630 q-13 35 -33 78 q-20 43 -38 78 l78 35 q7 -13 19.5 -37 q12.5 -24 24.5 -49.5 q12 -25.5 22.5 -49 q10.5 -23.5 14.5 -34.5 l-57 -21 l350 0 l0 -87 q-136 -121 -278 -231 q-142 -110 -294 -210 q36 -26 83.5 -45 q47.5 -19 117.5 -30 q78 -12 187.5 -14.5 q109.5 -2.5 267.5 8.5 l-18 -93 q-145 -6 -253.5 -4 q-108.5 2 -189.5 14 q-84 12 -142 34 q-58 22 -100 57 q-20 17 -28.5 23 q-8.5 6 -14.5 5 q-7 -1 -14.5 -8 q-7.5 -7 -23.5 -28 q-16 -21 -33.5 -44.5 q-17.5 -23.5 -37.5 -52.5 l-70 63 q16 22 32 44 q16 22 30 40.5 q14 18.5 25 32.5 q11 14 17 21 q21 24 33.5 33 q12.5 9 30.5 9 q9 0 22 -7 q140 85 270 181 q130 96 256 202 l-616 0 l0 87 l360 0 Z" /><glyph glyph-name="uni4E5F" unicode="&#x4e5f;" d="M183 487 l0 207 l87 0 l0 -185 l192 47 l0 251 l87 0 l0 -229 l311 77 q-2 -60 -3.5 -107.5 q-1.5 -47.5 -3.5 -88 q-2 -40.5 -4.5 -76.5 q-2.5 -36 -6.5 -73 q-3 -35 -10.5 -58 q-7.5 -23 -21 -37.5 q-13.5 -14.5 -33.5 -22 q-20 -7.5 -50 -11.5 q-32 -5 -57.5 -5.5 q-25.5 -0.5 -48.5 1.5 l-19 94 q20 -2 41 -2.5 q21 -0.5 41 -0.5 q23 0 36.5 2.5 q13.5 2.5 21 10 q7.5 7.5 10.5 21 q3 13.5 5 35.5 q5 43 7 97 q2 54 2 113 l-217 -55 l0 -417 l-87 0 l0 395 l-192 -49 l0 -326 q0 -34 4.5 -54.5 q4.5 -20.5 19.5 -31.5 q22 -18 86 -22 q34 -3 182 -3 q148 0 183 3 q71 5 85 16 q11 9 15.5 22 q4.5 13 8.5 42 q4 34 6 84 l90 -28 q-2 -33 -5.5 -61 q-3.5 -28 -8.5 -52 q-5 -27 -17 -46.5 q-12 -19.5 -27 -30.5 q-14 -10 -39.5 -18 q-25.5 -8 -67.5 -11 q-42 -3 -220 -3 q-179 0 -219 3 q-45 3 -75.5 13 q-30.5 10 -49.5 26 q-38 32 -38 123 l0 333 l-124 -31 l-16 85 l140 34 Z" /><glyph glyph-name="uni4E86" unicode="&#x4e86;" d="M893 742 l0 -88 q-82 -66 -167.5 -125 q-85.5 -59 -173.5 -110 l0 -396 q0 -36 -6 -59 q-6 -23 -19.5 -37.5 q-13.5 -14.5 -34 -21.5 q-20.5 -7 -49.5 -10 q-18 -2 -40.5 -3.5 q-22.5 -1.5 -43.5 -2 q-21 -0.5 -39.5 -0.5 q-18.5 0 -29.5 1 l-17 97 q8 -1 23.5 -2 q15.5 -1 34 -1.5 q18.5 -0.5 37.5 -1 q19 -0.5 34 0.5 q18 1 29 3 q11 2 17.5 9 q6.5 7 8.5 21 q2 14 2 40 l0 409 q75 39 145 87 q70 48 139 102 l-655 0 l0 88 l805 0 Z" /><glyph glyph-name="uni4E8B" unicode="&#x4e8b;" d="M458 238 l0 73 l-353 0 l0 64 l353 0 l0 59 l-309 0 l0 180 l309 0 l0 59 l-401 0 l0 66 l401 0 l0 75 l81 0 l0 -75 l394 0 l0 -66 l-394 0 l0 -59 l303 0 l0 -180 l-303 0 l0 -59 l323 0 l0 -137 l88 0 l0 -65 l-88 0 l0 -140 l-323 0 l0 -24 q0 -29 -3.5 -51 q-3.5 -22 -14 -37 q-10.5 -15 -29 -23 q-18.5 -8 -49.5 -11 q-23 -2 -40 -3.5 q-17 -1.5 -32 -1.5 q-15 0 -29.5 0 q-14.5 0 -32.5 1 l-17 83 q10 -1 25 -1.5 q15 -0.5 31 -1 q16 -0.5 30.5 -0.5 q14.5 0 23.5 0 q19 0 30 2 q11 2 17 7 q6 5 7.5 15.5 q1.5 10.5 1.5 27.5 l0 18 l-362 0 l0 67 l362 0 l0 73 l-418 0 l0 65 l418 0 ZM539 311 l0 -73 l245 0 l0 73 l-245 0 ZM784 100 l0 73 l-245 0 l0 -73 l245 0 ZM230 494 l228 0 l0 60 l-228 0 l0 -60 ZM539 554 l0 -60 l221 0 l0 60 l-221 0 Z" /><glyph glyph-name="uni4E94" unicode="&#x4e94;" d="M329 440 l37 217 l-273 0 l0 85 l821 0 l0 -85 l-458 0 l-37 -217 l379 0 l-15 -415 l167 0 l0 -85 l-900 0 l0 85 l207 0 l57 331 l-200 0 l0 84 l215 0 ZM404 356 l-57 -331 l346 0 l13 331 l-302 0 Z" /><glyph glyph-name="uni4E9B" unicode="&#x4e9b;" d="M399 804 l0 -170 l136 0 l0 -77 l-136 0 l0 -165 q38 8 70.5 15.5 q32.5 7.5 59.5 14.5 l4 -44 l5 -44 q-87 -22 -236 -48 q-74 -13 -133 -21.5 q-59 -8.5 -104 -13.5 l-13 90 l75 7 l0 373 l87 0 l0 -362 l76 13 l25 4 l0 428 l84 0 ZM649 808 l0 -208 q21 10 44.5 21.5 q23.5 11.5 51.5 25.5 q43 22 76.5 41.5 q33.5 19.5 57.5 36.5 l41 -79 q-51 -32 -144 -77 l-127 -59 l0 -75 q0 -25 2.5 -40 q2.5 -15 12.5 -22.5 q10 -7.5 30 -10 q20 -2.5 56 -2.5 q34 0 53.5 2.5 q19.5 2.5 29.5 9.5 q10 7 14 18.5 q4 11.5 7 29.5 q2 12 4 32.5 q2 20.5 3 37.5 l80 -25 q-1 -16 -3 -35.5 q-2 -19.5 -4 -31.5 q-5 -37 -13 -59.5 q-8 -22.5 -27.5 -35.5 q-19.5 -13 -55 -18 q-35.5 -5 -95.5 -6 q-60 1 -95.5 6.5 q-35.5 5.5 -54 19.5 q-18.5 14 -24.5 39 q-6 25 -6 64 l0 400 l86 0 ZM935 4 l0 -85 l-868 0 l0 85 l868 0 ZM824 194 l0 -83 l-647 0 l0 83 l647 0 Z" /><glyph glyph-name="uni4EBA" unicode="&#x4eba;" d="M53 -47 q109 81 184 164 q75 83 120 169 q89 172 92 415 l2 97 l89 0 l-3 -132 q0 -10 -0.5 -19 q-0.5 -9 -0.5 -19 q22 -215 127.5 -381.5 q105.5 -166.5 284.5 -296.5 l-63 -82 q-107 89 -186 180 q-79 91 -131 188 q-22 39 -39 80.5 q-17 41.5 -31 84.5 q-12 -42 -27.5 -83 q-15.5 -41 -35.5 -79 q-49 -96 -128 -186 q-79 -90 -191 -175 l-63 75 Z" /><glyph glyph-name="uni4ED6" unicode="&#x4ed6;" d="M454 702 l0 -194 l127 40 l0 257 l81 0 l0 -232 l223 69 q-2 -101 -5 -196 q-3 -95 -7 -168 q-1 -25 -5 -42 q-4 -17 -13.5 -29 q-9.5 -12 -26 -19.5 q-16.5 -7.5 -41.5 -11.5 q-25 -5 -45 -5.5 q-20 -0.5 -40 1.5 l-18 90 q17 -2 38 -2.5 q21 -0.5 31 -0.5 q13 0 20.5 2 q7.5 2 12 6.5 q4.5 4.5 6 13.5 q1.5 9 2.5 24 q2 46 4 107 q2 61 3 119 l-139 -44 l0 -413 l-81 0 l0 387 l-127 -40 l0 -355 q0 -26 3.5 -42 q3.5 -16 12 -25 q8.5 -9 23.5 -12.5 q15 -3.5 38 -4.5 q18 -1 47.5 -1.5 q29.5 -0.5 62 -0.5 q32.5 0 62.5 0.5 q30 0.5 49 1.5 q34 2 54 4.5 q20 2.5 31 8.5 q11 6 15 17.5 q4 11.5 7 30.5 q2 22 4 46 q2 24 3 47 l83 -24 q-1 -26 -3 -54 q-2 -28 -6 -47 q-6 -33 -17 -53 q-11 -20 -29.5 -32 q-18.5 -12 -46 -17 q-27.5 -5 -66.5 -8 q-23 -2 -57.5 -2.5 q-34.5 -0.5 -71.5 -0.5 q-37 0 -72 0.5 q-35 0.5 -60 2.5 q-43 3 -71.5 11 q-28.5 8 -46 23 q-17.5 15 -24.5 38.5 q-7 23.5 -7 57.5 l0 364 l-85 -26 l-20 81 l105 32 l0 220 l83 0 ZM20 317 q30 45 65 107 q35 62 65 124 q31 63 59 129 q28 66 47 129 l81 -18 q-20 -60 -42 -114.5 q-22 -54.5 -45 -106.5 l0 -694 l-81 0 l0 532 q-20 -35 -40 -69 q-20 -34 -41 -67 l-68 48 Z" /><glyph glyph-name="uni4EE3" unicode="&#x4ee3;" d="M517 493 q-2 28 -4 57 q-2 29 -4 60 q-4 55 -6 103.5 q-2 48.5 -4 93.5 l87 0 q2 -87 9 -202 q2 -27 3.5 -53 q1.5 -26 3.5 -51 l338 31 l6 -84 l-336 -32 q18 -147 47.5 -242.5 q29.5 -95.5 59.5 -141.5 q21 -32 37 -42 q16 -10 33 -10 q15 0 25 13 q11 16 23.5 56 q12.5 40 27.5 101 l80 -42 q-7 -26 -14.5 -54 q-7.5 -28 -17.5 -54 q-25 -66 -55 -93 q-30 -27 -69 -27 q-37 0 -70.5 22 q-33.5 22 -71.5 79 q-42 62 -71.5 167 q-29.5 105 -47.5 260 l-215 -20 l-8 86 l214 19 ZM24 300 q41 54 77.5 115.5 q36.5 61.5 68.5 127.5 q32 66 59.5 135 q27.5 69 47.5 134 l89 -25 q-21 -59 -44 -113.5 q-23 -54.5 -47 -107.5 l0 -691 l-86 0 l0 524 q-24 -43 -48.5 -83 q-24.5 -40 -50.5 -78 l-66 62 ZM706 773 q17 -11 39 -29 q22 -18 49 -42 q54 -47 83 -77 l-51 -59 q-17 16 -38 36.5 q-21 20.5 -43.5 40.5 q-22.5 20 -45 39 q-22.5 19 -41.5 33 l48 58 Z" /><glyph glyph-name="uni4EE5" unicode="&#x4ee5;" d="M348 -54 q105 51 176.5 111 q71.5 60 116 132 q44.5 72 66 157 q21.5 85 26.5 187 q4 66 5 128 q1 62 1 121 l89 0 q0 -60 -1.5 -123 q-1.5 -63 -5.5 -131 q-5 -93 -21 -171 q-16 -78 -46 -146 q22 -20 47 -46.5 q25 -26.5 54 -58.5 q37 -41 65.5 -75 q28.5 -34 48.5 -61 l-75 -70 q-18 28 -44.5 62.5 q-26.5 34.5 -61.5 75.5 q-44 52 -78 90 q-51 -78 -126 -141 q-75 -63 -184 -120 l-52 79 ZM80 7 q20 16 29 32.5 q9 16.5 9 35.5 l0 682 l88 0 l0 -651 q69 53 131.5 108 q62.5 55 122.5 116 l53 -76 q-94 -86 -188 -164 q-94 -78 -197 -155 l-48 72 ZM401 800 q19 -23 41 -56.5 q22 -33.5 48 -77.5 q54 -87 77 -140 l-74 -46 q-11 28 -29.5 63 q-18.5 35 -44.5 79 q-49 86 -86 134 l68 44 Z" /><glyph glyph-name="uni4F46" unicode="&#x4f46;" d="M888 746 l0 -592 l-508 0 l0 592 l508 0 ZM26 329 q63 100 120 221 q57 121 99 254 l87 -20 q-19 -59 -39 -115 q-20 -56 -43 -110 l0 -693 l-85 0 l0 518 q-17 -29 -34 -57 q-17 -28 -35 -56 l-70 58 ZM803 240 l0 173 l-338 0 l0 -173 l338 0 ZM957 4 l0 -86 l-659 0 l0 86 l659 0 ZM465 495 l338 0 l0 167 l-338 0 l0 -167 Z" /><glyph glyph-name="uni4F5C" unicode="&#x4f5c;" d="M284 417 q66 79 121.5 182 q55.5 103 93.5 215 l86 -25 q-12 -33 -23.5 -64.5 q-11.5 -31.5 -24.5 -61.5 l401 0 l0 -86 l-308 0 l0 -153 l258 0 l0 -88 l-258 0 l0 -161 l280 0 l0 -89 l-280 0 l0 -218 l-87 0 l0 709 l-46 0 q-31 -61 -66.5 -115 q-35.5 -54 -78.5 -102 l-68 57 ZM18 339 q72 99 131 216 q59 117 101 247 l93 -27 q-22 -62 -43.5 -115.5 q-21.5 -53.5 -44.5 -102.5 l0 -682 l-88 0 l0 518 q-17 -29 -35.5 -56.5 q-18.5 -27.5 -38.5 -54.5 l-75 57 Z" /><glyph glyph-name="uni4F60" unicode="&#x4f60;" d="M20 325 q67 107 124 227.5 q57 120.5 94 252.5 l82 -17 q-17 -56 -37 -110 q-20 -54 -41 -105 l0 -699 l-85 0 l0 518 q-18 -33 -35 -61.5 q-17 -28.5 -34 -51.5 l-68 46 ZM294 430 q27 38 53 84.5 q26 46.5 51 97.5 q26 51 46 101.5 q20 50.5 34 97.5 l88 -14 q-11 -31 -22 -61 q-11 -30 -24 -60 l412 0 l0 -79 q-15 -40 -38.5 -87 q-23.5 -47 -48.5 -85 l-79 31 q21 32 38.5 67.5 q17.5 35.5 33.5 71.5 l-355 0 q-27 -56 -56.5 -107.5 q-29.5 -51.5 -61.5 -97.5 l-71 40 ZM447 -29 q19 -2 47.5 -2.5 q28.5 -0.5 45.5 -0.5 q17 0 27 1.5 q10 1.5 15.5 7 q5.5 5.5 7 15.5 q1.5 10 1.5 28 l0 497 l82 0 l0 -530 q-2 -45 -21.5 -68.5 q-19.5 -23.5 -70.5 -30.5 q-11 -2 -27 -2.5 q-16 -0.5 -32.5 -1.5 q-16.5 -1 -32.5 -1 q-16 0 -26 0 l-16 88 ZM263 0 q51 85 93.5 180 q42.5 95 71.5 190 l79 -19 q-15 -48 -34.5 -102 q-19.5 -54 -42 -106.5 q-22.5 -52.5 -46.5 -99.5 q-24 -47 -47 -80 l-74 37 ZM802 371 q40 -67 90 -184 q26 -60 45 -108 q19 -48 31 -86 l-76 -32 q-11 36 -29.5 83 q-18.5 47 -44.5 107 q-25 60 -46.5 105.5 q-21.5 45.5 -40.5 79.5 l71 35 Z" /><glyph glyph-name="uni4F86" unicode="&#x4f86;" d="M458 687 l0 124 l85 0 l0 -124 l366 0 l0 -79 l-366 0 l0 -276 q36 -52 79 -96.5 q43 -44.5 93.5 -84 q50.5 -39.5 110 -74 q59.5 -34.5 129.5 -66.5 l-44 -80 q-121 58 -211 122.5 q-90 64.5 -157 145.5 l0 -328 l-85 0 l0 326 q-66 -82 -154.5 -148 q-88.5 -66 -208.5 -128 l-46 76 q142 65 240 148.5 q98 83.5 169 185.5 l0 277 l-364 0 l0 79 l364 0 ZM568 337 q54 57 88 114 q34 57 58 125 l74 -25 q-10 -26 -18.5 -47.5 q-8.5 -21.5 -18.5 -41.5 q17 -14 35.5 -31 q18.5 -17 40.5 -37 q29 -28 51 -51 q22 -23 37 -42 l-54 -61 q-15 20 -36.5 44.5 q-21.5 24.5 -50.5 53.5 q-17 17 -31 31.5 q-14 14.5 -28 26.5 q-17 -27 -39.5 -55 q-22.5 -28 -50.5 -58 l-57 54 ZM85 282 q68 69 106.5 140.5 q38.5 71.5 61.5 144.5 l74 -21 q-11 -39 -27 -76 q11 -11 24.5 -24.5 q13.5 -13.5 28.5 -30.5 q23 -23 41 -43 q18 -20 29 -34 l-57 -57 q-11 16 -27 36 q-16 20 -38 44 l-34 37 q-25 -46 -55.5 -86.5 q-30.5 -40.5 -68.5 -81.5 l-58 52 Z" /><glyph glyph-name="uni4F9D" unicode="&#x4f9d;" d="M382 -53 q17 11 26 27.5 q9 16.5 9 34.5 l0 243 q-56 -57 -123 -114 l-58 64 l0 -324 l-86 0 l0 515 q-15 -26 -31 -53 q-16 -27 -33 -53 l-71 52 q64 99 121.5 219 q57.5 120 96.5 253 l86 -17 q-20 -63 -40.5 -118.5 q-20.5 -55.5 -42.5 -107.5 l0 -360 q61 49 112 100 q51 51 89 101 q61 82 105 178 l-228 0 l0 82 l258 0 q-2 11 -5.5 22.5 q-3.5 11.5 -7.5 25.5 q-7 24 -13.5 43 q-6.5 19 -11.5 33 l79 18 q12 -28 27 -76 q6 -20 10.5 -36.5 q4.5 -16.5 7.5 -29.5 l276 0 l0 -82 l-299 0 l-6 -14 q11 -65 27 -121.5 q16 -56.5 36 -106.5 q14 11 30 24 q16 13 35 30 q62 54 95 92 l60 -61 q-18 -20 -45 -45 q-27 -25 -61 -54 q-23 -19 -43 -34.5 q-20 -15.5 -37 -27.5 q6 -12 14 -26 q40 -70 94 -129.5 q54 -59.5 125 -107.5 l-58 -76 q-76 57 -133.5 120.5 q-57.5 63.5 -93.5 132.5 q-31 59 -55.5 128 q-24.5 69 -44.5 154 q-33 -59 -70 -109 q-2 -2 -2 -3 l0 -349 q34 16 76 40.5 q42 24.5 76 47.5 l28 -84 q-62 -36 -128 -68 q-66 -32 -138 -61 l-34 68 Z" /><glyph glyph-name="uni4FBF" unicode="&#x4fbf;" d="M410 193 l-62 0 l0 401 l234 0 l0 87 l-251 0 l0 80 l612 0 l0 -80 l-280 0 l0 -87 l232 0 l0 -401 l-237 0 q-9 -90 -41 -150 q65 -31 147.5 -47 q82.5 -16 196.5 -23 l-21 -91 q-120 9 -212 33 q-92 24 -166 64 q-84 -64 -275 -118 l-33 83 q80 20 138 40.5 q58 20.5 94 43.5 q-35 26 -66.5 57 q-31.5 31 -60.5 67 l51 41 ZM24 332 q29 48 57.5 102 q28.5 54 57.5 119 q29 65 52 128 q23 63 40 126 l86 -25 q-17 -58 -36 -112 q-19 -54 -42 -111 l0 -691 l-82 0 l0 515 q-15 -28 -31 -54 q-16 -26 -33 -52 l-69 55 ZM582 289 l0 72 l-152 0 l0 -90 l152 0 l0 18 ZM813 271 l0 90 l-150 0 l0 -81 l0 -9 l150 0 ZM430 433 l152 0 l0 86 l-152 0 l0 -86 ZM663 519 l0 -86 l150 0 l0 86 l-150 0 ZM544 86 q23 42 32 107 l-145 0 q27 -32 54.5 -59 q27.5 -27 58.5 -48 Z" /><glyph glyph-name="uni4FDD" unicode="&#x4fdd;" d="M877 756 l0 -324 l-506 0 l0 324 l506 0 ZM260 -6 q84 45 146.5 106.5 q62.5 61.5 104.5 143.5 l-203 0 l0 80 l276 0 l0 89 l81 0 l0 -89 l278 0 l0 -80 l-212 0 q16 -31 36.5 -58 q20.5 -27 46.5 -56 q37 -41 74.5 -70.5 q37.5 -29.5 81.5 -54.5 l-48 -72 q-43 26 -80 57 q-37 31 -72 73 q-31 35 -58 79 q-27 44 -47 93 l0 -360 l-81 0 l0 364 q-20 -49 -49 -94.5 q-29 -45.5 -65 -85.5 q-36 -40 -77.5 -74 q-41.5 -34 -85.5 -59 l-47 68 ZM21 327 q27 45 58 103.5 q31 58.5 62 123.5 q31 65 55 131 q24 66 40 126 l88 -24 q-20 -61 -39.5 -117 q-19.5 -56 -41.5 -109 l0 -690 l-81 0 l0 521 q-17 -29 -33.5 -57 q-16.5 -28 -35.5 -56 l-72 48 ZM457 512 l335 0 l0 164 l-335 0 l0 -164 Z" /><glyph glyph-name="uni4FE1" unicode="&#x4fe1;" d="M879 226 l0 -323 l-521 0 l0 323 l521 0 ZM27 347 q62 95 114 214 q52 119 90 246 l87 -26 q-19 -61 -37.5 -114 q-18.5 -53 -38.5 -102 l0 -693 l-83 0 l0 523 q-14 -25 -29.5 -50 q-15.5 -25 -32.5 -51 l-70 53 ZM645 803 q7 -15 19 -47 q12 -32 22 -63 l270 0 l0 -81 l-650 0 l0 81 l290 0 q-8 25 -17.5 49 q-9.5 24 -17.5 41 l84 20 ZM444 -20 l350 0 l0 166 l-350 0 l0 -166 ZM876 383 l0 -76 l-515 0 l0 76 l515 0 ZM876 533 l0 -73 l-515 0 l0 73 l515 0 Z" /><glyph glyph-name="uni500B" unicode="&#x500b;" d="M898 758 l0 -862 l-576 0 l0 862 l576 0 ZM402 -22 l414 0 l0 700 l-414 0 l0 -700 ZM573 358 l0 112 l-139 0 l0 72 l139 0 l0 96 l75 0 l0 -96 l137 0 l0 -72 l-137 0 l0 -112 l94 0 l0 -272 l-265 0 l0 272 l96 0 ZM25 343 q30 48 57 104 q27 56 51 115.5 q24 59.5 44.5 121.5 q20.5 62 37.5 122 l78 -17 q-31 -111 -64 -204 l0 -711 l-80 0 l0 521 q-13 -26 -26.5 -51 q-13.5 -25 -28.5 -50 l-69 49 ZM547 160 l123 0 l0 124 l-123 0 l0 -124 Z" /><glyph glyph-name="uni5011" unicode="&#x5011;" d="M909 762 l0 -757 q0 -26 -3.5 -46 q-3.5 -20 -14 -34.5 q-10.5 -14.5 -29.5 -23.5 q-19 -9 -50 -12 q-11 -1 -27 -2 q-16 -1 -32.5 -1.5 q-16.5 -0.5 -31.5 -1 q-15 -0.5 -23 -0.5 l-16 84 q7 -1 18.5 -1.5 q11.5 -0.5 23.5 -1 q12 -0.5 24 -0.5 q12 0 20 0 q21 0 34 2 q13 2 19.5 8 q6.5 6 8.5 18.5 q2 12.5 2 34.5 l0 349 l-181 0 l0 385 l258 0 ZM593 762 l0 -386 l-182 0 l0 -498 l-77 0 l0 884 l259 0 ZM19 315 q29 47 60 110.5 q31 63.5 59 131.5 q27 66 49 128 q22 62 38 121 l80 -17 q-31 -108 -71 -210 l0 -710 l-78 0 l0 533 q-17 -36 -34.5 -68.5 q-17.5 -32.5 -35.5 -63.5 l-67 45 ZM720 603 l112 0 l0 92 l-112 0 l0 -92 ZM720 444 l112 0 l0 92 l-112 0 l0 -92 ZM411 603 l111 0 l0 91 l-111 0 l0 -91 ZM522 446 l0 90 l-111 0 l0 -90 l111 0 Z" /><glyph glyph-name="uni5019" unicode="&#x5019;" d="M359 -63 q66 25 122 57 q56 32 85 62 q17 18 31.5 42.5 q14.5 24.5 22.5 51.5 l-219 0 l0 76 l229 0 q1 27 1 53.5 q0 26.5 0 55.5 l-109 0 q-26 -49 -58 -97 l-65 43 q36 51 62 101 q26 50 47 110 l71 -22 q-6 -17 -11.5 -32 q-5.5 -15 -11.5 -29 l344 0 l0 -74 l-186 0 q0 -29 -0.5 -54.5 q-0.5 -25.5 -2.5 -54.5 l228 0 l0 -76 l-223 0 q24 -74 83 -122 q59 -48 157 -80 l-41 -75 q-88 33 -147.5 80 q-59.5 47 -96.5 113 q-13 -26 -30 -46 q-48 -53 -109 -90.5 q-61 -37.5 -131 -63.5 l-42 71 ZM16 317 q34 54 61.5 113 q27.5 59 53.5 127 q26 68 47.5 129.5 q21.5 61.5 37.5 120.5 l79 -17 q-17 -60 -35 -115 q-18 -55 -38 -108 l0 -695 l-76 0 l0 515 q-14 -29 -28.5 -57.5 q-14.5 -28.5 -29.5 -57.5 l-72 45 ZM848 757 l-16 -180 l121 0 l0 -72 l-547 0 l0 72 l346 0 l9 106 l-297 0 l0 74 l384 0 ZM376 691 l0 -662 l-75 0 l0 662 l75 0 Z" /><glyph glyph-name="uni503C" unicode="&#x503c;" d="M659 808 l0 -84 l270 0 l0 -73 l-270 0 l0 -87 l212 0 l0 -572 l86 0 l0 -75 l-684 0 l0 75 l87 0 l0 572 l213 0 l0 87 l-251 0 l0 73 l251 0 l0 84 l86 0 ZM9 323 q64 109 116.5 231 q52.5 122 88.5 260 l89 -15 q-17 -59 -35 -113.5 q-18 -54.5 -38 -107.5 l0 -702 l-84 0 l0 511 q-30 -60 -63 -117 l-74 53 ZM446 135 l339 0 l0 77 l-339 0 l0 -77 ZM446 -8 l339 0 l0 76 l-339 0 l0 -76 ZM446 281 l339 0 l0 73 l-339 0 l0 -73 ZM446 420 l339 0 l0 73 l-339 0 l0 -73 Z" /><glyph glyph-name="uni505A" unicode="&#x505a;" d="M385 625 l0 180 l79 0 l0 -180 l125 0 l0 -78 l-125 0 l0 -176 l95 0 l0 -392 q44 42 80 85 q36 43 63 85 q-25 54 -44 115.5 q-19 61.5 -31 131.5 l-24 -41 l-70 43 q29 51 51.5 100.5 q22.5 49.5 42.5 104.5 q41 113 56 210 l80 -10 q-8 -41 -18 -81 q-10 -40 -22 -81 l237 0 l0 -81 l-70 0 q-21 -228 -81 -372 l-18 -40 q35 -55 82 -108.5 q47 -53.5 104 -104.5 l-61 -67 q-108 101 -172 203 q-35 -51 -80.5 -102 q-45.5 -51 -104.5 -105 l-59 62 l46 41 l-257 0 l0 404 l96 0 l0 176 l-126 0 l0 78 l126 0 ZM14 344 q24 48 51.5 107 q27.5 59 50.5 119 q23 60 41 119 q18 59 32 117 l83 -20 q-29 -108 -61 -200 l0 -713 l-79 0 l0 521 q-11 -23 -23 -47 q-12 -24 -25 -47 l-70 44 ZM362 47 l124 0 l0 242 l-124 0 l0 -242 ZM697 560 q-5 -14 -10 -27.5 q-5 -13.5 -10 -26.5 q9 -78 26 -145.5 q17 -67.5 43 -127.5 q52 126 72 327 l-121 0 Z" /><glyph glyph-name="uni50C5" unicode="&#x50c5;" d="M576 98 l0 60 l-250 0 l0 66 l250 0 l0 61 l-236 0 l0 191 l236 0 l0 57 l-155 0 l0 123 l-113 0 l0 67 l113 0 l0 79 l81 0 l0 -79 l224 0 l0 80 l82 0 l0 -80 l137 0 l0 -67 l-137 0 l0 -123 l-156 0 l0 -57 l236 0 l0 -191 l-236 0 l0 -61 l257 0 l0 -66 l-257 0 l0 -60 l238 0 l0 -65 l-238 0 l0 -60 l301 0 l0 -69 l-678 0 l0 69 l301 0 l0 60 l-229 0 l0 65 l229 0 ZM20 333 q33 50 62.5 109 q29.5 59 57.5 122 q57 126 91 247 l78 -18 q-16 -51 -33 -99.5 q-17 -48.5 -35 -95.5 l0 -724 l-77 0 l0 551 q-19 -38 -39 -73 q-20 -35 -40 -68 l-65 49 ZM726 598 l0 58 l-224 0 l0 -58 l224 0 ZM652 415 l0 -69 l156 0 l0 69 l-156 0 ZM421 346 l155 0 l0 69 l-155 0 l0 -69 Z" /><glyph glyph-name="uni50F9" unicode="&#x50f9;" d="M878 395 l0 -355 l-509 0 l0 355 l509 0 ZM501 631 l0 66 l-187 0 l0 57 l631 0 l0 -57 l-200 0 l0 -66 l172 0 l0 -190 l-589 0 l0 190 l173 0 ZM21 322 q29 49 60 112.5 q31 63.5 58 128.5 q28 66 48.5 126 q20.5 60 37.5 120 l81 -16 q-17 -57 -35.5 -110.5 q-18.5 -53.5 -40.5 -107.5 l0 -701 l-76 0 l0 529 q-16 -32 -31.5 -62.5 q-15.5 -30.5 -33.5 -61.5 l-68 43 ZM268 -65 q53 9 139 36 q43 14 74 26.5 q31 12.5 51 25.5 l44 -67 q-26 -13 -61.5 -27 q-35.5 -14 -80.5 -28 q-45 -15 -74.5 -24 q-29.5 -9 -56.5 -14 l-35 72 ZM696 18 q28 -5 59.5 -13 q31.5 -8 74.5 -22 q43 -14 77.5 -26.5 q34.5 -12.5 59.5 -25.5 l-30 -68 q-26 13 -58 25.5 q-32 12.5 -75 27.5 q-42 15 -73.5 24.5 q-31.5 9.5 -63.5 16.5 l29 61 ZM447 294 l353 0 l0 46 l-353 0 l0 -46 ZM447 196 l353 0 l0 45 l-353 0 l0 -45 ZM800 98 l0 44 l-353 0 l0 -44 l353 0 ZM401 500 l100 0 l0 71 l-100 0 l0 -71 ZM573 500 l99 0 l0 71 l-99 0 l0 -71 ZM745 571 l0 -71 l99 0 l0 71 l-99 0 ZM573 631 l99 0 l0 66 l-99 0 l0 -66 Z" /><glyph glyph-name="uni5165" unicode="&#x5165;" d="M366 814 q35 -25 65 -54 q30 -29 56 -66 q26 -37 49 -82 q23 -45 44 -101 q41 -110 78.5 -189.5 q37.5 -79.5 80.5 -142.5 q43 -63 96 -115 q53 -52 125 -106 l-60 -81 q-74 60 -129.5 118.5 q-55.5 58.5 -100.5 126.5 q-45 68 -83.5 150.5 q-38.5 82.5 -79.5 190.5 l-3 7 q-25 -92 -73 -190 q-49 -100 -131 -198 q-82 -98 -202 -199 l-67 73 q115 91 195 182.5 q80 91.5 126 184.5 q35 72 58.5 139 q23.5 67 36.5 133 q-28 50 -61.5 89.5 q-33.5 39.5 -78.5 77.5 l59 52 Z" /><glyph glyph-name="uni5167" unicode="&#x5167;" d="M226 144 q49 43 86.5 86 q37.5 43 66.5 88.5 q29 45.5 51 94.5 q22 49 40 103 l-267 0 l0 -645 l-84 0 l0 729 l335 0 q-21 47 -52.5 88 q-31.5 41 -69.5 79 l61 50 q56 -51 92 -105.5 q36 -54.5 56 -111.5 l341 0 l0 -597 q0 -31 -5 -52 q-5 -21 -17 -35 q-12 -14 -33 -22 q-21 -8 -52 -11 q-35 -4 -68.5 -5 q-33.5 -1 -62.5 0 l-18 94 q32 -2 59 -2.5 q27 -0.5 49 -0.5 q22 0 35 2 q13 2 19.5 8.5 q6.5 6.5 8 19.5 q1.5 13 1.5 36 l0 481 l-227 0 q19 -53 41 -100 q22 -47 49 -91 q27 -44 60 -87 q33 -43 74 -88 l-69 -58 q-36 43 -65.5 83 q-29.5 40 -54.5 80 q-25 40 -46 81.5 q-21 41.5 -40 87.5 q-17 -49 -36 -90.5 q-19 -41.5 -45 -81.5 q-26 -40 -61.5 -81 q-35.5 -41 -86.5 -89 l-65 62 Z" /><glyph glyph-name="uni5169" unicode="&#x5169;" d="M458 555 l0 119 l-402 0 l0 79 l887 0 l0 -79 l-403 0 l0 -119 l341 0 l0 -546 q0 -32 -4 -53.5 q-4 -21.5 -13.5 -35.5 q-9.5 -14 -26.5 -21.5 q-17 -7.5 -44 -11.5 q-31 -5 -63.5 -6 q-32.5 -1 -60.5 1 l-17 88 q26 -2 50 -2.5 q24 -0.5 39 -0.5 q20 0 32 2 q12 2 18 7.5 q6 5.5 7.5 16.5 q1.5 11 1.5 31 l0 70 l-58 -28 q-9 35 -24.5 79.5 q-15.5 44.5 -37.5 101.5 q-5 -16 -10 -30.5 q-5 -14.5 -10 -28.5 q-12 -32 -28 -66 q-16 -34 -38 -71 l-54 39 l0 -186 l-82 0 l0 173 l-56 -27 q-9 35 -24 82 q-15 47 -36 104 l-20 -53 q-13 -32 -29 -65.5 q-16 -33.5 -38 -70.5 l-55 39 l0 -205 l-81 0 l0 674 l339 0 ZM327 447 q17 -32 36.5 -76.5 q19.5 -44.5 42.5 -102.5 q32 -83 52 -146 l0 356 l-258 0 l0 -380 q38 61 62 118.5 q24 57.5 40 121.5 q-11 24 -21 45 q-10 21 -18 38 l64 26 ZM665 448 q17 -30 36.5 -72.5 q19.5 -42.5 42.5 -98.5 q37 -92 56 -154 l0 355 l-260 0 l0 -376 q38 61 61.5 119.5 q23.5 58.5 39.5 121.5 q-20 44 -39 79 l63 26 Z" /><glyph glyph-name="uni5176" unicode="&#x5176;" d="M218 194 l0 430 l-145 0 l0 77 l145 0 l0 104 l86 0 l0 -104 l391 0 l0 104 l86 0 l0 -104 l145 0 l0 -77 l-145 0 l0 -430 l176 0 l0 -81 l-915 0 l0 81 l176 0 ZM304 194 l391 0 l0 95 l-391 0 l0 -95 ZM304 533 l391 0 l0 91 l-391 0 l0 -91 ZM304 367 l391 0 l0 90 l-391 0 l0 -90 ZM65 -62 q82 30 157 67 q75 37 155 89 l43 -73 q-72 -46 -150 -86 q-78 -40 -170 -76 l-35 79 ZM609 92 q40 -15 82 -33.5 q42 -18.5 84 -39 q42 -20.5 81.5 -41 q39.5 -20.5 73.5 -40.5 l-42 -73 q-72 42 -151.5 81.5 q-79.5 39.5 -162.5 71.5 l35 74 Z" /><glyph glyph-name="uni518D" unicode="&#x518d;" d="M163 197 l0 378 l294 0 l0 97 l-382 0 l0 77 l852 0 l0 -77 l-384 0 l0 -97 l296 0 l0 -378 l118 0 l0 -82 l-118 0 l0 -114 q-2 -50 -21.5 -77 q-19.5 -27 -76.5 -34 q-13 -2 -31 -3 q-18 -1 -37 -1.5 q-19 -0.5 -36.5 -0.5 q-17.5 0 -29.5 0 l-18 91 q34 -2 60.5 -2.5 q26.5 -0.5 44.5 -0.5 q19 0 31 2 q12 2 18 8 q6 6 8 17.5 q2 11.5 2 32.5 l0 82 l-504 0 l0 -241 l-86 0 l0 241 l-120 0 l0 82 l120 0 ZM543 197 l210 0 l0 116 l-210 0 l0 -116 ZM249 197 l208 0 l0 116 l-208 0 l0 -116 ZM543 499 l0 -108 l210 0 l0 108 l-210 0 ZM249 391 l208 0 l0 108 l-208 0 l0 -108 Z" /><glyph glyph-name="uni51FA" unicode="&#x51fa;" d="M543 811 l0 -359 l228 0 l0 269 l87 0 l0 -354 l-315 0 l0 -383 l257 0 l0 307 l88 0 l0 -394 l-774 0 l0 392 l88 0 l0 -305 l255 0 l0 383 l-314 0 l0 354 l87 0 l0 -269 l227 0 l0 359 l86 0 Z" /><glyph glyph-name="uni5206" unicode="&#x5206;" d="M55 -67 q76 42 122 79 q46 37 71 74 q49 74 61 193 q2 15 2.5 29 q0.5 14 1.5 26 l-144 0 l0 70 q-20 -17 -40 -34 q-20 -17 -42 -34 l-56 68 q109 78 193 181 q84 103 135 217 l83 -30 q-32 -70 -66.5 -126.5 q-34.5 -56.5 -77.5 -108.5 q-51 -62 -113 -118 l593 0 q-3 -80 -5.5 -135.5 q-2.5 -55.5 -5.5 -99.5 q-3 -44 -6.5 -83 q-3.5 -39 -8.5 -86 q-3 -28 -11.5 -48 q-8.5 -20 -24.5 -34 q-16 -14 -41.5 -22.5 q-25.5 -8.5 -62.5 -11.5 q-53 -5 -87 -5.5 q-34 -0.5 -65 1.5 l-18 92 q40 -3 71.5 -4 q31.5 -1 71.5 1 q24 1 39 4 q15 3 24 10 q9 7 13 20 q4 13 6 35 q3 28 5.5 56.5 q2.5 28.5 4.5 61 q2 32.5 3.5 72 q1.5 39.5 3.5 91.5 l-283 0 q0 -13 -1 -27 q-1 -14 -3 -31 q-7 -75 -21 -129.5 q-14 -54.5 -43 -100.5 q-29 -45 -84 -92.5 q-55 -47.5 -136 -94.5 l-58 74 ZM628 818 q26 -69 58 -124.5 q32 -55.5 70 -103.5 q39 -47 92.5 -89.5 q53.5 -42.5 119.5 -84.5 l-51 -85 q-141 93 -226 196 q-83 102 -142 261 l79 30 Z" /><glyph glyph-name="uni5225" unicode="&#x5225;" d="M38 -77 q90 88 113 164 q12 39 20 94.5 q8 55.5 10 127.5 l3 136 l-81 0 l0 315 l406 0 l0 -315 l-243 0 q-1 -30 -2 -60 q-1 -30 -3 -60 l257 0 q-2 -86 -5 -157 q-3 -71 -6 -112 q-4 -43 -10.5 -70 q-6.5 -27 -19.5 -42.5 q-13 -15.5 -34.5 -23 q-21.5 -7.5 -55.5 -11.5 q-26 -4 -57.5 -5 q-31.5 -1 -63.5 0 l-13 79 q25 -2 52 -3.5 q27 -1.5 51 0.5 q22 2 34.5 4.5 q12.5 2.5 19.5 10 q7 7.5 10 21 q3 13.5 5 37.5 q1 13 2 35.5 q1 22.5 2 48.5 q1 26 2 53.5 q1 27.5 1 51.5 l-175 0 q-9 -120 -31 -186 q-28 -84 -124 -189 l-64 56 ZM641 -24 q23 -2 46.5 -3.5 q23.5 -1.5 47.5 0.5 q24 1 38 3.5 q14 2.5 21.5 8.5 q7.5 6 9.5 18 q2 12 2 33 l0 760 l80 0 l0 -776 q0 -33 -4.5 -56 q-4.5 -23 -16.5 -37.5 q-12 -14.5 -34 -22.5 q-22 -8 -58 -12 q-28 -3 -58 -4.5 q-30 -1.5 -59 -0.5 l-15 89 ZM692 712 l0 -591 l-80 0 l0 591 l80 0 ZM185 522 l241 0 l0 161 l-241 0 l0 -161 Z" /><glyph glyph-name="uni5229" unicode="&#x5229;" d="M73 712 q41 1 95.5 5.5 q54.5 4.5 121.5 15.5 q54 8 102.5 19 q48.5 11 98.5 28 l30 -81 q-34 -11 -78.5 -21.5 q-44.5 -10.5 -95.5 -19.5 l0 -139 l195 0 l0 -82 l-195 0 l0 -35 q38 -35 68.5 -64.5 q30.5 -29.5 55 -56 q24.5 -26.5 45.5 -50 q21 -23.5 41 -47.5 l-62 -63 q-32 39 -70 83 q-38 44 -78 85 l0 -416 l-86 0 l0 408 q-35 -63 -77.5 -124.5 q-42.5 -61.5 -94.5 -118.5 l-68 68 q69 72 123.5 154.5 q54.5 82.5 97.5 176.5 l-182 0 l0 82 l201 0 l0 126 q-54 -7 -99 -10.5 q-45 -3.5 -74 -4.5 l-15 82 ZM632 -27 q24 -2 51 -2.5 q27 -0.5 48 -0.5 q30 0 46.5 2.5 q16.5 2.5 24.5 10 q8 7.5 10 22 q2 14.5 2 40.5 l0 754 l86 0 l0 -784 q0 -33 -5.5 -56.5 q-5.5 -23.5 -19.5 -38.5 q-14 -15 -40 -23.5 q-26 -8.5 -68 -12.5 q-11 -1 -26 -2 q-15 -1 -30.5 -2 q-15.5 -1 -30.5 -1 q-15 0 -27 0 l-21 94 ZM681 713 l0 -614 l-87 0 l0 614 l87 0 Z" /><glyph glyph-name="uni5236" unicode="&#x5236;" d="M297 292 l0 102 l-245 0 l0 78 l245 0 l0 116 l-122 0 q-10 -28 -20 -53 q-10 -25 -20 -46 l-75 24 q28 59 51 126.5 q23 67.5 37 131.5 l79 -12 q-13 -49 -27 -95 l97 0 l0 138 l81 0 l0 -138 l198 0 l0 -76 l-198 0 l0 -116 l219 0 l0 -78 l-219 0 l0 -102 l189 0 l0 -257 q0 -45 -15.5 -66 q-15.5 -21 -60.5 -26 q-26 -3 -42 -3.5 q-16 -0.5 -34 -0.5 l-14 80 q12 -1 27 -2 q15 -1 29 -1 q21 0 27.5 5.5 q6.5 5.5 6.5 27.5 l0 163 l-113 0 l0 -352 l-81 0 l0 352 l-116 0 l0 -282 l-76 0 l0 362 l192 0 ZM666 -32 q26 -2 52 -2.5 q26 -0.5 46 -0.5 q23 0 36 2 q13 2 19 8 q6 6 7.5 18.5 q1.5 12.5 1.5 34.5 l0 762 l80 0 l0 -770 q0 -36 -4 -60.5 q-4 -24.5 -16.5 -40.5 q-12.5 -16 -35 -24 q-22.5 -8 -59.5 -12 q-27 -3 -57 -4.5 q-30 -1.5 -55 -0.5 l-15 90 ZM733 706 l0 -616 l-81 0 l0 616 l81 0 Z" /><glyph glyph-name="uni524D" unicode="&#x524d;" d="M485 522 l0 -529 q0 -53 -17.5 -77 q-17.5 -24 -65.5 -30 q-23 -3 -50 -4 q-27 -1 -49 0 l-16 81 q44 -5 74 -3 q13 0 21.5 1.5 q8.5 1.5 13 6 q4.5 4.5 6 13 q1.5 8.5 1.5 22.5 l0 90 l-202 0 l0 -215 l-82 0 l0 644 l366 0 ZM314 830 q16 -23 38 -66 q8 -14 16.5 -31 q8.5 -17 14.5 -30 l-46 -20 l244 0 q27 35 52 73.5 q25 38.5 40 67.5 l81 -41 q-11 -17 -25.5 -37.5 q-14.5 -20.5 -33.5 -46.5 l-12 -16 l263 0 l0 -79 l-899 0 l0 79 l249 0 q-5 11 -10.5 22.5 q-5.5 11.5 -11.5 22.5 q-11 21 -20 37.5 q-9 16.5 -17 28.5 l77 36 ZM617 -28 q29 -2 56.5 -3 q27.5 -1 47.5 0 q20 1 31.5 3 q11.5 2 17.5 8 q6 6 7.5 17 q1.5 11 1.5 31 l0 515 l84 0 l0 -546 q-2 -50 -21.5 -76.5 q-19.5 -26.5 -76.5 -33.5 q-11 -2 -27.5 -3 q-16.5 -1 -34.5 -2 q-18 -1 -36.5 -1 q-18.5 0 -31.5 1 l-18 90 ZM664 502 l0 -443 l-78 0 l0 443 l78 0 ZM201 173 l202 0 l0 97 l-202 0 l0 -97 ZM201 348 l202 0 l0 96 l-202 0 l0 -96 Z" /><glyph glyph-name="uni5275" unicode="&#x5275;" d="M21 526 q103 63 177.5 134 q74.5 71 123.5 156 l82 -22 q-10 -17 -19 -31 q23 -13 51.5 -29.5 q28.5 -16.5 60.5 -37.5 q43 -28 78.5 -52.5 q35.5 -24.5 58.5 -44.5 l-48 -68 q-47 42 -132 102 q-63 45 -108 72 q-69 -92 -164 -167 l159 0 q-9 22 -21.5 45.5 q-12.5 23.5 -26.5 46.5 l61 28 q14 -23 29 -51 q15 -28 26 -54 l-37 -15 l186 0 l0 -310 l-341 0 q-2 -17 -4 -32.5 q-2 -15.5 -4 -31.5 l359 0 l0 -253 l-371 0 l0 196 q-15 -57 -40 -109.5 q-25 -52.5 -63 -104.5 l-72 48 q36 50 59.5 92.5 q23.5 42.5 37.5 90 q14 47.5 19.5 107 q5.5 59.5 5.5 142.5 l0 135 q-19 -14 -39 -27 q-20 -13 -40 -26 l-44 71 ZM665 -22 q29 -2 51.5 -3 q22.5 -1 50.5 0 q19 0 30.5 3 q11.5 3 17.5 10 q6 7 8 19.5 q2 12.5 2 32.5 l0 752 l79 0 l0 -770 q0 -33 -3.5 -56.5 q-3.5 -23.5 -15.5 -39.5 q-12 -16 -34.5 -25 q-22.5 -9 -60.5 -13 q-27 -3 -56 -4 q-29 -1 -52 -1 l-17 95 ZM734 701 l0 -597 l-77 0 l0 597 l77 0 ZM275 -19 l215 0 l0 114 l-215 0 l0 -114 ZM222 331 q0 -9 0 -18 q0 -9 -1 -17 l259 0 l0 56 l-258 0 l0 -21 ZM222 416 l258 0 l0 56 l-258 0 l0 -56 Z" /><glyph glyph-name="uni5289" unicode="&#x5289;" d="M39 299 q45 18 89.5 40.5 q44.5 22.5 85 47.5 q40.5 25 75.5 50.5 q35 25.5 60 49.5 l65 -33 l-11 -12 q61 -26 121.5 -56 q60.5 -30 114.5 -60 l-33 -59 q-18 11 -37 21 q-19 10 -39 21 l0 -62 l-141 0 l0 -51 l214 0 l0 -65 l-82 0 l51 -27 q-16 -26 -34.5 -53.5 q-18.5 -27.5 -38.5 -53.5 q76 6 135 15 l3 -68 q-108 -15 -288 -27 q-90 -7 -160.5 -10 q-70.5 -3 -124.5 -3 l-7 72 q50 -1 114 1.5 q64 2.5 144 7.5 l0 146 l-219 0 l0 65 l219 0 l0 51 l-113 0 l0 48 q-62 -33 -130 -62 l-33 66 ZM77 494 q12 10 16.5 17.5 q4.5 7.5 4.5 17.5 l0 209 q51 9 111.5 27 q60.5 18 111.5 36 l24 -65 q-20 -8 -42.5 -15.5 q-22.5 -7.5 -48.5 -15.5 q-25 -8 -46.5 -14 q-21.5 -6 -38.5 -11 l0 -149 q25 11 47 21 q22 10 48 24 q-22 42 -37 68 l60 33 q9 -13 20 -31.5 q11 -18.5 23 -41.5 q9 -18 17 -33.5 q8 -15.5 13 -28.5 q19 35 26.5 69.5 q7.5 34.5 9.5 76.5 l-49 0 l0 66 l274 0 q0 -35 -1 -63 q-1 -28 -2 -53.5 q-1 -25.5 -3 -49 q-2 -23.5 -4 -47.5 q-2 -23 -7 -37.5 q-5 -14.5 -14.5 -23.5 q-9.5 -9 -24 -13.5 q-14.5 -4.5 -36.5 -7.5 q-20 -3 -37 -3.5 q-17 -0.5 -36 0.5 l-13 73 q27 -3 55 -3 q14 0 22.5 1 q8.5 1 13 5.5 q4.5 4.5 6 12.5 q1.5 8 3.5 22 q3 26 4.5 54.5 q1.5 28.5 2.5 66.5 l-88 0 q-1 -29 -4 -56 q-3 -27 -10.5 -53.5 q-7.5 -26.5 -19.5 -52.5 q-12 -26 -31 -53 l-62 31 l9 13 l-39 -22 l-10 22 q-39 -21 -88 -43.5 q-49 -22.5 -104 -43.5 l-26 64 ZM682 -35 q17 -2 42 -3 q25 -1 42 0 q24 0 38 2 q14 2 21.5 8.5 q7.5 6.5 9.5 19 q2 12.5 2 33.5 l0 765 l72 0 l0 -772 q0 -35 -3.5 -58 q-3.5 -23 -15 -37.5 q-11.5 -14.5 -34 -22.5 q-22.5 -8 -60.5 -12 q-25 -3 -52.5 -4 q-27.5 -1 -47.5 -1 l-14 82 ZM741 707 l0 -596 l-72 0 l0 596 l72 0 ZM522 313 q-42 21 -84 41.5 q-42 20.5 -86 40.5 q-26 -22 -56 -42 q-30 -20 -63 -40 l289 0 ZM436 28 q18 21 36 47 q18 26 35 56 l-118 0 l0 -142 q27 2 52.5 3.5 q25.5 1.5 48.5 3.5 l-54 32 ZM189 130 q25 -29 43 -53 q18 -24 35 -51 l-58 -41 q-32 49 -78 104 l58 41 Z" /><glyph glyph-name="uni529B" unicode="&#x529b;" d="M41 -65 q63 45 111 84.5 q48 39.5 83 79 q35 39.5 58.5 81.5 q23.5 42 39 92 q15.5 50 23.5 110 q8 60 13 136 l-294 0 l0 92 l298 0 q2 49 2 100 q0 51 1 98 l90 0 q0 -41 -0.5 -95.5 q-0.5 -54.5 -2.5 -102.5 l412 0 q-3 -160 -8 -306 q-5 -146 -14 -257 q-3 -39 -12 -66 q-9 -27 -25.5 -45 q-16.5 -18 -41.5 -27.5 q-25 -9.5 -61 -12.5 q-42 -5 -89 -6.5 q-47 -1.5 -89 0.5 l-20 98 q42 -3 83 -4 q41 -1 86 1 q25 1 40 5 q15 4 24 15 q9 11 12.5 31 q3.5 20 6.5 54 q3 43 5.5 94.5 q2.5 51.5 4.5 107.5 q2 56 3 113.5 q1 57.5 2 112.5 l-323 0 q-5 -87 -15 -156 q-10 -69 -27 -126 q-17 -57 -43 -104.5 q-26 -47.5 -63 -91.5 q-37 -44 -88 -87.5 q-51 -43.5 -118 -92.5 l-64 75 Z" /><glyph glyph-name="uni529F" unicode="&#x529f;" d="M287 -78 q46 44 81 83.5 q35 39.5 60.5 80 q25.5 40.5 43 84 q17.5 43.5 28.5 95.5 q11 52 17 114.5 q6 62.5 9 141.5 l-115 0 l0 87 l117 0 q2 54 2.5 106.5 q0.5 52.5 -0.5 94.5 l86 0 q1 -52 0.5 -102 q-0.5 -50 -2.5 -99 l282 0 q-2 -186 -7.5 -326 q-5.5 -140 -13.5 -240 q-3 -38 -9.5 -63 q-6.5 -25 -20.5 -40 q-14 -15 -37 -23 q-23 -8 -57 -11 q-29 -3 -63.5 -4 q-34.5 -1 -79.5 -1 l-18 95 q20 -2 36.5 -3 q16.5 -1 32.5 -1.5 q16 -0.5 33 0 q17 0.5 37 0.5 q19 1 30.5 4 q11.5 3 18 13 q6.5 10 9.5 28.5 q3 18.5 5 50.5 q6 107 9.5 216 q3.5 109 5.5 220 l-2 -2 l-194 0 q-4 -87 -10.5 -157.5 q-6.5 -70.5 -19 -129 q-12.5 -58.5 -31 -107 q-18.5 -48.5 -45.5 -93 q-27 -44.5 -63.5 -87 q-36.5 -42.5 -83.5 -87.5 l-71 62 ZM33 122 q67 11 158 34 l0 453 l-135 0 l0 83 l346 0 l0 -83 l-124 0 l0 -429 q85 25 147 48 l17 -91 q-34 -12 -84 -27.5 q-50 -15.5 -104.5 -30 q-54.5 -14.5 -107.5 -27.5 q-53 -13 -93 -20 l-20 90 Z" /><glyph glyph-name="uni52DD" unicode="&#x52dd;" d="M549 466 q8 17 15 36 q7 19 13 40 l-185 0 l0 68 l203 0 l13 72 q12 70 18 126 l74 -3 q-3 -27 -7 -57 q-4 -30 -9 -64 l-12 -74 l250 0 l0 -68 l-267 0 q-11 -42 -25 -76 l315 0 l0 -67 l-160 0 q32 -47 77.5 -85.5 q45.5 -38.5 110.5 -73.5 l-46 -65 q-23 13 -43 27.5 q-20 14.5 -39 29.5 q-2 -53 -4.5 -107 q-2.5 -54 -7.5 -106 q-2 -33 -8 -55 q-6 -22 -18 -35.5 q-12 -13.5 -32 -20 q-20 -6.5 -50 -9.5 q-22 -2 -51.5 -3 q-29.5 -1 -55.5 -2 l-15 83 q24 -2 53.5 -3 q29.5 -1 48.5 0 q16 0 26 3 q10 3 15.5 11 q5.5 8 8.5 24.5 q3 16.5 5 43.5 q0 4 1 15 q1 11 1.5 25.5 q0.5 14.5 1.5 32 q1 17.5 2 34.5 l-128 0 q-17 -88 -57 -146 q-26 -38 -69.5 -71.5 q-43.5 -33.5 -107.5 -73.5 l-49 63 q107 57 156 115 q37 45 54 113 l-120 0 l0 57 q-13 -11 -27 -21.5 q-14 -10.5 -29 -21.5 l-42 52 l0 -242 q0 -22 -2.5 -38.5 q-2.5 -16.5 -11 -28.5 q-8.5 -12 -23.5 -20 q-15 -8 -40 -11 q-15 -2 -33.5 -3 q-18.5 -1 -39.5 -1 l-17 83 q16 -2 30.5 -3 q14.5 -1 30.5 0 q22 1 27.5 7.5 q5.5 6.5 5.5 34.5 l0 192 l-101 0 q-2 -50 -7 -91 q-5 -41 -11 -74 q-8 -46 -23 -85 q-15 -39 -35 -81 l-69 30 q22 45 36.5 91 q14.5 46 22.5 90 q15 87 15 306 l0 371 l245 0 l0 -513 q54 38 92.5 73.5 q38.5 35.5 63.5 69.5 l9 13 l-140 0 l0 67 l177 0 ZM844 233 q-45 37 -80 79 q-35 42 -61 87 l-104 0 q-6 -12 -13 -23 q-7 -11 -14 -22 q-21 -31 -48 -60 q-27 -29 -64 -61 l116 0 l10 114 l72 -2 q-2 -29 -4 -56.5 q-2 -27.5 -5 -55.5 l195 0 ZM175 278 l99 0 l0 162 l-99 0 l0 -162 ZM175 517 l99 0 l0 161 l-99 0 l0 -161 ZM739 654 q9 9 24 27.5 q15 18.5 30 38.5 q15 20 28 38.5 q13 18.5 19 28.5 l55 -38 q-5 -8 -17.5 -26.5 q-12.5 -18.5 -28 -39.5 q-15.5 -21 -31 -40 q-15.5 -19 -25.5 -29 l-54 40 ZM464 786 q11 -11 23.5 -26.5 q12.5 -15.5 28.5 -35.5 q16 -20 28 -35.5 q12 -15.5 20 -28.5 l-54 -43 q-8 14 -19.5 30.5 q-11.5 16.5 -27.5 36.5 q-16 20 -28.5 35.5 q-12.5 15.5 -22.5 26.5 l52 40 Z" /><glyph glyph-name="uni5316" unicode="&#x5316;" d="M590 803 l0 -388 q72 61 140 127 q68 66 131 138 l68 -62 q-78 -87 -161.5 -167.5 q-83.5 -80.5 -177.5 -155.5 l0 -217 q0 -26 2.5 -41.5 q2.5 -15.5 9 -24.5 q6.5 -9 17 -13 q10.5 -4 26.5 -5 q15 -1 32.5 -1.5 q17.5 -0.5 36 -0.5 q18.5 0 35.5 0.5 q17 0.5 30 1.5 q22 2 35.5 5.5 q13.5 3.5 21 12.5 q7.5 9 11 25 q3.5 16 6.5 43 q2 20 2.5 44.5 q0.5 24.5 2.5 65.5 l88 -28 q-1 -20 -2 -35.5 q-1 -15.5 -2 -29 q-1 -13.5 -2.5 -26 q-1.5 -12.5 -2.5 -26.5 q-9 -66 -35 -98 q-26 -32 -78 -37 q-22 -2 -48 -3 q-26 -1 -52 -1.5 q-26 -0.5 -51.5 0 q-25.5 0.5 -46.5 1.5 q-38 2 -62 10 q-24 8 -37.5 25.5 q-13.5 17.5 -18.5 46.5 q-5 29 -5 74 l0 165 q-40 -29 -81 -57 q-41 -28 -83 -54 l-49 81 q108 67 213 147 l0 458 l87 0 ZM28 305 q38 54 77 117 q39 63 74 129 q35 66 64 131.5 q29 65.5 51 129.5 l86 -22 q-23 -67 -48.5 -127 q-25.5 -60 -52.5 -117 l0 -672 l-89 0 l0 511 q-44 -72 -91 -136 l-71 56 Z" /><glyph glyph-name="uni5317" unicode="&#x5317;" d="M650 805 l0 -328 q20 12 42 25.5 q22 13.5 47 30.5 q48 32 85.5 59.5 q37.5 27.5 63.5 50.5 l55 -74 q-28 -23 -67.5 -52.5 q-39.5 -29.5 -90.5 -61.5 q-40 -26 -73 -46.5 q-33 -20.5 -62 -35.5 l0 -290 q0 -27 2 -43 q2 -16 8 -24.5 q6 -8.5 17.5 -12 q11.5 -3.5 30.5 -4.5 q48 -5 89 0 q16 2 26.5 5.5 q10.5 3.5 16.5 12.5 q6 9 9 24.5 q3 15.5 6 41.5 q2 20 4 43.5 q2 23.5 4 67.5 l88 -28 q-2 -38 -5 -70 q-3 -32 -6 -57 q-5 -35 -12.5 -57.5 q-7.5 -22.5 -20.5 -37 q-13 -14.5 -31.5 -21.5 q-18.5 -7 -44.5 -10 q-33 -3 -77 -3.5 q-44 -0.5 -86 1.5 q-32 2 -53 10 q-21 8 -33 24.5 q-12 16.5 -17 44.5 q-5 28 -5 71 l0 744 l90 0 ZM406 807 l0 -926 l-90 0 l0 185 q-29 -15 -61 -30 q-32 -15 -64 -29.5 q-32 -14.5 -62 -26.5 q-30 -12 -54 -21 l-33 88 q63 23 132.5 54.5 q69.5 31.5 141.5 70.5 l0 292 l-248 0 l0 89 l248 0 l0 254 l90 0 Z" /><glyph glyph-name="uni533F" unicode="&#x533f;" d="M943 768 l0 -76 l-745 0 l0 -498 q63 40 116 84.5 q53 44.5 95 96.5 l-162 0 l0 66 l209 0 q23 36 41 74 l75 -18 q-6 -14 -12.5 -28 q-6.5 -14 -13.5 -28 l382 0 l0 -66 l-422 0 q-14 -20 -28 -39 q-14 -19 -31 -37 l388 0 l0 -227 l-471 0 l0 145 q-28 -24 -58.5 -46.5 q-30.5 -22.5 -63.5 -45.5 l-44 67 l0 -203 l758 0 l0 -77 l-843 0 l0 856 l830 0 ZM395 603 l0 70 l77 0 l0 -70 l208 0 l0 70 l78 0 l0 -70 l167 0 l0 -65 l-167 0 l0 -57 l-78 0 l0 57 l-208 0 l0 -58 l-77 0 l0 58 l-151 0 l0 65 l151 0 ZM445 137 l309 0 l0 96 l-309 0 l0 -96 Z" /><glyph glyph-name="uni5348" unicode="&#x5348;" d="M69 433 q28 39 59 87 q31 48 60 100 q29 52 54 104.5 q25 52.5 42 102.5 l90 -20 q-12 -33 -25 -64.5 q-13 -31.5 -27 -61.5 l565 0 l0 -86 l-323 0 l0 -255 l383 0 l0 -90 l-383 0 l0 -377 l-94 0 l0 377 l-416 0 l0 90 l416 0 l0 255 l-189 0 q-34 -65 -68.5 -118 q-34.5 -53 -66.5 -92 l-77 48 Z" /><glyph glyph-name="uni534A" unicode="&#x534a;" d="M459 443 l0 365 l84 0 l0 -365 l362 0 l0 -82 l-362 0 l0 -148 l404 0 l0 -85 l-404 0 l0 -252 l-84 0 l0 252 l-406 0 l0 85 l406 0 l0 148 l-363 0 l0 82 l363 0 ZM185 763 q42 -36 104 -107 q31 -35 54 -63.5 q23 -28.5 39 -51.5 l-70 -59 q-15 23 -37 51.5 q-22 28.5 -52 63.5 q-30 35 -54 61 q-24 26 -44 45 l60 60 ZM615 536 q41 34 101 106 q30 36 51.5 64.5 q21.5 28.5 37.5 52.5 l70 -53 q-16 -23 -39 -53 q-23 -30 -54 -65 q-15 -18 -27.5 -31.5 q-12.5 -13.5 -24.5 -26.5 q-12 -13 -25 -25.5 q-13 -12.5 -29 -27.5 l-61 59 Z" /><glyph glyph-name="uni5373" unicode="&#x5373;" d="M361 266 q18 -22 40 -53.5 q22 -31.5 48 -73.5 q26 -42 46 -75 q20 -33 33 -59 l-71 -44 q-20 37 -51 93 q-36 -17 -76 -35.5 q-40 -18.5 -80.5 -36 q-40.5 -17.5 -78 -33.5 q-37.5 -16 -68.5 -28 l-33 70 q19 9 26 26.5 q7 17.5 7 35.5 l0 706 l372 0 l0 -468 l-293 0 l0 -255 q38 16 88 40.5 q50 24.5 94 48.5 q-20 32 -37 56.5 q-17 24.5 -31 44.5 l65 40 ZM902 740 l0 -596 q-2 -50 -21.5 -76.5 q-19.5 -26.5 -76.5 -34.5 q-26 -3 -54.5 -4.5 q-28.5 -1.5 -51.5 -0.5 l-18 90 q21 -1 40 -1.5 q19 -0.5 37 -0.5 q19 0 30.5 2 q11.5 2 17.5 8 q6 6 8 18 q2 12 2 33 l0 478 l-174 0 l0 -781 l-79 0 l0 866 l340 0 ZM182 561 l213 0 l0 122 l-213 0 l0 -122 ZM395 369 l0 120 l-213 0 l0 -120 l213 0 Z" /><glyph glyph-name="uni53BB" unicode="&#x53bb;" d="M457 375 l0 197 l-343 0 l0 82 l343 0 l0 160 l85 0 l0 -160 l341 0 l0 -82 l-341 0 l0 -197 l408 0 l0 -87 l-454 0 q-40 -59 -101 -134 q-80 -98 -141 -156 q69 1 139.5 3.5 q70.5 2.5 144.5 7.5 q109 7 192 15 q-3 4 -6.5 7.5 q-3.5 3.5 -6.5 8.5 q-20 25 -36 45 q-16 20 -31 38 q-15 18 -29.5 35.5 q-14.5 17.5 -31.5 37.5 l57 52 q55 -52 137 -152 q42 -51 73 -91.5 q31 -40.5 52 -73.5 l-76 -50 q-19 31 -40 61 q-64 -5 -143 -9 q-79 -4 -177 -9 q-112 -6 -201.5 -10 q-89.5 -4 -156.5 -6 l-16 89 q20 5 40 15 q20 10 31 20 q23 20 54 55 q31 35 73 85 q24 29 46.5 58.5 q22.5 29.5 42.5 57.5 l-338 0 l0 87 l410 0 Z" /><glyph glyph-name="uni53C8" unicode="&#x53c8;" d="M28 -39 q138 54 234 107 q96 53 167 110 q-41 45 -76 96 q-35 51 -66 110 q-31 59 -59.5 127 q-28.5 68 -55.5 147 l-86 0 l0 88 l748 0 l0 -80 q-21 -78 -47.5 -146 q-26.5 -68 -59.5 -128.5 q-33 -60.5 -73 -114 q-40 -53.5 -89 -102.5 q75 -63 173 -113.5 q98 -50.5 229 -98.5 l-50 -96 q-137 57 -239.5 115 q-102.5 58 -182.5 130 q-79 -66 -179 -125.5 q-100 -59.5 -232 -114.5 l-56 89 ZM266 658 q47 -137 102 -239 q55 -102 129 -180 q88 86 145.5 189 q57.5 103 92.5 230 l-469 0 Z" /><glyph glyph-name="uni53CD" unicode="&#x53cd;" d="M195 -48 q100 33 176.5 70.5 q76.5 37.5 138.5 79.5 q-63 62 -119 143 q-56 81 -107 181 l-24 0 q-2 -104 -8.5 -183 q-6.5 -79 -20.5 -134 q-29 -113 -116 -246 l-81 52 q45 65 72.5 122 q27.5 57 40.5 107 q25 97 25 304 l0 265 q75 2 161.5 8 q86.5 6 185.5 14 q199 17 362 42 l18 -87 q-78 -11 -158.5 -20.5 q-80.5 -9.5 -165.5 -17.5 q-170 -15 -315 -21 l0 -118 l603 0 l0 -85 q-43 -106 -95 -187.5 q-52 -81.5 -115 -141.5 q127 -89 311 -141 l-42 -96 q-103 38 -188 82 q-85 44 -152 95 q-66 -48 -152.5 -91.5 q-86.5 -43.5 -195.5 -85.5 l-39 90 ZM379 426 q40 -78 90 -145 q50 -67 112 -124 q58 52 103 118.5 q45 66.5 77 150.5 l-382 0 Z" /><glyph glyph-name="uni53D6" unicode="&#x53d6;" d="M525 765 l0 -80 l-63 0 l0 -541 q21 5 41 9.5 q20 4.5 38 9.5 l10 -86 q-20 -5 -42 -11 q-22 -6 -47 -11 l0 -187 l-81 0 l0 171 q-44 -9 -90 -16.5 q-46 -7.5 -89.5 -14.5 q-43.5 -7 -82.5 -12 q-39 -5 -69 -8 l-11 85 q20 2 42.5 4.5 q22.5 2.5 46.5 5.5 l0 602 l-62 0 l0 80 l459 0 ZM468 -43 q134 109 207 221 q-4 6 -7 12.5 q-3 6.5 -6 13.5 q-38 78 -64 188 q-26 110 -43 243 l-20 0 l0 83 l374 0 l-1 -83 q-40 -254 -117 -418 l-19 -38 q36 -56 86 -109.5 q50 -53.5 116 -106.5 l-57 -75 q-122 106 -194 212 q-74 -106 -199 -215 l-56 72 ZM635 635 q13 -109 34.5 -202 q21.5 -93 53.5 -165 q32 73 57.5 164 q25.5 91 43.5 203 l-189 0 ZM210 96 q42 7 85.5 15 q43.5 8 85.5 16 l0 133 l-171 0 l0 -164 ZM210 549 l171 0 l0 136 l-171 0 l0 -136 ZM210 339 l171 0 l0 133 l-171 0 l0 -133 Z" /><glyph glyph-name="uni53E3" unicode="&#x53e3;" d="M861 716 l0 -781 l-723 0 l0 781 l723 0 ZM228 28 l543 0 l0 595 l-543 0 l0 -595 Z" /><glyph glyph-name="uni53EA" unicode="&#x53ea;" d="M840 750 l0 -485 l-682 0 l0 485 l682 0 ZM246 352 l506 0 l0 314 l-506 0 l0 -314 ZM39 -57 q38 25 81 60 q43 35 83.5 72.5 q40.5 37.5 75 73.5 q34.5 36 56.5 63 l70 -57 q-29 -36 -64 -74.5 q-35 -38.5 -74.5 -76 q-39.5 -37.5 -81 -72 q-41.5 -34.5 -82.5 -63.5 l-64 74 ZM653 213 q33 -24 74.5 -59 q41.5 -35 83.5 -73.5 q42 -38.5 79.5 -75.5 q37.5 -37 60.5 -64 l-69 -69 q-26 33 -64.5 72.5 q-38.5 39.5 -79 78 q-40.5 38.5 -79.5 71.5 q-39 33 -66 54 l60 65 Z" /><glyph glyph-name="uni53EB" unicode="&#x53eb;" d="M411 725 l0 -702 l-307 0 l0 702 l307 0 ZM483 175 q17 8 23 19.5 q6 11.5 6 31.5 l0 486 l84 0 l0 -497 q55 19 100.5 37.5 q45.5 18.5 96.5 42.5 l0 506 l83 0 l0 -926 l-83 0 l0 324 q-32 -14 -72 -30.5 q-40 -16.5 -79 -32 q-39 -15.5 -74 -28.5 q-35 -13 -58 -20 l-27 87 ZM186 109 l143 0 l0 536 l-143 0 l0 -536 Z" /><glyph glyph-name="uni53EF" unicode="&#x53ef;" d="M576 523 l0 -437 l-417 0 l0 437 l417 0 ZM540 -23 q17 -2 36 -2.5 q19 -0.5 38 -1 q19 -0.5 35.5 0 q16.5 0.5 28.5 0.5 q21 1 33.5 4 q12.5 3 18.5 9.5 q6 6.5 8 19 q2 12.5 2 32.5 l0 627 l-695 0 l0 83 l913 0 l0 -83 l-134 0 l0 -626 q0 -38 -4.5 -65 q-4.5 -27 -18 -45 q-13.5 -18 -38 -28.5 q-24.5 -10.5 -65.5 -14.5 q-14 -1 -33.5 -2 q-19.5 -1 -39 -1.5 q-19.5 -0.5 -37.5 -1 q-18 -0.5 -30 -0.5 l-18 95 ZM241 171 l253 0 l0 272 l-253 0 l0 -272 Z" /><glyph glyph-name="uni53F0" unicode="&#x53f0;" d="M835 310 l0 -413 l-673 0 l0 413 l673 0 ZM650 719 q29 -24 65 -58.5 q36 -34.5 79 -80.5 q89 -93 132 -151 l-62 -60 q-12 16 -26 33.5 q-14 17.5 -31 37.5 q-183 -13 -362 -20 q-179 -7 -359 -9 l-14 86 q33 1 50.5 9.5 q17.5 8.5 32.5 20.5 q57 42 142 135 q86 93 131 162 l79 -42 q-26 -35 -56.5 -72.5 q-30.5 -37.5 -67.5 -79.5 q-37 -42 -70 -74.5 q-33 -32.5 -64 -58.5 q139 0 291 9 q56 3 104.5 6 q48.5 3 90.5 7 l-2 3 q-43 47 -78 82 q-35 35 -64 58 l59 57 ZM250 -17 l497 0 l0 239 l-497 0 l0 -239 Z" /><glyph glyph-name="uni53F2" unicode="&#x53f2;" d="M459 671 l0 135 l86 0 l0 -135 l331 0 l0 -370 l-331 0 l0 -3 q0 -141 -55 -228 q10 -7 25 -13 q73 -35 182.5 -56 q109.5 -21 253.5 -30 l-25 -92 q-293 27 -452 101 q-12 5 -23.5 10.5 q-11.5 5.5 -23.5 12.5 q-51 -37 -136 -72.5 q-85 -35.5 -210 -68.5 l-35 87 q109 24 184.5 50 q75.5 26 120.5 56 q-92 70 -177 183 l68 56 q81 -108 172 -176 q45 70 45 180 l0 3 l-336 0 l0 370 l336 0 ZM210 385 l249 0 l0 205 l-249 0 l0 -205 ZM545 590 l0 -205 l246 0 l0 205 l-246 0 Z" /><glyph glyph-name="uni53F3" unicode="&#x53f3;" d="M406 675 q13 32 23.5 65.5 q10.5 33.5 20.5 70.5 l97 -12 q-16 -64 -36 -124 l437 0 l0 -86 l-471 0 q-23 -54 -51 -103 q-28 -49 -63 -97 l496 0 l0 -474 l-613 0 l0 335 q-37 -38 -78.5 -76.5 q-41.5 -38.5 -89.5 -79.5 l-65 81 q65 53 118.5 103.5 q53.5 50.5 97 101 q43.5 50.5 78 102 q34.5 51.5 62.5 107.5 l-302 0 l0 86 l339 0 ZM334 2 l436 0 l0 297 l-436 0 l0 -297 Z" /><glyph glyph-name="uni5403" unicode="&#x5403;" d="M376 721 l0 -221 q58 70 101.5 148.5 q43.5 78.5 81.5 171.5 l92 -21 q-14 -32 -26.5 -61.5 q-12.5 -29.5 -26.5 -56.5 l345 0 l0 -83 l-390 0 q-20 -34 -40.5 -65.5 q-20.5 -31.5 -43.5 -62.5 l373 0 l0 -81 q-80 -74 -137.5 -134 q-57.5 -60 -94.5 -105.5 q-37 -45.5 -54.5 -77 q-17.5 -31.5 -17.5 -48.5 q0 -18 8.5 -26 q8.5 -8 40.5 -10 q19 -2 43.5 -2.5 q24.5 -0.5 50 -0.5 q25.5 0 51 0.5 q25.5 0.5 47.5 2.5 q20 1 32.5 4.5 q12.5 3.5 20 10.5 q7.5 7 11 19 q3.5 12 6.5 32 q3 21 4 42.5 q1 21.5 3 51.5 l85 -22 q-2 -35 -5 -62 q-3 -27 -7 -51 q-5 -30 -13.5 -50 q-8.5 -20 -24.5 -32.5 q-16 -12.5 -41 -19 q-25 -6.5 -61 -8.5 q-92 -6 -213 0 q-76 4 -106 28.5 q-30 24.5 -30 77.5 q0 58 79 161 q40 51 91.5 105.5 q51.5 54.5 114.5 113.5 l-260 0 l0 75 l-29 -36 l-60 48 l0 -446 l-279 0 l0 691 l279 0 ZM179 118 l116 0 l0 520 l-116 0 l0 -520 Z" /><glyph glyph-name="uni5408" unicode="&#x5408;" d="M824 301 l0 -395 l-653 0 l0 395 l653 0 ZM29 461 q69 32 132 71 q63 39 121 85 q114 92 178 191 l77 0 q69 -109 180 -195.5 q111 -86.5 250 -149.5 l-45 -84 q-95 48 -173 99 l0 -59 l-504 0 l0 57 q-78 -51 -168 -96 l-48 81 ZM261 -13 l475 0 l0 231 l-475 0 l0 -231 ZM499 710 q-82 -111 -220 -210 l439 0 q-66 47 -121 98.5 q-55 51.5 -98 111.5 Z" /><glyph glyph-name="uni5409" unicode="&#x5409;" d="M829 262 l0 -368 l-660 0 l0 368 l660 0 ZM454 453 l0 139 l-394 0 l0 80 l394 0 l0 135 l91 0 l0 -135 l393 0 l0 -80 l-393 0 l0 -139 l337 0 l0 -81 l-766 0 l0 81 l338 0 ZM259 -22 l480 0 l0 198 l-480 0 l0 -198 Z" /><glyph glyph-name="uni540C" unicode="&#x540c;" d="M890 755 l0 -745 q0 -32 -5 -53.5 q-5 -21.5 -16.5 -36 q-11.5 -14.5 -31 -22 q-19.5 -7.5 -49.5 -11.5 q-33 -4 -68 -5.5 q-35 -1.5 -62 -0.5 l-17 97 q20 -2 49 -3 q29 -1 51 0 q19 0 31 2 q12 2 19 8 q7 6 9 17 q2 11 2 29 l0 642 l-617 0 l0 -795 l-85 0 l0 877 l790 0 ZM688 383 l0 -338 l-389 0 l0 338 l389 0 ZM378 121 l231 0 l0 186 l-231 0 l0 -186 ZM745 560 l0 -74 l-503 0 l0 74 l503 0 Z" /><glyph glyph-name="uni540D" unicode="&#x540d;" d="M80 496 q103 62 200 153 q50 46 88.5 88 q38.5 42 67.5 82 l72 -41 q-13 -19 -26 -37 q-13 -18 -27 -35 l416 0 l0 -78 q-136 -158 -325 -276 q-17 -11 -35 -21 q-18 -10 -36 -20 l394 0 l0 -404 l-629 0 l0 299 q-39 -14 -80 -27 q-41 -13 -85 -25 l-35 84 q131 38 235.5 80 q104.5 42 191.5 90 q172 97 287 218 l-369 0 q-12 -13 -24.5 -25 q-12.5 -12 -26.5 -24 q12 -8 25 -17.5 q13 -9.5 28 -20.5 q29 -22 51 -40 q22 -18 38 -32 l-60 -63 q-31 28 -86 71 q-17 14 -32 25.5 q-15 11.5 -29 20.5 q-31 -25 -64 -48.5 q-33 -23.5 -69 -46.5 l-56 70 ZM325 -13 l460 0 l0 239 l-460 0 l0 -239 Z" /><glyph glyph-name="uni5426" unicode="&#x5426;" d="M830 293 l0 -379 l-659 0 l0 379 l659 0 ZM908 755 l0 -80 l-309 0 q-14 -16 -28 -31.5 q-14 -15.5 -28 -29.5 l0 -289 l-87 0 l0 211 q-73 -59 -161 -110.5 q-88 -51.5 -197 -99.5 l-47 82 q140 56 246 122.5 q106 66.5 185 144.5 l-390 0 l0 80 l816 0 ZM257 -7 l486 0 l0 216 l-486 0 l0 -216 ZM613 593 q39 -19 81.5 -40.5 q42.5 -21.5 86.5 -45 q44 -23.5 86.5 -47.5 q42.5 -24 81.5 -48 l-41 -75 q-39 24 -81.5 49 q-42.5 25 -86 49.5 q-43.5 24.5 -86.5 46.5 q-43 22 -81 40 l40 71 Z" /><glyph glyph-name="uni5427" unicode="&#x5427;" d="M890 752 l0 -444 l-402 0 l0 -237 q0 -27 1 -43.5 q1 -16.5 7 -25.5 q6 -9 19 -12.5 q13 -3.5 36 -4.5 q7 -1 24.5 -1 q17.5 0 41 -0.5 q23.5 -0.5 49.5 -0.5 q26 0 49.5 0 q23.5 0 41 0.5 q17.5 0.5 24.5 1.5 q22 2 34 4 q12 2 18.5 9 q6.5 7 9 21 q2.5 14 5.5 40 q2 17 4 46.5 q2 29.5 4 52.5 l81 -25 q-2 -23 -5 -53.5 q-3 -30.5 -5 -53.5 q-4 -36 -11 -58.5 q-7 -22.5 -21.5 -36 q-14.5 -13.5 -38.5 -20 q-24 -6.5 -61 -9.5 q-7 -1 -28 -1.5 q-21 -0.5 -49 -0.5 q-28 0 -59 0 q-31 0 -59 0.5 q-28 0.5 -49 0.5 q-21 0 -28 1 q-36 2 -59 9.5 q-23 7.5 -36 24 q-13 16.5 -18 44 q-5 27.5 -5 69.5 l0 703 l485 0 ZM338 717 l0 -653 l-252 0 l0 653 l252 0 ZM164 151 l98 0 l0 485 l-98 0 l0 -485 ZM686 670 l0 -275 l122 0 l0 275 l-122 0 ZM488 395 l119 0 l0 275 l-119 0 l0 -275 Z" /><glyph glyph-name="uni542B" unicode="&#x542b;" d="M470 643 q12 -11 27 -25.5 q15 -14.5 34 -34.5 q19 -20 33 -36 q14 -16 24 -29 l-55 -48 l251 0 l0 -74 q-32 -38 -65 -70 q-33 -32 -77 -69 l191 0 l0 -347 l-663 0 l0 347 l429 0 l-42 32 q29 23 59 50.5 q30 27.5 54 55.5 l-471 0 l0 75 l325 0 q-18 24 -52 61 q-18 20 -33 35.5 q-15 15.5 -27 26.5 l58 50 ZM257 -14 l489 0 l0 191 l-489 0 l0 -191 ZM35 525 q147 59 249 130.5 q102 71.5 179 162.5 l77 0 q75 -91 179 -160 q104 -69 243 -120 l-39 -82 q-66 26 -126.5 58 q-60.5 32 -116.5 70 q-55 38 -99.5 77 q-44.5 39 -79.5 80 q-69 -82 -176 -157.5 q-107 -75.5 -249 -135.5 l-41 77 Z" /><glyph glyph-name="uni5462" unicode="&#x5462;" d="M276 -87 q46 67 75 128.5 q29 61.5 42 113.5 q27 105 27 312 l0 292 l485 0 l0 -299 l-402 0 q-2 -109 -9.5 -192 q-7.5 -83 -22.5 -141 q-31 -118 -122 -262 l-73 48 ZM342 722 l0 -657 l-254 0 l0 657 l254 0 ZM646 424 l0 -195 q20 12 43.5 27.5 q23.5 15.5 49.5 33.5 q46 32 81 58 q35 26 61 47 l46 -68 q-27 -22 -65 -49.5 q-38 -27.5 -86 -58.5 q-38 -26 -70.5 -46 q-32.5 -20 -59.5 -35 l0 -88 q0 -21 2 -34 q2 -13 8.5 -20.5 q6.5 -7.5 18.5 -11 q12 -3.5 31 -4.5 q35 -3 74 0 q22 1 35.5 3.5 q13.5 2.5 21.5 8.5 q8 6 11.5 17 q3.5 11 6.5 31 q3 23 5 53 q2 30 3 53 l80 -26 q-2 -26 -4.5 -54.5 q-2.5 -28.5 -7.5 -55.5 q-5 -28 -13 -48.5 q-8 -20.5 -24 -34.5 q-16 -14 -42 -21.5 q-26 -7.5 -66 -8.5 q-43 -2 -85 0 q-38 1 -64 8.5 q-26 7.5 -42 23.5 q-16 16 -22.5 41.5 q-6.5 25.5 -6.5 63.5 l0 390 l80 0 ZM164 152 l102 0 l0 487 l-102 0 l0 -487 ZM503 541 l320 0 l0 139 l-320 0 l0 -139 Z" /><glyph glyph-name="uni548C" unicode="&#x548c;" d="M902 714 l0 -772 l-384 0 l0 772 l384 0 ZM67 720 q37 3 86 11 q49 8 99 18.5 q50 10.5 96 21.5 q46 11 77 21 l36 -81 q-29 -9 -68 -18 q-39 -9 -82 -17 l0 -143 l171 0 l0 -83 l-171 0 l0 -47 q26 -23 52 -48 q26 -25 52 -52 q26 -28 46 -50 q20 -22 34 -39 l-63 -58 l-70 83 q-29 33 -51 57 l0 -424 l-83 0 l0 427 l-30 -58 q-59 -114 -114 -188 l-63 51 q35 48 72.5 108 q37.5 60 67.5 117 q17 32 32 62 q15 30 28 59 l-168 0 l0 83 l175 0 l0 127 q-39 -7 -74.5 -12.5 q-35.5 -5.5 -64.5 -8.5 l-22 81 ZM602 33 l217 0 l0 591 l-217 0 l0 -591 Z" /><glyph glyph-name="uni54C1" unicode="&#x54c1;" d="M812 774 l0 -334 l-636 0 l0 334 l636 0 ZM900 337 l0 -413 l-365 0 l0 413 l365 0 ZM443 337 l0 -413 l-354 0 l0 413 l354 0 ZM264 520 l461 0 l0 174 l-461 0 l0 -174 ZM617 5 l202 0 l0 251 l-202 0 l0 -251 ZM171 5 l191 0 l0 251 l-191 0 l0 -251 Z" /><glyph glyph-name="uni54E1" unicode="&#x54e1;" d="M838 493 l0 -426 l-673 0 l0 426 l673 0 ZM797 767 l0 -210 l-591 0 l0 210 l591 0 ZM291 624 l422 0 l0 77 l-422 0 l0 -77 ZM251 250 l502 0 l0 63 l-502 0 l0 -63 ZM753 130 l0 61 l-502 0 l0 -61 l502 0 ZM251 373 l502 0 l0 59 l-502 0 l0 -59 ZM603 53 q69 -14 176 -49 q55 -17 100 -33.5 q45 -16.5 77 -32.5 l-38 -73 q-37 16 -75 31 q-38 15 -93 34 q-54 19 -95.5 32 q-41.5 13 -82.5 22 l31 69 ZM53 -64 q78 19 177 54 q50 17 90 31.5 q40 14.5 73 30.5 l38 -68 q-34 -16 -78.5 -34 q-44.5 -18 -97.5 -37 q-52 -19 -90 -30 q-38 -11 -80 -22 l-32 75 Z" /><glyph glyph-name="uni54E5" unicode="&#x54e5;" d="M564 -39 q26 -2 59 -3.5 q33 -1.5 57 0.5 q21 1 33.5 4.5 q12.5 3.5 19 11.5 q6.5 8 8.5 21 q2 13 2 33 l0 257 l-694 0 l0 78 l909 0 l0 -78 l-131 0 l0 -280 q0 -33 -3.5 -56.5 q-3.5 -23.5 -16 -39.5 q-12.5 -16 -36.5 -25 q-24 -9 -65 -13 q-29 -3 -64.5 -4 q-35.5 -1 -59.5 -1 l-18 95 ZM606 214 l0 -233 l-452 0 l0 233 l452 0 ZM607 629 l0 -206 l-443 0 l0 206 l443 0 ZM940 763 l0 -76 l-112 0 l0 -298 l-86 0 l0 298 l-661 0 l0 76 l859 0 ZM235 50 l291 0 l0 93 l-291 0 l0 -93 ZM245 490 l282 0 l0 71 l-282 0 l0 -71 Z" /><glyph glyph-name="uni54E6" unicode="&#x54e6;" d="M343 -22 q21 -2 35.5 -2.5 q14.5 -0.5 26.5 -0.5 q22 0 35 2 q13 2 19.5 8.5 q6.5 6.5 8 19.5 q1.5 13 1.5 36 l0 146 q-29 -9 -54.5 -16 q-25.5 -7 -46.5 -12 l-27 83 q28 7 60.5 16 q32.5 9 67.5 20 l0 166 l-121 0 l0 81 l121 0 l0 119 q-23 -5 -44 -9.5 q-21 -4.5 -38 -6.5 l-20 79 q46 8 110 23 q64 15 132 39 l27 -78 q-21 -7 -44 -14 q-23 -7 -47 -14 l0 -138 l126 0 q-2 20 -3 40.5 q-1 20.5 -2 42.5 q-3 67 -5 117 q-2 50 -3 84 l78 0 q-1 -22 0.5 -73 q1.5 -51 4.5 -132 q1 -21 1.5 -40.5 q0.5 -19.5 2.5 -38.5 l206 0 l0 -81 l-202 0 q5 -63 10.5 -115 q5.5 -52 11.5 -95 q31 38 57 80.5 q26 42.5 49 87.5 l69 -40 q-70 -129 -157 -228 q8 -34 15 -61 q7 -27 15 -47 q12 -31 22 -42.5 q10 -11.5 20 -11.5 q13 0 17 16 q10 31 17.5 67 q7.5 36 15.5 82 l71 -31 q-4 -26 -11 -57.5 q-7 -31.5 -15 -54.5 q-11 -38 -21.5 -61 q-10.5 -23 -21.5 -36 q-11 -13 -23.5 -17.5 q-12.5 -4.5 -28.5 -4.5 q-36 0 -62.5 28 q-26.5 28 -51.5 94 q-6 16 -11.5 33 q-5.5 17 -10.5 37 q-32 -31 -67 -58.5 q-35 -27.5 -71 -53.5 l-42 54 q-1 -32 -5.5 -52.5 q-4.5 -20.5 -16 -34 q-11.5 -13.5 -32 -21 q-20.5 -7.5 -53.5 -11.5 q-17 -2 -37 -3 q-20 -1 -42 -1 l-16 92 ZM323 710 l0 -681 l-234 0 l0 681 l234 0 ZM164 115 l84 0 l0 513 l-84 0 l0 -513 ZM665 259 q-26 -11 -56.5 -23 q-30.5 -12 -63.5 -23 l0 -180 l0 -8 q45 31 85 64 q40 33 76 71 q-2 13 -4 26 q-2 13 -4 27 q-6 45 -11.5 102.5 q-5.5 57.5 -10.5 128.5 l-131 0 l0 -140 q23 8 46.5 16.5 q23.5 8.5 47.5 18.5 l26 -80 ZM814 779 q26 -27 64 -76 q38 -48 57 -80 l-60 -51 q-10 16 -23.5 36.5 q-13.5 20.5 -32.5 46.5 q-19 26 -34 45 q-15 19 -27 33 l56 46 Z" /><glyph glyph-name="uni5531" unicode="&#x5531;" d="M908 313 l0 -413 l-502 0 l0 413 l502 0 ZM339 706 l0 -680 l-246 0 l0 680 l246 0 ZM878 751 l0 -357 l-444 0 l0 357 l444 0 ZM174 116 l84 0 l0 505 l-84 0 l0 -505 ZM486 141 l340 0 l0 99 l-340 0 l0 -99 ZM826 -30 l0 99 l-340 0 l0 -99 l340 0 ZM797 465 l0 74 l-283 0 l0 -74 l283 0 ZM514 607 l283 0 l0 73 l-283 0 l0 -73 Z" /><glyph glyph-name="uni554A" unicode="&#x554a;" d="M289 717 l0 -664 l-208 0 l0 664 l208 0 ZM563 761 l0 -81 q-10 -61 -24 -121 q-14 -60 -32 -115 q61 -130 62 -248 q0 -44 -4.5 -72 q-4.5 -28 -15 -44.5 q-10.5 -16.5 -28 -24 q-17.5 -7.5 -45.5 -11.5 q-8 -1 -20.5 -1.5 q-12.5 -0.5 -20.5 -0.5 l-15 81 q8 -2 16.5 -2.5 q8.5 -0.5 12.5 -0.5 q18 0 29 2 q11 2 16.5 10 q5.5 8 7.5 24.5 q2 16.5 2 45.5 q0 45 -17 105.5 q-17 60.5 -49 120.5 q19 60 33 124.5 q14 64.5 24 130.5 l-87 0 l0 -811 l-69 0 l0 889 l224 0 ZM664 -32 q8 -1 20.5 -1.5 q12.5 -0.5 25.5 -1 q13 -0.5 25 -0.5 q12 0 21 0 q24 0 38 2 q14 2 21.5 8.5 q7.5 6.5 9.5 19 q2 12.5 2 33.5 l0 644 l-237 0 l0 73 l367 0 l0 -73 l-60 0 l0 -655 q0 -36 -3.5 -58.5 q-3.5 -22.5 -15.5 -37 q-12 -14.5 -34.5 -21.5 q-22.5 -7 -59.5 -11 q-25 -3 -55 -4 q-30 -1 -50 -1 l-15 84 ZM768 548 l0 -423 l-173 0 l0 423 l173 0 ZM152 135 l67 0 l0 503 l-67 0 l0 -503 ZM656 203 l50 0 l0 267 l-50 0 l0 -267 Z" /><glyph glyph-name="uni554F" unicode="&#x554f;" d="M899 765 l0 -748 q0 -33 -5 -56.5 q-5 -23.5 -17.5 -38.5 q-12.5 -15 -35 -23.5 q-22.5 -8.5 -58.5 -12.5 q-38 -5 -72.5 -5.5 q-34.5 -0.5 -62.5 0.5 l-17 90 q60 -4 120 -3 q22 0 35 2 q13 2 20 8 q7 6 9.5 18.5 q2.5 12.5 2.5 35.5 l0 363 l-275 0 l0 370 l356 0 ZM455 765 l0 -371 l-272 0 l0 -517 l-85 0 l0 888 l357 0 ZM686 316 l0 -291 l-370 0 l0 291 l370 0 ZM395 98 l213 0 l0 143 l-213 0 l0 -143 ZM621 615 l197 0 l0 84 l-197 0 l0 -84 ZM621 465 l197 0 l0 82 l-197 0 l0 -82 ZM378 467 l0 80 l-195 0 l0 -80 l195 0 ZM183 615 l195 0 l0 80 l-195 0 l0 -80 Z" /><glyph glyph-name="uni5565" unicode="&#x5565;" d="M339 537 q89 59 154.5 125 q65.5 66 113.5 148 l77 0 q48 -82 125.5 -153 q77.5 -71 164.5 -120 l-47 -72 q-28 16 -54.5 33 q-26.5 17 -50.5 36 l-1 -56 l-135 0 l0 -89 l247 0 l0 -76 l-247 0 l0 -94 l186 0 l0 -317 l-456 0 l0 317 l186 0 l0 94 l-237 0 l0 76 l237 0 l0 89 l-136 0 l0 46 q-33 -26 -76 -55 l-51 68 ZM334 706 l0 -679 l-247 0 l0 679 l247 0 ZM499 -24 l291 0 l0 165 l-291 0 l0 -165 ZM169 110 l84 0 l0 518 l-84 0 l0 -518 ZM647 725 q-30 -51 -64.5 -92 q-34.5 -41 -82.5 -81 l299 0 q-47 39 -85.5 82.5 q-38.5 43.5 -66.5 90.5 Z" /><glyph glyph-name="uni5566" unicode="&#x5566;" d="M315 702 l0 -660 l-229 0 l0 660 l229 0 ZM321 303 q20 8 45 18.5 q25 10.5 56 25.5 l0 192 l-84 0 l0 79 l84 0 l0 191 l81 0 l0 -191 l75 0 l0 -79 l-75 0 l0 -152 l65 35 l19 -83 q-17 -10 -38 -21.5 q-21 -11.5 -46 -24.5 l0 -298 q0 -27 -4 -46 q-4 -19 -14 -31 q-10 -12 -27.5 -19 q-17.5 -7 -45.5 -11 q-18 -2 -43 -3.5 q-25 -1.5 -41 -1.5 l-18 92 q12 -1 29 -2 q17 -1 33 -1 q16 0 25.5 1.5 q9.5 1.5 15 6.5 q5.5 5 7.5 15 q2 10 2 28 l0 230 q-25 -11 -45 -20 q-20 -9 -37 -15 l-19 85 ZM736 1 q11 47 23.5 106 q12.5 59 27.5 133 q17 85 29 152.5 q12 67.5 20 118.5 l78 -11 q-16 -100 -54 -274 q-14 -68 -27.5 -124 q-13.5 -56 -24.5 -101 l150 0 l0 -79 l-422 0 l0 79 l200 0 ZM757 804 q15 -36 29.5 -78.5 q14.5 -42.5 25.5 -82.5 l130 0 l0 -79 l-350 0 l0 79 l142 0 q-24 76 -51 141 l74 20 ZM162 125 l78 0 l0 498 l-78 0 l0 -498 ZM658 503 q24 -71 48 -203 q24 -131 30 -208 l-70 -10 q-2 39 -9.5 89 q-7.5 50 -19.5 116 q-12 66 -23.5 114 q-11.5 48 -22.5 85 l67 17 Z" /><glyph glyph-name="uni5584" unicode="&#x5584;" d="M456 571 l0 66 l-373 0 l0 68 l225 0 l-11 20 q-11 18 -19.5 32 q-8.5 14 -15.5 25 l70 37 q8 -9 17 -22.5 q9 -13.5 20 -30.5 q10 -15 19.5 -32.5 q9.5 -17.5 14.5 -28.5 l191 0 q8 9 15.5 19.5 q7.5 10.5 16.5 23.5 q15 22 26 40 q11 18 19 32 l74 -39 q-8 -15 -19.5 -33.5 q-11.5 -18.5 -27.5 -41.5 l-1 -1 l217 0 l0 -68 l-372 0 l0 -66 l337 0 l0 -66 l-337 0 l0 -65 l394 0 l0 -69 l-202 0 l58 -31 q-7 -12 -16.5 -27.5 q-9.5 -15.5 -22.5 -34.5 l-5 -7 l200 0 l0 -72 l-900 0 l0 72 l187 0 l-9 15 q-9 14 -18.5 27.5 q-9.5 13.5 -15.5 21.5 l58 36 l-189 0 l0 69 l395 0 l0 65 l-337 0 l0 66 l337 0 ZM840 134 l0 -244 l-683 0 l0 244 l683 0 ZM243 -39 l511 0 l0 105 l-511 0 l0 -105 ZM293 326 q9 -14 19.5 -30 q10.5 -16 15.5 -25 l128 0 l0 100 l-196 0 q7 -8 15.5 -20.5 q8.5 -12.5 17.5 -24.5 ZM684 314 q11 17 19.5 31.5 q8.5 14.5 15.5 25.5 l-177 0 l0 -100 l111 0 q11 14 31 43 Z" /><glyph glyph-name="uni5594" unicode="&#x5594;" d="M246 -97 q38 64 62.5 120.5 q24.5 56.5 35.5 107.5 q22 100 22 293 l0 332 l538 0 l0 -222 l-462 0 l0 -107 q0 -92 -6.5 -168 q-6.5 -76 -17.5 -137 q-11 -61 -35 -124 q-24 -63 -62 -133 l-75 38 ZM296 719 l0 -677 l-230 0 l0 677 l230 0 ZM718 206 l0 -71 l177 0 l0 -69 l-177 0 l0 -92 l223 0 l0 -70 l-530 0 l0 70 l228 0 l0 92 l-170 0 l0 69 l170 0 l0 71 l79 0 ZM457 272 q11 2 20.5 9.5 q9.5 7.5 18.5 16.5 q19 19 41 44.5 q22 25.5 45 54.5 l-118 0 l0 67 l452 0 l0 -67 l-251 0 q-25 -33 -51.5 -62 q-26.5 -29 -56.5 -58 q128 1 233 12 q-13 16 -25.5 30 q-12.5 14 -23.5 27 l48 43 q51 -52 82.5 -92.5 q31.5 -40.5 49.5 -68.5 l-52 -44 q-7 10 -14.5 21.5 q-7.5 11.5 -18.5 24.5 q-96 -8 -194.5 -12.5 q-98.5 -4.5 -176.5 -3.5 l-8 58 ZM142 129 l78 0 l0 507 l-78 0 l0 -507 ZM442 603 l381 0 l0 84 l-381 0 l0 -84 Z" /><glyph glyph-name="uni559C" unicode="&#x559c;" d="M823 488 l0 -180 l-135 0 l36 -19 q-7 -12 -16.5 -27.5 q-9.5 -15.5 -22.5 -33.5 l271 0 l0 -68 l-915 0 l0 68 l276 0 l-4 7 q-9 14 -18.5 27.5 q-9.5 13.5 -15.5 21.5 l39 24 l-142 0 l0 180 l647 0 ZM830 106 l0 -218 l-663 0 l0 218 l663 0 ZM457 600 l0 58 l-396 0 l0 67 l396 0 l0 83 l85 0 l0 -83 l395 0 l0 -67 l-395 0 l0 -58 l346 0 l0 -63 l-778 0 l0 63 l347 0 ZM250 -46 l498 0 l0 88 l-498 0 l0 -88 ZM257 370 l484 0 l0 58 l-484 0 l0 -58 ZM410 228 l181 0 q5 7 11 15.5 q6 8.5 14 19.5 q8 13 15.5 24 q7.5 11 12.5 21 l-287 0 l23 -33 l30 -47 Z" /><glyph glyph-name="uni55AE" unicode="&#x55ae;" d="M832 493 l0 -343 l-290 0 l0 -75 l407 0 l0 -69 l-407 0 l0 -138 l-86 0 l0 138 l-406 0 l0 69 l406 0 l0 75 l-290 0 l0 343 l666 0 ZM873 768 l0 -216 l-337 0 l0 216 l337 0 ZM458 768 l0 -216 l-332 0 l0 216 l332 0 ZM750 218 l0 73 l-208 0 l0 -73 l208 0 ZM249 218 l207 0 l0 73 l-207 0 l0 -73 ZM542 429 l0 -71 l208 0 l0 71 l-208 0 ZM619 616 l171 0 l0 86 l-171 0 l0 -86 ZM249 358 l207 0 l0 71 l-207 0 l0 -71 ZM209 616 l166 0 l0 86 l-166 0 l0 -86 Z" /><glyph glyph-name="uni55CE" unicode="&#x55ce;" d="M918 757 l0 -76 l-193 0 l0 -72 l165 0 l0 -71 l-165 0 l0 -74 l165 0 l0 -70 l-165 0 l0 -76 l186 0 q-1 -53 -2 -95.5 q-1 -42.5 -2.5 -79.5 q-1.5 -37 -3.5 -72 q-2 -35 -5 -74 q-2 -27 -8.5 -46.5 q-6.5 -19.5 -19.5 -33.5 q-13 -14 -34.5 -22 q-21.5 -8 -54.5 -11 q-37 -3 -63 -4 q-26 -1 -49 1 l-14 83 q28 -2 50 -2.5 q22 -0.5 54 -0.5 q19 0 31 2.5 q12 2.5 19.5 10 q7.5 7.5 11 21 q3.5 13.5 5.5 36.5 q4 49 6 102 q2 53 1 107 l-412 0 l0 517 l497 0 ZM339 724 l0 -693 l-247 0 l0 693 l247 0 ZM171 118 l90 0 l0 524 l-90 0 l0 -524 ZM334 -54 q8 23 17 54 q9 31 19 72 q20 83 27 133 l72 -9 q-3 -26 -9.5 -60 q-6.5 -34 -16.5 -77 q-10 -42 -19.5 -74.5 q-9.5 -32.5 -18.5 -56.5 l-71 18 ZM561 199 q4 -24 8 -53 q4 -29 8 -64 q4 -34 6.5 -62 q2.5 -28 4.5 -51 l-67 -6 q-5 63 -10.5 120.5 q-5.5 57.5 -12.5 108.5 l63 7 ZM665 203 q7 -17 14 -40.5 q7 -23.5 15 -53.5 q8 -30 14 -54 q6 -24 9 -43 l-66 -16 q-3 18 -8 42 q-5 24 -12 54 q-7 30 -13.5 54 q-6.5 24 -12.5 41 l60 16 ZM497 318 l150 0 l0 76 l-150 0 l0 -76 ZM497 464 l150 0 l0 74 l-150 0 l0 -74 ZM760 217 q8 -14 16.5 -34.5 q8.5 -20.5 18.5 -46.5 q10 -26 17 -46 q7 -20 12 -36 l-59 -25 q-8 33 -27 84 q-20 51 -33 81 l55 23 ZM497 609 l150 0 l0 72 l-150 0 l0 -72 Z" /><glyph glyph-name="uni55DA" unicode="&#x55da;" d="M542 708 q11 26 22 54.5 q11 28.5 18 50.5 l89 -9 q-9 -26 -18.5 -50 q-9.5 -24 -20.5 -46 l229 0 l0 -234 l-367 0 l0 -72 l457 0 l0 -71 l-457 0 l0 -72 l416 0 q-2 -84 -5.5 -148 q-3.5 -64 -10.5 -122 q-4 -28 -10.5 -46.5 q-6.5 -18.5 -18.5 -30 q-12 -11.5 -31 -17 q-19 -5.5 -48 -8.5 q-36 -3 -70 -4.5 q-34 -1.5 -60 -0.5 l-15 78 q27 -2 63 -2.5 q36 -0.5 68 1.5 q26 2 34 9.5 q8 7.5 11 33.5 q3 40 6 86 q3 46 5 98 l-416 0 l0 522 l130 0 ZM339 707 l0 -673 l-248 0 l0 673 l248 0 ZM165 119 l100 0 l0 507 l-100 0 l0 -507 ZM494 544 l285 0 l0 97 l-285 0 l0 -97 ZM331 -63 q8 20 17.5 47.5 q9.5 27.5 19.5 62.5 q10 35 16 64 q6 29 10 51 l61 -11 q-5 -23 -10 -50 q-5 -27 -15 -65 q-10 -36 -19.5 -65.5 q-9.5 -29.5 -17.5 -50.5 l-62 17 ZM546 152 q7 -44 13.5 -98.5 q6.5 -54.5 11.5 -103.5 l-62 -9 l-9 99 q-3 31 -6 56 q-3 25 -7 48 l59 8 ZM644 161 q6 -15 12.5 -34 q6.5 -19 14.5 -45 q8 -26 13 -46.5 q5 -20.5 9 -36.5 l-61 -16 q-3 15 -8 36 q-5 21 -12 47 q-7 26 -13 45 q-6 19 -11 34 l56 16 ZM741 171 q7 -13 15 -29.5 q8 -16.5 18 -37.5 q10 -21 17 -38 q7 -17 12 -31 l-53 -26 q-5 14 -11.5 31 q-6.5 17 -16.5 39 q-10 22 -17.5 38.5 q-7.5 16.5 -14.5 28.5 l51 25 Z" /><glyph glyph-name="uni5617" unicode="&#x5617;" d="M823 196 l0 -299 l-644 0 l0 299 l644 0 ZM246 806 q21 -17 54 -48 q36 -33 51 -52 l-22 -18 l128 0 l0 122 l77 0 l0 -122 l144 0 l-27 31 q12 7 27 17 q15 10 32 24 q18 14 32 26.5 q14 12.5 25 22.5 l51 -48 q-11 -11 -25.5 -23.5 q-14.5 -12.5 -33.5 -27.5 l-28 -22 l178 0 l0 -171 l-81 0 l0 115 l-654 0 l0 -115 l-82 0 l0 171 l179 0 q-5 6 -11.5 12 q-6.5 6 -13.5 13 q-17 17 -30 29 q-13 12 -23 20 l53 44 ZM248 430 l0 -58 q52 3 115.5 8.5 q63.5 5.5 140.5 13.5 q186 21 287 42 l22 -57 q-113 -21 -300 -42 q-82 -9 -147.5 -14.5 q-65.5 -5.5 -116.5 -8.5 q3 -13 12 -16.5 q9 -3.5 32 -3.5 q103 -2 210 -2 q107 0 214 2 q31 1 43 5.5 q12 4.5 18 24.5 q2 8 4 18 q2 10 4 24 l81 -28 q-3 -14 -6.5 -25 q-3.5 -11 -6.5 -20 q-7 -16 -15.5 -26 q-8.5 -10 -20.5 -16 q-12 -6 -29 -8.5 q-17 -2.5 -40 -2.5 q-121 -2 -247.5 -2.5 q-126.5 -0.5 -247.5 2.5 q-27 1 -45 4.5 q-18 3.5 -28.5 13 q-10.5 9.5 -15 27 q-4.5 17.5 -4.5 46.5 l0 99 l87 0 ZM785 591 l0 -143 l-568 0 l0 143 l568 0 ZM266 73 l470 0 l0 66 l-470 0 l0 -66 ZM736 -46 l0 65 l-470 0 l0 -65 l470 0 ZM296 497 l409 0 l0 44 l-409 0 l0 -44 Z" /><glyph glyph-name="uni56DE" unicode="&#x56de;" d="M891 761 l0 -849 l-796 0 l0 849 l796 0 ZM184 1 l619 0 l0 672 l-619 0 l0 -672 ZM682 530 l0 -380 l-378 0 l0 380 l378 0 ZM382 232 l222 0 l0 221 l-222 0 l0 -221 Z" /><glyph glyph-name="uni56E0" unicode="&#x56e0;" d="M896 761 l0 -860 l-792 0 l0 860 l792 0 ZM192 -13 l616 0 l0 690 l-616 0 l0 -690 ZM225 121 q108 64 160 127 q53 65 62 162 l0 2 l-208 0 l0 83 l213 0 l2 38 q3 75 3 102 l86 0 q-2 -47 -6 -123 q-1 -5 -1 -9 q0 -4 0 -8 l223 0 l0 -83 l-229 0 l-3 -29 q-1 -6 -1.5 -11.5 q-0.5 -5.5 -2.5 -11.5 q25 -20 53.5 -47.5 q28.5 -27.5 63.5 -62.5 q40 -41 69.5 -74.5 q29.5 -33.5 49.5 -59.5 l-67 -62 q-20 28 -45.5 57 q-25.5 29 -63.5 71 q-25 26 -46 48.5 q-21 22.5 -41 41.5 q-28 -63 -81.5 -116.5 q-53.5 -53.5 -137.5 -104.5 l-52 70 Z" /><glyph glyph-name="uni570B" unicode="&#x570b;" d="M902 770 l0 -875 l-803 0 l0 875 l803 0 ZM179 -30 l642 0 l0 729 l-642 0 l0 -729 ZM418 49 q47 33 82 64 q-28 -7 -60 -12.5 q-32 -5.5 -74 -11.5 q-46 -7 -83 -11 q-37 -4 -66 -6 l-8 67 q28 2 65 6 q37 4 83 11 q47 7 84 13.5 q37 6.5 66 12.5 l6 -58 q27 24 51 53 q0 2 -1 4 q-1 2 -1 4 q-6 22 -11 48.5 q-5 26.5 -9.5 54 q-4.5 27.5 -7.5 55 q-3 27.5 -5 50.5 l-9 112 l-309 0 l0 61 l305 0 l-6 96 l67 3 q2 -27 3.5 -51.5 q1.5 -24.5 3.5 -47.5 l108 0 q-19 20 -37.5 35.5 q-18.5 15.5 -36.5 29.5 l42 46 q24 -18 48.5 -39 q24.5 -21 42.5 -40 l-31 -32 l67 0 l0 -61 l-199 0 q2 -26 4 -50.5 q2 -24.5 4 -46.5 q8 -93 20 -158 q55 93 96 225 l65 -16 q-25 -80 -54.5 -146.5 q-29.5 -66.5 -64.5 -121.5 l-17 -25 q4 -12 8.5 -22.5 q4.5 -10.5 9.5 -20.5 q18 -38 36 -38 q14 0 30 48 q6 18 11.5 38.5 q5.5 20.5 10.5 42.5 l60 -28 q-7 -29 -14 -52.5 q-7 -23.5 -16 -46.5 q-17 -42 -38 -61.5 q-21 -19.5 -44 -19.5 q-23 0 -44.5 15 q-21.5 15 -39.5 48 q-5 8 -10 17 q-5 9 -10 19 q-28 -29 -59.5 -57.5 q-31.5 -28.5 -67.5 -54.5 l-46 56 ZM482 448 l0 -225 l-234 0 l0 225 l234 0 ZM313 286 l106 0 l0 99 l-106 0 l0 -99 Z" /><glyph glyph-name="uni5728" unicode="&#x5728;" d="M21 235 q88 78 159 172 q71 94 125 201 l-255 0 l0 83 l293 0 q25 61 45 126 l92 -20 q-10 -28 -19 -54 q-9 -26 -20 -52 l493 0 l0 -83 l-530 0 q-20 -42 -41.5 -80.5 q-21.5 -38.5 -44.5 -76.5 q-11 -19 -23 -37 q-12 -18 -24 -35 l0 -505 l-86 0 l0 397 q-23 -26 -48 -51 q-25 -25 -53 -51 l-63 66 ZM659 539 l0 -166 l236 0 l0 -85 l-236 0 l0 -264 l274 0 l0 -84 l-631 0 l0 84 l272 0 l0 264 l-230 0 l0 85 l230 0 l0 166 l85 0 Z" /><glyph glyph-name="uni5730" unicode="&#x5730;" d="M35 31 q53 16 131 45 l0 372 l-116 0 l0 81 l116 0 l0 258 l81 0 l0 -258 l99 0 l0 -77 l58 20 l0 243 l82 0 l0 -215 l114 39 l0 266 l80 0 l0 -239 l213 74 q-1 -50 -2 -101.5 q-1 -51.5 -2.5 -100 q-1.5 -48.5 -3.5 -93 q-2 -44.5 -4 -80.5 q-1 -25 -5 -42.5 q-4 -17.5 -14 -29.5 q-10 -12 -26.5 -19 q-16.5 -7 -43.5 -11 q-14 -2 -33.5 -3 q-19.5 -1 -37.5 -1 l-18 91 q17 -2 31 -2.5 q14 -0.5 24 -0.5 q13 0 21.5 2 q8.5 2 13 6.5 q4.5 4.5 6 13.5 q1.5 9 2.5 24 q1 23 2 51 q1 28 2 59 q1 31 2 62 q1 31 1 60 l-128 -44 l0 -407 l-80 0 l0 379 l-114 -39 l0 -348 q0 -26 3 -42 q3 -16 11 -25 q8 -9 22 -12.5 q14 -3.5 35 -4.5 q13 -1 39 -1.5 q26 -0.5 65 -0.5 q39 0 65.5 0.5 q26.5 0.5 40.5 1.5 q31 2 49.5 4.5 q18.5 2.5 28 8.5 q9.5 6 13 17 q3.5 11 5.5 30 q3 22 5 46.5 q2 24.5 3 47.5 l83 -24 q-1 -26 -4 -54 q-3 -28 -6 -47 q-5 -33 -14.5 -53 q-9.5 -20 -26 -32 q-16.5 -12 -41.5 -17 q-25 -5 -61 -8 q-33 -3 -131 -3 q-91 0 -130 3 q-40 3 -66.5 11 q-26.5 8 -42 23 q-15.5 15 -21.5 38.5 q-6 23.5 -6 57.5 l0 354 l-76 -26 l-22 79 l29 10 l-88 0 l0 -339 q33 14 60.5 26 q27.5 12 50.5 23 l15 -82 q-29 -14 -68.5 -30 q-39.5 -16 -89.5 -36 q-49 -19 -88.5 -33 q-39.5 -14 -69.5 -23 l-22 77 Z" /><glyph glyph-name="uni57F7" unicode="&#x57f7;" d="M236 120 l0 112 l-168 0 l0 77 l108 0 q-6 13 -14.5 28.5 q-8.5 15.5 -16.5 31.5 q-8 16 -16.5 30.5 q-8.5 14.5 -14.5 25.5 l53 26 l-117 0 l0 74 l185 0 l0 104 l-150 0 l0 74 l150 0 l0 103 l80 0 l0 -103 l157 0 l0 -74 l-157 0 l0 -104 l187 0 l0 -74 l-103 0 l46 -18 q-4 -10 -11 -24.5 q-7 -14.5 -16 -31 q-9 -16.5 -20 -34.5 q-11 -18 -21 -34 l108 0 l0 -77 l-170 0 l0 -112 l186 0 l0 -76 l-186 0 l0 -168 l-79 0 l0 168 l-192 0 l0 76 l192 0 ZM415 -84 q37 41 64.5 78.5 q27.5 37.5 48 78.5 q20.5 41 33.5 88 q13 47 20 106 q-37 32 -68 55 q-31 23 -55 40 l45 59 q18 -11 39.5 -26 q21.5 -15 46.5 -35 q3 57 3 126 l0 64 l-91 0 l0 78 l91 0 l0 177 l77 0 l0 -177 l183 0 l0 -295 q-1 -112 2 -186.5 q3 -74.5 8 -107.5 q5 -36 9.5 -45.5 q4.5 -9.5 10.5 -9.5 q5 0 8.5 8.5 q3.5 8.5 11.5 41.5 q5 20 9 44 q4 24 9 55 l62 -26 q-8 -47 -17.5 -87.5 q-9.5 -40.5 -15.5 -60.5 q-26 -80 -71 -80 q-25 0 -47 24.5 q-22 24.5 -31 64.5 q-5 20 -9 46 q-4 26 -8 59 q-4 34 -5.5 85 q-1.5 51 -1.5 120 l0 272 l-107 0 l0 -67 q0 -52 -1.5 -97 q-1.5 -45 -5.5 -86 q32 -28 58 -52.5 q26 -24.5 45 -44.5 l-48 -63 q-14 14 -30.5 31 q-16.5 17 -36.5 36 q-10 -55 -25 -100.5 q-15 -45.5 -35.5 -86.5 q-20.5 -41 -47.5 -79 q-27 -38 -61 -77 l-66 52 ZM291 309 q22 35 42 72 q20 37 34 70 l-182 0 q19 -32 32.5 -58 q13.5 -26 30.5 -58 l-47 -26 l90 0 Z" /><glyph glyph-name="uni591A" unicode="&#x591a;" d="M92 560 q115 55 216 126 q99 70 164 139 l71 -42 q-13 -16 -27 -31 q-14 -15 -30 -30 l403 0 l0 -76 q-135 -114 -325 -200 l-10 -5 l46 -33 q-14 -17 -28.5 -32.5 q-14.5 -15.5 -28.5 -29.5 l372 0 l0 -76 q-129 -141 -300 -237 q-172 -94 -518 -173 l-34 80 q164 35 280 71 q116 36 197 76 q159 79 259 182 l-342 0 q-24 -20 -52 -40 l-8 -6 l49 -28 q28 -16 49 -30 q21 -14 36 -26 l-59 -63 q-15 12 -36 27 q-21 15 -49 33 q-18 12 -33 21.5 q-15 9.5 -29 17.5 q-84 -51 -194 -105 l-43 72 q72 32 137 69 q65 37 124 79 q48 33 88 66.5 q40 33.5 72 65.5 q-176 -71 -412 -125 l-30 76 q232 48 403.5 115 q171.5 67 292.5 158 l-367 0 l-46 -33 q10 -5 21 -10.5 q11 -5.5 23 -12.5 q25 -13 43.5 -24 q18.5 -11 32.5 -20 l-56 -57 q-14 9 -33.5 20.5 q-19.5 11.5 -44.5 25.5 l-59 32 q-33 -20 -67.5 -38.5 q-34.5 -18.5 -70.5 -35.5 l-47 67 Z" /><glyph glyph-name="uni5920" unicode="&#x5920;" d="M443 479 q51 75 93 158.5 q42 83.5 69 171.5 l78 -24 q-10 -29 -20 -55.5 q-10 -26.5 -21 -52.5 l270 0 q-1 -199 -3 -352.5 q-2 -153.5 -6 -280.5 q-2 -48 -8.5 -77.5 q-6.5 -29.5 -21.5 -47 q-15 -17.5 -39 -25 q-24 -7.5 -59 -10.5 q-23 -2 -50 -3.5 q-27 -1.5 -57 -1.5 l-16 92 q45 -3 82 -3 q30 0 48 3 q18 3 27.5 14 q9.5 11 13 32.5 q3.5 21.5 4.5 58.5 q1 46 2 107 q1 61 2 130 q1 69 1.5 142 q0.5 73 0.5 143 l-227 0 q-17 -32 -34 -63.5 q-17 -31.5 -37 -62.5 l223 0 l0 -392 l-230 0 l0 381 l-20 -30 l-65 48 ZM39 557 q66 55 119 123 q53 68 83 134 l73 -33 q-8 -17 -16.5 -33 q-8.5 -16 -18.5 -31 l205 0 l0 -74 q-68 -111 -159 -190 l-16 -14 l46 -21 l-40 -74 l177 0 l0 -75 q-59 -135 -143 -226 q-85 -91 -264 -185 l-44 69 q78 38 138.5 78 q60.5 40 100.5 80 q40 41 73.5 87 q33.5 46 59.5 99 l-145 0 q-11 -15 -21.5 -29 q-10.5 -14 -21.5 -28 q21 -20 42 -43 q21 -23 31 -34 l-51 -53 q-4 5 -11.5 14 q-7.5 9 -17.5 19.5 q-10 10.5 -20.5 21.5 q-10.5 11 -20.5 21 q-16 -17 -33.5 -34 q-17.5 -17 -36.5 -34 l-53 62 q61 57 113.5 118.5 q52.5 61.5 91.5 130.5 q-37 -26 -80.5 -50.5 q-43.5 -24.5 -94.5 -47.5 l-37 69 q126 54 210.5 120 q84.5 66 144.5 153 l-170 0 q-8 -11 -16 -20.5 q-8 -9.5 -16 -19.5 q20 -18 40.5 -38 q20.5 -20 29.5 -29 l-49 -52 q-14 15 -31.5 33.5 q-17.5 18.5 -36.5 35.5 q-29 -29 -62 -56 l-52 56 ZM595 156 l94 0 l0 244 l-94 0 l0 -244 Z" /><glyph glyph-name="uni5927" unicode="&#x5927;" d="M48 -58 q75 43 144.5 98.5 q69.5 55.5 124 123 q54.5 67.5 90 146 q35.5 78.5 43.5 167.5 l-381 0 l0 87 l383 0 l0 243 l93 0 l0 -243 l385 0 l0 -87 l-386 0 q-1 -6 -1.5 -11.5 q-0.5 -5.5 -0.5 -11.5 q35 -146 118 -258 q51 -67 124 -127.5 q73 -60.5 171 -113.5 l-56 -84 q-152 90 -248.5 198 q-96.5 108 -144.5 232 q-26 -69 -67 -130.5 q-41 -61.5 -93 -116.5 q-52 -55 -112.5 -102 q-60.5 -47 -126.5 -87 l-59 77 Z" /><glyph glyph-name="uni5929" unicode="&#x5929;" d="M46 -64 q180 88 277.5 195 q97.5 107 119.5 234 l-379 0 l0 85 l385 0 l0 208 l-330 0 l0 83 l756 0 l0 -83 l-335 0 l0 -208 l390 0 l0 -85 l-383 0 q45 -144 146 -247 q101 -103 266 -175 l-56 -84 q-98 51 -172 105 q-74 54 -126 114 q-32 37 -57 79 q-25 42 -45 90 q-20 -51 -53.5 -101.5 q-33.5 -50.5 -82.5 -99.5 q-49 -49 -114.5 -96 q-65.5 -47 -150.5 -91 l-56 77 Z" /><glyph glyph-name="uni5931" unicode="&#x5931;" d="M59 -58 q155 63 250.5 148.5 q95.5 85.5 130.5 193.5 l-372 0 l0 89 l389 0 q0 3 0.5 6 q0.5 3 0.5 7 q2 43 3 83.5 q1 40.5 2 80.5 l-215 0 q-19 -41 -39 -78.5 q-20 -37.5 -41 -69.5 l-79 48 q48 72 84 153.5 q36 81.5 64 174.5 l84 -24 q-16 -61 -38 -119 l182 0 q1 87 0 172 l92 0 q0 -42 0.5 -84.5 q0.5 -42.5 -0.5 -87.5 l325 0 l0 -85 l-326 0 q0 -42 -1 -83.5 q-1 -41.5 -2 -85.5 l0 -8 l376 0 l0 -89 l-368 0 q39 -100 113 -171 q48 -47 115 -87.5 q67 -40.5 156 -73.5 l-49 -90 q-142 62 -238.5 142 q-96.5 80 -150.5 193 q-23 -48 -57 -95 q-26 -36 -62 -70 q-36 -34 -80 -65.5 q-44 -31.5 -94 -59 q-50 -27.5 -104 -48.5 l-51 83 Z" /><glyph glyph-name="uni5947" unicode="&#x5947;" d="M562 -32 q11 -1 27 -1.5 q16 -0.5 32.5 -1 q16.5 -0.5 32 -0.5 q15.5 0 25.5 0 q21 0 33.5 2 q12.5 2 19 8 q6.5 6 8.5 17.5 q2 11.5 2 31.5 l0 331 l-698 0 l0 80 l91 0 l-20 64 q103 18 168.5 40.5 q65.5 22.5 98.5 45.5 q31 21 48 48 l-339 0 l0 78 l363 0 l3 93 l87 0 l-4 -93 l366 0 l0 -78 l-382 0 l-3 -7 q32 -10 71 -24 q39 -14 84 -31 q60 -23 105 -44 q45 -21 79 -39 l-30 -53 l125 0 l0 -80 l-125 0 l0 -351 q0 -30 -4.5 -51.5 q-4.5 -21.5 -17 -35.5 q-12.5 -14 -34.5 -21.5 q-22 -7.5 -56 -10.5 q-41 -4 -73 -4.5 q-32 -0.5 -65 0.5 l-18 87 ZM597 268 l0 -286 l-441 0 l0 286 l441 0 ZM640 506 q-47 20 -86 34.5 q-39 14.5 -71 24.5 q-18 -21 -40 -37 q-37 -28 -96.5 -51.5 q-59.5 -23.5 -152.5 -41.5 l604 0 q-32 16 -70.5 33 q-38.5 17 -87.5 38 ZM243 59 l267 0 l0 132 l-267 0 l0 -132 Z" /><glyph glyph-name="uni5973" unicode="&#x5973;" d="M184 245 q30 64 58 130.5 q28 66.5 53 136.5 l-247 0 l0 89 l277 0 q19 57 34 111.5 q15 54.5 27 107.5 l93 -19 q-12 -49 -25.5 -99 q-13.5 -50 -30.5 -101 l536 0 l0 -89 l-172 0 q-57 -254 -165 -379 q97 -53 174.5 -99 q77.5 -46 131.5 -84 l-58 -86 q-58 45 -139 95 q-81 50 -185 107 q-77 -55 -197 -107 q-120 -52 -265 -94 l-41 84 q137 36 239 79 q102 43 171 89 q-81 43 -148 75 q-67 32 -121 53 ZM533 180 q108 108 162 332 l-302 0 q-23 -67 -45.5 -124 q-22.5 -57 -43.5 -103 q47 -18 104 -44 q57 -26 125 -61 Z" /><glyph glyph-name="uni5976" unicode="&#x5976;" d="M855 743 l0 -79 q-11 -57 -26 -113 q-15 -56 -33 -108 l126 0 q-1 -65 -2.5 -118.5 q-1.5 -53.5 -3.5 -104 q-2 -50.5 -5.5 -101 q-3.5 -50.5 -7.5 -107.5 q-2 -31 -10 -50.5 q-8 -19.5 -22 -32 q-14 -12.5 -34 -18.5 q-20 -6 -47 -10 q-40 -5 -73 -7 q-33 -2 -65 0 l-16 93 q38 -3 67.5 -4 q29.5 -1 53.5 0 q19 1 31 4 q12 3 19 11 q7 8 10.5 23.5 q3.5 15.5 5.5 41.5 q5 78 8.5 153.5 q3.5 75.5 4.5 144.5 l-124 0 l0 80 q17 54 31 107.5 q14 53.5 25 110.5 l-174 0 q-7 -352 -39 -496 q-17 -77 -52.5 -157.5 q-35.5 -80.5 -91.5 -143.5 l-70 46 q58 76 88 144 q30 68 47 139 q31 136 35 468 l-108 0 l0 84 l452 0 ZM78 239 q15 60 28.5 125.5 q13.5 65.5 24.5 140.5 l4 28 l-82 0 l0 81 l94 0 q6 47 11 93.5 q5 46.5 9 94.5 l82 -5 q-8 -83 -21 -183 l175 0 l0 -81 q-6 -62 -13.5 -116 q-7.5 -54 -18 -102 q-10.5 -48 -24 -90 q-13.5 -42 -31.5 -81 q60 -54 95 -92 l-54 -71 q-16 18 -36.5 39 q-20.5 21 -46.5 46 q-33 -51 -76.5 -99.5 q-43.5 -48.5 -102.5 -99.5 l-63 63 q60 56 103 103 q43 47 73 95 q-39 36 -71.5 63.5 q-32.5 27.5 -58.5 47.5 ZM216 533 q-11 -72 -24 -137.5 q-13 -65.5 -27 -124.5 q18 -13 38.5 -29.5 q20.5 -16.5 45.5 -37.5 q27 63 43 141 q16 78 27 188 l-103 0 Z" /><glyph glyph-name="uni597D" unicode="&#x597d;" d="M32 -61 q126 96 193 190 q-42 35 -77 62 q-35 27 -63 47 q18 71 34 146.5 q16 75.5 29 158.5 l-93 0 l0 88 l105 0 q6 44 10.5 89.5 q4.5 45.5 9.5 93.5 l85 -8 q-4 -38 -9 -82 q-5 -44 -13 -93 l190 0 l0 -83 q-33 -269 -94 -399 q44 -36 78 -66 q34 -30 57 -55 l-62 -71 q-23 23 -52.5 51.5 q-29.5 28.5 -67.5 61.5 q-34 -47 -83 -95.5 q-49 -48.5 -113 -100.5 l-64 65 ZM736 391 l227 0 l0 -90 l-227 0 l0 -288 q0 -29 -4.5 -50 q-4.5 -21 -16.5 -36 q-12 -15 -32 -23.5 q-20 -8.5 -51 -12.5 q-12 -1 -27.5 -2 q-15.5 -1 -31.5 -2 q-16 -1 -30 -1 q-14 0 -23 0 l-16 95 q7 -1 18 -1.5 q11 -0.5 23 -1 q12 -0.5 23.5 -0.5 q11.5 0 20.5 0 q21 1 33 2.5 q12 1.5 18 7.5 q6 6 7.5 19 q1.5 13 1.5 36 l0 258 l-216 0 l0 90 l216 0 l0 117 q45 33 85.5 71 q40.5 38 80.5 81 l-341 0 l0 85 l452 0 l0 -83 q-46 -51 -92.5 -98 q-46.5 -47 -97.5 -87 l0 -86 ZM176 276 q20 -14 43.5 -31 q23.5 -17 50.5 -39 q27 58 47 142 q20 84 34 195 l-121 0 q-11 -73 -25 -140 q-14 -67 -29 -127 Z" /><glyph glyph-name="uni5982" unicode="&#x5982;" d="M898 691 l0 -756 l-354 0 l0 756 l354 0 ZM95 218 q22 80 39 159 q17 79 31 163 l-109 0 l0 86 l121 0 q12 90 21 187 l87 -10 q-5 -47 -10 -91 q-5 -44 -10 -86 l206 0 l0 -80 q-6 -70 -15 -129.5 q-9 -59.5 -21.5 -111 q-12.5 -51.5 -29.5 -96.5 q-17 -45 -40 -85 q50 -40 87.5 -71.5 q37.5 -31.5 64.5 -59.5 l-59 -71 q-26 29 -62 60 q-36 31 -81 68 q-39 -49 -92 -95 q-53 -46 -123 -95 l-63 64 q70 50 121 93.5 q51 43.5 88 89.5 q-45 36 -82.5 63.5 q-37.5 27.5 -68.5 47.5 ZM627 24 l189 0 l0 583 l-189 0 l0 -583 ZM252 540 q-14 -88 -29.5 -159.5 q-15.5 -71.5 -31.5 -127.5 q22 -14 48 -32.5 q26 -18.5 57 -41.5 q38 69 58 155 q20 86 32 206 l-134 0 Z" /><glyph glyph-name="uni59D0" unicode="&#x59d0;" d="M870 760 l0 -770 l86 0 l0 -82 l-584 0 l0 82 l85 0 l0 770 l413 0 ZM73 227 q15 60 28 128 q13 68 24 144 q1 8 2 16 q1 8 3 16 l-86 0 l0 81 l96 0 q6 47 10 93.5 q4 46.5 8 93.5 l85 -2 q-4 -40 -9 -86 q-5 -46 -13 -99 l168 0 l0 -81 q-11 -131 -31.5 -228.5 q-20.5 -97.5 -49.5 -163.5 l-4 -8 q32 -30 56 -55.5 q24 -25.5 41 -45.5 l-58 -63 q-32 37 -82 88 q-61 -92 -169 -194 l-62 62 q57 52 99 100 q42 48 71 92 q-76 73 -127 112 ZM541 -10 l246 0 l0 184 l-246 0 l0 -184 ZM541 508 l246 0 l0 170 l-246 0 l0 -170 ZM541 258 l246 0 l0 170 l-246 0 l0 -170 ZM209 531 q-11 -76 -23 -145 q-12 -69 -25 -129 q17 -13 37 -29.5 q20 -16.5 43 -37.5 q49 112 68 341 l-100 0 Z" /><glyph glyph-name="uni5ABD" unicode="&#x5abd;" d="M923 757 l0 -76 l-191 0 l0 -73 l165 0 l0 -71 l-165 0 l0 -72 l165 0 l0 -71 l-165 0 l0 -76 l186 0 q-1 -53 -2 -95.5 q-1 -42.5 -2.5 -79.5 q-1.5 -37 -3.5 -72 q-2 -35 -5 -74 q-2 -27 -8.5 -46.5 q-6.5 -19.5 -19.5 -33.5 q-13 -14 -34.5 -22 q-21.5 -8 -54.5 -11 q-37 -3 -63 -4 q-26 -1 -49 1 l-14 83 q28 -2 50 -2.5 q22 -0.5 54 -0.5 q19 0 31 2.5 q12 2.5 19.5 10 q7.5 7.5 11 21 q3.5 13.5 5.5 36.5 q4 49 6 102 q2 53 1 107 l-412 0 l0 517 l495 0 ZM81 220 q25 123 48 294 q1 8 1.5 15.5 q0.5 7.5 2.5 15.5 l-83 0 l0 78 l92 0 q6 53 10.5 99.5 q4.5 46.5 7.5 88.5 l78 -3 q-3 -43 -8 -88.5 q-5 -45.5 -10 -96.5 l150 0 l0 -79 q-25 -270 -80 -393 l-3 -7 q63 -59 96 -99 l-54 -59 q-16 18 -35.5 40 q-19.5 22 -45.5 47 q-29 -46 -68.5 -95.5 q-39.5 -49.5 -90.5 -104.5 l-59 56 q49 45 90.5 95 q41.5 50 72.5 102 q-67 61 -112 94 ZM211 545 q-1 -4 -1.5 -7 q-0.5 -3 -0.5 -7 q-10 -77 -21 -147.5 q-11 -70.5 -24 -133.5 q14 -10 30 -23 q16 -13 35 -30 q50 121 70 348 l-88 0 ZM365 -53 q8 23 16.5 53.5 q8.5 30.5 18.5 71.5 q10 42 16 74.5 q6 32.5 9 58.5 l69 -9 q-3 -26 -9 -58.5 q-6 -32.5 -15 -75.5 q-8 -42 -17 -75 q-9 -33 -17 -57 l-71 17 ZM576 197 q4 -24 8 -53 q4 -29 8 -64 q4 -34 6.5 -62 q2.5 -28 4.5 -51 l-67 -6 q-5 63 -10.5 120.5 q-5.5 57.5 -12.5 108.5 l63 7 ZM670 205 q7 -17 14 -41 q7 -24 15 -54 q8 -29 13.5 -53 q5.5 -24 8.5 -42 l-63 -19 q-3 18 -8 42 q-5 24 -12 54 q-7 30 -13 54 q-6 24 -12 41 l57 18 ZM504 318 l153 0 l0 76 l-153 0 l0 -76 ZM504 608 l153 0 l0 73 l-153 0 l0 -73 ZM504 465 l153 0 l0 72 l-153 0 l0 -72 ZM760 217 q8 -14 16.5 -34.5 q8.5 -20.5 18.5 -46.5 q21 -52 30 -82 l-59 -26 q-5 17 -11.5 37.5 q-6.5 20.5 -16.5 46.5 q-10 26 -18 46.5 q-8 20.5 -15 35.5 l55 23 Z" /><glyph glyph-name="uni5B50" unicode="&#x5b50;" d="M462 383 l0 92 q70 39 136 86 q66 47 132 101 l-597 0 l0 85 l747 0 l0 -86 q-79 -64 -161 -120 q-82 -56 -167 -104 l0 -54 l392 0 l0 -89 l-392 0 l0 -269 q-1 -37 -6 -61 q-5 -24 -19 -38 q-14 -14 -38 -21.5 q-24 -7.5 -62 -11.5 q-33 -4 -65.5 -4.5 q-32.5 -0.5 -66.5 -0.5 l-18 98 q28 -3 57 -4.5 q29 -1.5 67 -1.5 q21 0 33 2.5 q12 2.5 18 9.5 q6 7 8 19 q2 12 2 32 l0 251 l-405 0 l0 89 l405 0 Z" /></font>
</defs>
</svg>
