<?xml version="1.0" encoding="iso-8859-1"?>
<!-- Generator: Adobe Illustrator 19.0.0, SVG Export Plug-In . SVG Version: 6.00 Build 0)  -->
<svg version="1.1" id="Layer_1" xmlns="http://www.w3.org/2000/svg" xmlns:xlink="http://www.w3.org/1999/xlink" x="0px" y="0px"
	 viewBox="0 0 512 512" style="enable-background:new 0 0 512 512;" xml:space="preserve">
<path style="fill:#1C74BB;" d="M469.333,0H42.667C19.14,0,0,19.14,0,42.667v426.667C0,492.86,19.14,512,42.667,512h426.667
	C492.86,512,512,492.86,512,469.333V42.667C512,19.14,492.86,0,469.333,0z"/>
<g>
	<path style="fill:#035FA1;" d="M503.467,477.867H59.733c-14.139,0-25.6-11.461-25.6-25.6V8.533c0-2.667,0.257-5.273,0.725-7.805
		C15.05,4.41,0,21.808,0,42.667v426.667C0,492.86,19.14,512,42.667,512h426.667c20.859,0,38.257-15.05,41.938-34.859
		C508.739,477.61,506.133,477.867,503.467,477.867z"/>
	<path style="fill:#035FA1;" d="M213.333,512V341.333H204.8c-18.821,0-34.133-15.312-34.133-34.133v-68.267
		c0-18.821,15.312-34.133,34.133-34.133h8.533v-17.067c0-75.285,61.249-136.533,136.533-136.533h68.267
		c18.821,0,34.133,15.312,34.133,34.133V153.6c0,18.821-15.312,34.133-34.133,34.133h-68.267V204.8h68.267
		c18.821,0,34.133,15.312,34.133,34.133V307.2c0,18.821-15.312,34.133-34.133,34.133h-68.267V512H213.333z"/>
</g>
<path style="fill:#FFFFFF;" d="M349.867,162.133h68.267c4.713,0,8.533-3.821,8.533-8.533V85.333c0-4.713-3.821-8.533-8.533-8.533
	h-68.267c-61.267,0-110.933,49.666-110.933,110.933V230.4H204.8c-4.713,0-8.533,3.821-8.533,8.533V307.2
	c0,4.713,3.821,8.533,8.533,8.533h34.133V512h85.333V315.733h93.867c4.713,0,8.533-3.821,8.533-8.533v-68.267
	c0-4.713-3.821-8.533-8.533-8.533h-93.867v-42.667C324.267,173.595,335.728,162.133,349.867,162.133z"/>
<rect x="238.933" y="477.867" style="fill:#E5E5E5;" width="85.333" height="34.133"/>
<g>
</g>
<g>
</g>
<g>
</g>
<g>
</g>
<g>
</g>
<g>
</g>
<g>
</g>
<g>
</g>
<g>
</g>
<g>
</g>
<g>
</g>
<g>
</g>
<g>
</g>
<g>
</g>
<g>
</g>
</svg>
