<?xml version="1.0" encoding="iso-8859-1"?>
<!-- Generator: Adobe Illustrator 19.0.0, SVG Export Plug-In . SVG Version: 6.00 Build 0)  -->
<svg version="1.1" id="Layer_1" xmlns="http://www.w3.org/2000/svg" xmlns:xlink="http://www.w3.org/1999/xlink" x="0px" y="0px"
	 viewBox="0 0 512 512" style="enable-background:new 0 0 512 512;" xml:space="preserve">
<path style="fill:#FF6647;" d="M409.6,221.867c-7.49,0-14.86,0.797-22.052,2.378c3.285-10.389,4.986-21.292,4.986-32.244
	c0-58.816-47.85-106.667-106.667-106.667S179.2,133.184,179.2,192v226.133c0,4.713,3.821,8.533,8.533,8.533H409.6
	c56.464,0,102.4-45.936,102.4-102.4S466.064,221.867,409.6,221.867z"/>
<g>
	<path style="fill:#E35336;" d="M433.894,401.067H204.8V167.573c0-23.508,7.533-45.381,20.323-63.203
		C197.392,123.652,179.2,155.739,179.2,192v226.133c0,4.713,3.821,8.533,8.533,8.533H409.6c35.118,0,66.159-17.772,84.613-44.791
		C477.148,393.964,456.279,401.067,433.894,401.067z"/>
	<path style="fill:#E35336;" d="M162.133,426.667c-4.713,0-8.533-3.821-8.533-8.533v-204.8c0-4.713,3.821-8.533,8.533-8.533
		c4.713,0,8.533,3.821,8.533,8.533v204.8C170.667,422.846,166.846,426.667,162.133,426.667z"/>
	<path style="fill:#E35336;" d="M136.533,426.667c-4.713,0-8.533-3.821-8.533-8.533V206.951c0-4.713,3.821-8.533,8.533-8.533
		s8.533,3.821,8.533,8.533v211.182C145.067,422.846,141.246,426.667,136.533,426.667z"/>
	<path style="fill:#E35336;" d="M110.933,426.667c-4.713,0-8.533-3.821-8.533-8.533V230.4c0-4.713,3.821-8.533,8.533-8.533
		s8.533,3.821,8.533,8.533v187.733C119.467,422.846,115.646,426.667,110.933,426.667z"/>
	<path style="fill:#E35336;" d="M85.333,426.667c-4.713,0-8.533-3.821-8.533-8.533v-128c0-4.713,3.821-8.533,8.533-8.533
		s8.533,3.821,8.533,8.533v128C93.867,422.846,90.046,426.667,85.333,426.667z"/>
	<path style="fill:#E35336;" d="M59.733,424.516c-4.713,0-8.533-3.821-8.533-8.533V283.751c0-4.713,3.821-8.533,8.533-8.533
		s8.533,3.821,8.533,8.533v132.232C68.267,420.695,64.446,424.516,59.733,424.516z"/>
	<path style="fill:#E35336;" d="M34.133,411.673c-4.713,0-8.533-3.821-8.533-8.533V296.593c0-4.713,3.821-8.533,8.533-8.533
		s8.533,3.821,8.533,8.533v106.546C42.667,407.853,38.846,411.673,34.133,411.673z"/>
	<path style="fill:#E35336;" d="M8.533,375.467c-4.713,0-8.533-3.821-8.533-8.533V332.8c0-4.713,3.821-8.533,8.533-8.533
		s8.533,3.821,8.533,8.533v34.133C17.067,371.646,13.246,375.467,8.533,375.467z"/>
</g>
<g>
</g>
<g>
</g>
<g>
</g>
<g>
</g>
<g>
</g>
<g>
</g>
<g>
</g>
<g>
</g>
<g>
</g>
<g>
</g>
<g>
</g>
<g>
</g>
<g>
</g>
<g>
</g>
<g>
</g>
</svg>
