<svg height="100%" width="100%" id="bg-svg" viewBox="0 0 1440 700" xmlns="http://www.w3.org/2000/svg" class="transition duration-300 ease-in-out delay-150"><defs><linearGradient id="gradient"><stop offset="5%" stop-color="#9900ef44"></stop><stop offset="95%" stop-color="#0693e344"></stop></linearGradient></defs><path d="M 0,700 C 0,700 0,140 0,140 C 26.49587924336786,127.36726728696244 52.99175848673572,114.73453457392489 84,106 C 115.00824151326428,97.26546542607511 150.528845296425,92.42912899126289 188,92 C 225.471154703575,91.57087100873711 264.8928603275642,95.54894946102361 294,102 C 323.1071396724358,108.45105053897639 341.8997133933183,117.37507316464263 372,123 C 402.1002866066817,128.62492683535737 443.5082860991628,130.9507578804058 482,141 C 520.4917139008372,151.0492421195942 556.0671422100304,168.82189531373407 589,162 C 621.9328577899696,155.17810468626593 652.2231450607162,123.76166086465791 678,114 C 703.7768549392838,104.23833913534209 725.0402775471048,116.1314612276343 752,126 C 778.9597224528952,135.8685387723657 811.6157447508649,143.71249422480486 849,144 C 886.3842552491351,144.28750577519514 928.496743449435,137.0185618731463 960,143 C 991.503256550565,148.9814381268537 1012.3972814513943,168.21325828260998 1044,165 C 1075.6027185486057,161.78674171739002 1117.914130744987,136.12840499641382 1151,141 C 1184.085869255013,145.87159500358618 1207.9461955686572,181.27312173173476 1236,176 C 1264.0538044313428,170.72687826826524 1296.3010869803834,124.7791080766472 1331,112 C 1365.6989130196166,99.2208919233528 1402.8494565098083,119.61044596167639 1440,140 C 1440,140 1440,700 1440,700 Z" stroke="none" stroke-width="0" fill="url(#gradient)" class="transition-all duration-300 ease-in-out delay-150"></path><defs><linearGradient id="gradient"><stop offset="5%" stop-color="#9900ef66"></stop><stop offset="95%" stop-color="#0693e366"></stop></linearGradient></defs><path d="M 0,700 C 0,700 0,280 0,280 C 36.706844836828324,275.5295298170764 73.41368967365665,271.0590596341528 110,277 C 146.58631032634335,282.9409403658472 183.05208614220163,299.2932912804651 209,303 C 234.94791385779837,306.7067087195349 250.37796575753697,297.7677752439867 276,299 C 301.62203424246303,300.2322247560133 337.4360508276506,311.635607743588 378,310 C 418.5639491723494,308.364392256412 463.8778309318608,293.6897937816614 497,290 C 530.1221690681392,286.3102062183386 551.0526254449062,293.60521712976623 580,285 C 608.9473745550938,276.39478287023377 645.9116672885143,251.8893376992736 675,250 C 704.0883327114857,248.1106623007264 725.3007054010369,268.83743207313927 756,272 C 786.6992945989631,275.16256792686073 826.8855111073381,260.7609340081692 862,272 C 897.1144888926619,283.2390659918308 927.1572501696104,320.1188318941841 956,316 C 984.8427498303896,311.8811681058159 1012.4854882142204,266.7637384150943 1048,261 C 1083.5145117857796,255.2362615849057 1126.900796973508,288.8262144454386 1160,307 C 1193.099203026492,325.1737855545614 1215.9113238917478,327.93140380315117 1245,324 C 1274.0886761082522,320.06859619684883 1309.4539074595004,309.44817034195677 1343,301 C 1376.5460925404996,292.55182965804323 1408.2730462702498,286.27591482902164 1440,280 C 1440,280 1440,700 1440,700 Z" stroke="none" stroke-width="0" fill="url(#gradient)" class="transition-all duration-300 ease-in-out delay-150"></path><defs><linearGradient id="gradient"><stop offset="5%" stop-color="#9900ef88"></stop><stop offset="95%" stop-color="#0693e388"></stop></linearGradient></defs><path d="M 0,700 C 0,700 0,420 0,420 C 32.01424324348378,404.433239729874 64.02848648696757,388.866479459748 95,401 C 125.97151351303243,413.133520540252 155.9002972956135,452.9673218908821 189,466 C 222.0997027043865,479.0326781091179 258.3703243305783,465.2642329767237 291,441 C 323.6296756694217,416.7357670232763 352.61840538207343,381.97574620222304 387,372 C 421.38159461792657,362.02425379777696 461.15605414112815,376.8327822143843 490,393 C 518.8439458588718,409.1672177856157 536.7573780534141,426.69312494023995 562,443 C 587.2426219465859,459.30687505976005 619.8144336452156,474.39471802465624 658,458 C 696.1855663547844,441.60528197534376 739.9848873657237,393.72800296113525 771,386 C 802.0151126342763,378.27199703886475 820.2460168918897,410.69327013080255 853,411 C 885.7539831081103,411.30672986919745 933.0310450667179,379.4989165156546 973,371 C 1012.9689549332821,362.5010834843454 1045.6298028412384,377.3110638065788 1070,381 C 1094.3701971587616,384.6889361934212 1110.449743568328,377.2568282580304 1145,391 C 1179.550256431672,404.7431717419696 1232.5712228854502,439.6616231612995 1263,451 C 1293.4287771145498,462.3383768387005 1301.2653648898713,450.09667909677154 1327,441 C 1352.7346351101287,431.90332090322846 1396.3673175550643,425.9516604516142 1440,420 C 1440,420 1440,700 1440,700 Z" stroke="none" stroke-width="0" fill="url(#gradient)" class="transition-all duration-300 ease-in-out delay-150"></path><defs><linearGradient id="gradient"><stop offset="5%" stop-color="#9900efff"></stop><stop offset="95%" stop-color="#0693e3ff"></stop></linearGradient></defs><path d="M 0,700 C 0,700 0,560 0,560 C 29.306229141578832,589.6223281287546 58.612458283157665,619.2446562575093 90,605 C 121.38754171684234,590.7553437424907 154.8563960089482,532.6437030987177 190,529 C 225.1436039910518,525.3562969012823 261.96195768104957,576.1805313476201 295,582 C 328.03804231895043,587.8194686523799 357.29577326685376,548.6341715108019 390,530 C 422.70422673314624,511.365828489198 458.85494925153523,513.2827826091719 494,522 C 529.1450507484648,530.7172173908281 563.2844297270054,546.2346980525103 593,544 C 622.7155702729946,541.7653019474897 648.0073318404428,521.7784251807865 680,521 C 711.9926681595572,520.2215748192135 750.6862429112233,538.6516012243436 785,562 C 819.3137570887767,585.3483987756564 849.2476965146642,613.615169921839 875,611 C 900.7523034853358,608.384830078161 922.3229710301196,574.8877190883007 947,571 C 971.6770289698804,567.1122809116993 999.4604193648577,592.8339537249581 1040,599 C 1080.5395806351423,605.1660462750419 1133.8353515104504,591.776466011867 1169,579 C 1204.1646484895496,566.223533988133 1221.1981745933404,554.0601822275743 1247,558 C 1272.8018254066596,561.9398177724257 1307.3719501161881,581.9828050778359 1341,585 C 1374.6280498838119,588.0171949221641 1407.314024941906,574.008597461082 1440,560 C 1440,560 1440,700 1440,700 Z" stroke="none" stroke-width="0" fill="url(#gradient)" class="transition-all duration-300 ease-in-out delay-150"></path></svg>