<?xml version="1.0" encoding="UTF-8" standalone="no"?>
<!DOCTYPE svg PUBLIC "-//W3C//DTD SVG 1.1//EN" "http://www.w3.org/Graphics/SVG/1.1/DTD/svg11.dtd">
<svg width="100%" height="100%" viewBox="0 0 230 99" version="1.1" xmlns="http://www.w3.org/2000/svg" xmlns:xlink="http://www.w3.org/1999/xlink" xml:space="preserve" xmlns:serif="http://www.serif.com/" style="fill-rule:evenodd;clip-rule:evenodd;stroke-linejoin:round;stroke-miterlimit:2;">
    <g id="Artboard1" transform="matrix(1,0,0,1,-565.458,-462.227)">
        <rect x="565.458" y="462.227" width="229.146" height="98.079" style="fill:none;"/>
        <clipPath id="_clip1">
            <rect x="565.458" y="462.227" width="229.146" height="98.079"/>
        </clipPath>
        <g clip-path="url(#_clip1)">
            <g transform="matrix(1,0,0,1,670.99,509.724)">
                <g transform="matrix(1,0,0,1,-121,-58.5)">
                    <g id="Artboard11" serif:id="Artboard1" transform="matrix(1,0,0,1,-22.2255,-471.213)">
                        <rect x="22.226" y="471.213" width="241.451" height="116.699" style="fill:rgb(128,128,128);fill-opacity:0;"/>
                        <g transform="matrix(1,0,0,1,0.22555,0.212655)">
                            <path d="M92.82,530.868L92.799,530.807C92.716,530.366 92.261,529.435 91.183,528.677C90.535,528.221 89.653,527.922 88.447,527.822C87.055,527.685 85.386,527.684 83.555,527.608C81.28,527.514 78.811,527.407 76.503,527.708C74.075,528.024 71.831,528.683 70.473,530.241C69.827,530.978 70.29,531.696 70.805,532.324C71.85,533.598 73.516,534.598 74.583,535.161C77.706,536.773 86.455,538.549 90.371,542.219C93.166,544.837 94.185,548.167 91.994,552.499C90.242,555.876 86.977,558.314 82.855,559.718C75.481,562.231 65.377,561.461 60.003,561.289C57.242,561.026 52.864,561.58 49.852,560.428C47.107,559.378 45.151,557.61 45.956,554.058C45.956,553.816 46.153,553.619 46.395,553.619C46.637,553.619 46.834,553.816 46.834,554.058C47.21,555.718 48.163,556.336 49.37,556.65C50.201,556.866 51.124,556.729 52.146,556.656C54.844,556.465 57.866,555.784 60.003,555.588C64.242,555.442 71.64,555.309 77.906,553.805C81.396,552.967 84.633,551.894 86.093,549.284C87.055,547.641 86.01,546.511 84.633,545.552C80.716,542.824 74.437,541.169 72.037,539.73C70.214,538.659 67.283,536.491 66.05,534.055C64.915,531.813 64.788,529.373 67.006,527.062C69.151,524.838 72.437,523.674 76.092,523.444C78.709,523.279 81.512,523.436 84.02,523.98C85.92,524.392 87.588,525.018 88.977,525.539C90.858,526.281 91.957,527.279 92.554,528.32C93.2,529.445 93.288,530.459 93.209,530.874C93.122,531.333 92.897,531.37 92.767,531.092C92.718,531.02 92.737,530.922 92.809,530.873L92.82,530.868Z" style="fill:rgb(89,89,89);"/>
                        </g>
                        <g transform="matrix(1,0,0,1,0.22555,0.212655)">
                            <path d="M103.399,538.878C101.989,534.744 100.637,530.512 99.452,526.272C97.986,521.029 96.765,515.78 95.999,510.682C95.77,509.088 94.997,502.479 95.829,498.287C96.569,494.563 98.555,492.579 101.168,493.566C104.692,494.606 107.285,497.135 109.085,500.325C111.581,504.751 112.518,510.465 112.473,514.707C112.385,522.782 111.291,529.743 108.781,535.954C110.161,539.533 111.59,543.039 112.987,546.414C113.31,547.194 113.915,548.882 114.676,550.542C114.981,551.207 115.323,552.386 115.672,552.924C116.261,552.438 117.059,551.708 117.404,551.069C118.009,549.949 118.274,548.802 118.498,548.241C119.271,546.261 121.928,537.048 124.053,531.776C125.138,529.088 126.464,527.387 127.348,527.079C127.921,526.867 128.907,526.974 129.917,527.904C131.428,529.295 134.158,534.017 134.333,534.276C136.145,536.959 138.801,542.18 142.113,545.811C143.175,546.976 144.35,547.86 145.545,548.431C146.056,548.674 146.56,548.907 147.118,548.906C147.032,548.032 148.985,547.04 149.408,545.432C150.818,540.06 150.382,532.472 151.089,529.183C151.474,527.396 152.335,526.405 153.023,526.05C153.59,525.758 155.069,525.549 156.381,527.034C157.649,528.469 160.299,532.819 160.377,532.935C161.814,535.023 164.041,539.054 166.528,542.805C167.372,544.077 168.232,545.319 169.131,546.408C169.891,547.328 170.667,548.1 171.45,548.737C172.701,549.754 173.666,550.858 175.536,550.37C176.128,550.011 176.899,550.2 177.258,550.791C177.617,551.383 177.428,552.155 176.837,552.514C174.25,555.375 171.315,555.41 168.261,554.396C167.574,554.168 166.959,553.725 166.333,553.266C164.181,551.687 162.251,549.145 160.679,546.383C158.424,542.419 156.976,537.94 155.812,535.651C155.795,535.619 155.44,535.227 154.975,534.655C154.611,538.575 154.199,543.503 153.584,547.288C153.477,547.943 153.412,548.556 153.307,549.148C152.677,552.712 150.609,554.622 148.225,555.327C144.888,555.772 141.746,554.469 139.143,551.835C135.054,547.695 132.314,540.228 130.415,536.62L127.826,531.682C127.126,533.015 126.415,534.949 125.722,537.034C124.046,542.077 122.585,548.021 122.025,549.569C121.817,550.157 121.366,551.265 121.01,552.529C120.442,554.551 119.715,556.611 118.652,557.929C117.537,559.313 115.971,559.457 114.274,559.405C112.773,559.092 111.184,557.888 109.96,555.998C108.439,553.648 107.392,550.088 106.905,548.78C106.25,546.983 105.588,545.15 104.929,543.289C102.014,547.717 98.158,551.781 93.217,555.678C90.475,557.822 83.532,563.334 78.494,564.772C77.219,565.135 76.023,565.361 75.051,565.083C73.365,564.6 72.181,563.329 72.289,560.824C72.257,560.65 72.373,560.483 72.547,560.451C72.721,560.42 72.888,560.535 72.92,560.709C73.524,562.125 74.391,562.461 75.467,562.505C76.131,562.532 76.887,562.455 77.718,562.192C82.4,560.71 88.713,555.286 91.225,553.204C96.671,548.728 100.623,544.05 103.399,538.878ZM115.569,553.009C115.284,553.096 114.97,553.472 114.97,553.472C114.97,553.472 115.222,553.291 115.569,553.009ZM115.718,552.993C115.877,553.215 116.038,553.288 116.197,553.101C116.297,552.983 115.912,553.052 115.785,553.012C115.764,553.002 115.741,552.996 115.718,552.993ZM106.77,530.579C108.161,525.794 108.831,520.552 108.914,514.662C108.967,510.945 108.199,505.929 106.027,502.042C104.689,499.649 102.814,497.681 100.179,496.892C100.466,496.963 99.738,497.502 100.062,497.579C100.263,497.626 100.021,497.996 99.999,498.225C99.952,498.705 99.986,499.224 99.973,499.782C99.947,500.954 99.93,502.249 100.007,503.518C100.177,506.315 100.601,508.967 100.774,509.86C101.719,514.718 103.11,519.703 104.732,524.672C105.377,526.648 106.06,528.62 106.77,530.579Z" style="fill:rgb(89,89,89);"/>
                        </g>
                        <g transform="matrix(1,0,0,1,0.22555,0.212655)">
                            <path d="M225.285,545.041C225.304,543.261 226.172,540.976 224.957,541.205C223.317,542.559 222.64,544.736 221.761,546.7C220.93,548.557 219.853,550.026 218.352,550.955C216.81,551.909 214.784,551.982 211.775,551.049C210.978,550.663 210.042,550.035 209.111,549.113C205.749,545.783 201.674,538.514 198.184,535.011C197.27,534.093 196.655,533.224 196.02,533.441C193.809,534.274 193.706,537.042 193.548,539.875C193.348,543.434 193.263,547.153 191.921,549.553C190.551,552.004 188.045,553.463 182.722,552.625C181.713,552.441 180.718,552.199 179.753,551.847C179.152,551.628 178.579,551.34 177.999,551.074C175.117,549.608 170.677,543.977 169.519,538.597C168.638,534.507 169.347,530.752 173.026,529.305C173.796,528.976 174.834,528.944 175.96,529.194C177.734,529.587 179.75,530.546 180.811,530.988C181.066,531.07 181.28,531.141 181.396,531.186C181.88,531.372 181.769,531.873 181.752,531.92C181.746,531.936 181.699,532.02 181.594,532.094C181.63,532.145 181.661,532.197 181.687,532.249C181.745,532.351 181.709,532.48 181.607,532.538C181.506,532.595 181.377,532.56 181.319,532.458C181.261,532.369 181.183,532.286 181.087,532.209L180.978,532.196C180.255,532.044 178.285,531.296 176.424,530.99C175.462,530.832 174.543,530.784 173.962,531.132C173.564,531.457 173.371,531.862 173.12,532.23C172.145,533.661 172.435,535.518 173.176,537.496C174.59,541.275 177.945,545.253 180.173,546.061L184.004,547.643C186.534,548.559 188.016,548.702 188.846,547.572C190.478,545.349 190.173,541.194 190.621,537.783C191.069,534.375 192.147,531.582 194.93,530.531C196.367,529.946 198.504,530.833 200.851,532.891C203.77,535.45 207.459,539.676 210.56,542.886C211.96,544.335 213.166,545.562 214.166,545.99C215.703,547.016 216.66,547.358 217.57,546.754C219.955,545.172 221.646,541.764 224.606,540.609C224.888,540.498 225.119,540.53 225.368,540.552C226.765,540.677 228.786,542.694 229.707,544.693C230.066,545.473 230.082,546.206 230.014,546.512C229.89,547.074 229.876,547.433 229.673,547.593C228.936,548.173 228.705,548.894 228.085,548.764C227.683,548.679 227.148,548.76 226.543,548.41C225.626,547.879 224.704,547.232 224.595,547.159C224.03,547.056 223.656,546.514 223.759,545.949C223.862,545.384 224.404,545.01 224.969,545.113L225.285,545.041ZM225.311,545.889C225.139,546.144 225.016,546.396 225.307,546.363C225.361,546.357 225.326,546.242 225.324,546.16L225.311,545.889ZM225.851,544.909C226.194,544.826 226.596,544.721 226.983,544.604C227.126,544.56 227.306,544.403 227.306,544.403C227.306,544.403 227.212,544.242 227.165,544.275C226.784,544.542 226.19,544.54 225.851,544.909Z" style="fill:rgb(89,89,89);"/>
                        </g>
                        <g transform="matrix(1,0,0,1,0.22555,0.212655)">
                            <path d="M214.797,514.822C213.989,514.378 213.955,513.817 217.527,513.556C217.753,513.54 217.928,513.484 218.199,513.647C219.005,514.132 220.062,515.194 221.904,516.12L233.747,522.043C234.439,522.121 234.936,522.747 234.857,523.438C234.779,524.13 234.153,524.628 233.462,524.549C231.178,524.983 229.242,525.355 227,525.497C225.995,525.56 225.059,525.543 224.065,525.393C221.881,525.063 219.846,524.06 217.792,522.936C215.189,521.077 213.287,519.553 212.767,518.19C212.593,517.733 212.431,517.485 212.564,517.16C213.857,513.992 214.31,514.008 214.438,514.789C214.506,514.791 214.621,514.803 214.783,514.836L214.791,514.827L214.797,514.822ZM214.463,514.982C214.562,516.026 214.265,517.877 214.429,516.549L214.601,515.226C214.61,515.161 214.625,515.103 214.647,515.054C214.577,515.053 214.512,515.026 214.463,514.982Z" style="fill:rgb(89,89,89);"/>
                        </g>
                    </g>
                </g>
            </g>
            <g transform="matrix(1,0,0,1,0.457622,0.227294)">
                <path d="M767.353,524.77C768.526,523.241 769.455,521.601 770.746,520.127C771.599,519.153 772.562,518.212 773.849,517.421C774.297,517.145 774.96,516.586 775.378,516.378C776.193,515.974 776.674,516.434 777.548,516.97C778.059,517.252 778.485,518.531 777.784,520.74C777.186,522.624 775.212,525.685 773.19,528.096C771.602,529.989 769.776,530.902 769.382,532.063C769.382,532.369 769.133,532.618 768.827,532.618C768.52,532.618 768.272,532.369 768.272,532.063C768.041,531.476 767.881,530.73 767.867,529.845C767.315,530.136 766.737,529.999 766.268,529.881C765.869,529.78 765.444,529.467 765.125,528.909C764.951,528.606 764.903,527.82 764.779,527.456L762.65,522.985C762.525,522.754 762.38,522.337 762.244,521.882C761.839,521.044 761.585,520.22 761.519,519.496C761.47,518.887 761.756,518.608 761.835,518.506C762.077,518.193 762.41,518.137 762.727,518.114C762.934,518.099 763.47,518.202 763.861,518.877C764.084,519.262 764.632,520.878 765.054,521.426L767.353,524.77ZM768.324,526.732L768.333,526.779L768.393,526.59L768.378,526.581L768.299,526.541L768.324,526.732ZM774.235,518.005C774.262,517.964 774.258,517.925 774.211,517.888C774.133,517.825 774.178,517.901 774.235,518.005Z" style="fill:rgb(219,65,65);"/>
            </g>
            <g transform="matrix(1,0,0,1,0.457622,0.227294)">
                <g transform="matrix(1,-0,-0,1,565,462)">
                </g>
            </g>
        </g>
    </g>
</svg>
